<mxfile host="Electron" modified="2023-09-22T08:41:43.155Z" agent="Mozilla/5.0 (Macintosh; Intel Mac OS X 10_15_7) AppleWebKit/537.36 (KHTML, like Gecko) draw.io/21.7.5 Chrome/114.0.5735.289 Electron/25.8.1 Safari/537.36" etag="Tofo50r5l0_HiHYswzl6" version="21.7.5" type="device" pages="3">
  <diagram name="Page-1" id="lLtqbEPLI3rhYLJv1QO2">
    <mxGraphModel dx="835" dy="729" grid="1" gridSize="10" guides="1" tooltips="1" connect="1" arrows="1" fold="1" page="1" pageScale="1" pageWidth="827" pageHeight="1169" math="0" shadow="0">
      <root>
        <mxCell id="0" />
        <mxCell id="1" parent="0" />
        <mxCell id="rqItN7AuTsDLwn26Sm5v-1" value="" style="rounded=0;whiteSpace=wrap;html=1;fillColor=none;strokeWidth=3;strokeColor=#10A8AD;" parent="1" vertex="1">
          <mxGeometry x="280" y="280" width="240" height="240" as="geometry" />
        </mxCell>
        <mxCell id="rqItN7AuTsDLwn26Sm5v-2" value="" style="rounded=0;whiteSpace=wrap;html=1;fillColor=none;strokeWidth=5;strokeColor=#10A8AD;" parent="1" vertex="1">
          <mxGeometry x="280" y="280" width="80" height="80" as="geometry" />
        </mxCell>
        <mxCell id="rqItN7AuTsDLwn26Sm5v-3" value="" style="rounded=0;whiteSpace=wrap;html=1;fillColor=none;strokeWidth=5;strokeColor=#10A8AD;" parent="1" vertex="1">
          <mxGeometry x="360" y="280" width="80" height="80" as="geometry" />
        </mxCell>
        <mxCell id="rqItN7AuTsDLwn26Sm5v-4" value="" style="rounded=0;whiteSpace=wrap;html=1;fillColor=none;strokeWidth=5;strokeColor=#10A8AD;" parent="1" vertex="1">
          <mxGeometry x="440" y="280" width="80" height="80" as="geometry" />
        </mxCell>
        <mxCell id="rqItN7AuTsDLwn26Sm5v-5" value="" style="rounded=0;whiteSpace=wrap;html=1;fillColor=none;strokeWidth=5;strokeColor=#10A8AD;" parent="1" vertex="1">
          <mxGeometry x="280" y="360" width="80" height="80" as="geometry" />
        </mxCell>
        <mxCell id="rqItN7AuTsDLwn26Sm5v-7" value="" style="rounded=0;whiteSpace=wrap;html=1;fillColor=none;strokeWidth=5;strokeColor=#10A8AD;" parent="1" vertex="1">
          <mxGeometry x="440" y="360" width="80" height="80" as="geometry" />
        </mxCell>
        <mxCell id="rqItN7AuTsDLwn26Sm5v-8" value="" style="rounded=0;whiteSpace=wrap;html=1;fillColor=none;strokeWidth=5;strokeColor=#10A8AD;" parent="1" vertex="1">
          <mxGeometry x="280" y="440" width="80" height="80" as="geometry" />
        </mxCell>
        <mxCell id="rqItN7AuTsDLwn26Sm5v-9" value="" style="rounded=0;whiteSpace=wrap;html=1;fillColor=none;strokeWidth=5;strokeColor=#10A8AD;" parent="1" vertex="1">
          <mxGeometry x="360" y="440" width="80" height="80" as="geometry" />
        </mxCell>
        <mxCell id="rqItN7AuTsDLwn26Sm5v-10" value="" style="rounded=0;whiteSpace=wrap;html=1;fillColor=none;strokeWidth=5;strokeColor=#10A8AD;" parent="1" vertex="1">
          <mxGeometry x="440" y="440" width="80" height="80" as="geometry" />
        </mxCell>
        <mxCell id="rqItN7AuTsDLwn26Sm5v-6" value="" style="rounded=0;whiteSpace=wrap;html=1;fillColor=none;strokeWidth=5;strokeColor=#AD0C52;fillStyle=dots;" parent="1" vertex="1">
          <mxGeometry x="360" y="360" width="80" height="80" as="geometry" />
        </mxCell>
        <mxCell id="rqItN7AuTsDLwn26Sm5v-11" value="4" style="text;html=1;strokeColor=none;fillColor=none;align=center;verticalAlign=middle;whiteSpace=wrap;rounded=0;fontFamily=Avenir;fontSize=43;fontStyle=1;fontColor=#ae0c52;" parent="1" vertex="1">
          <mxGeometry x="370" y="385" width="60" height="30" as="geometry" />
        </mxCell>
        <mxCell id="rqItN7AuTsDLwn26Sm5v-12" value="0" style="text;html=1;strokeColor=none;fillColor=none;align=center;verticalAlign=middle;whiteSpace=wrap;rounded=0;fontFamily=Avenir;fontSize=43;fontStyle=1;fontColor=#10A8AD;" parent="1" vertex="1">
          <mxGeometry x="290" y="305" width="60" height="30" as="geometry" />
        </mxCell>
        <mxCell id="rqItN7AuTsDLwn26Sm5v-13" value="1" style="text;html=1;strokeColor=none;fillColor=none;align=center;verticalAlign=middle;whiteSpace=wrap;rounded=0;fontFamily=Avenir;fontSize=43;fontStyle=1;fontColor=#10A8AD;" parent="1" vertex="1">
          <mxGeometry x="370" y="305" width="60" height="30" as="geometry" />
        </mxCell>
        <mxCell id="rqItN7AuTsDLwn26Sm5v-14" value="2" style="text;html=1;strokeColor=none;fillColor=none;align=center;verticalAlign=middle;whiteSpace=wrap;rounded=0;fontFamily=Avenir;fontSize=43;fontStyle=1;fontColor=#10A8AD;" parent="1" vertex="1">
          <mxGeometry x="450" y="305" width="60" height="30" as="geometry" />
        </mxCell>
        <mxCell id="rqItN7AuTsDLwn26Sm5v-15" value="6" style="text;html=1;strokeColor=none;fillColor=none;align=center;verticalAlign=middle;whiteSpace=wrap;rounded=0;fontFamily=Avenir;fontSize=43;fontStyle=1;fontColor=#10A8AD;" parent="1" vertex="1">
          <mxGeometry x="290" y="465" width="60" height="30" as="geometry" />
        </mxCell>
        <mxCell id="rqItN7AuTsDLwn26Sm5v-16" value="3" style="text;html=1;strokeColor=none;fillColor=none;align=center;verticalAlign=middle;whiteSpace=wrap;rounded=0;fontFamily=Avenir;fontSize=43;fontStyle=1;fontColor=#10A8AD;" parent="1" vertex="1">
          <mxGeometry x="290" y="385" width="60" height="30" as="geometry" />
        </mxCell>
        <mxCell id="rqItN7AuTsDLwn26Sm5v-17" value="8" style="text;html=1;strokeColor=none;fillColor=none;align=center;verticalAlign=middle;whiteSpace=wrap;rounded=0;fontFamily=Avenir;fontSize=43;fontStyle=1;fontColor=#10A8AD;" parent="1" vertex="1">
          <mxGeometry x="450" y="465" width="60" height="30" as="geometry" />
        </mxCell>
        <mxCell id="rqItN7AuTsDLwn26Sm5v-18" value="5" style="text;html=1;strokeColor=none;fillColor=none;align=center;verticalAlign=middle;whiteSpace=wrap;rounded=0;fontFamily=Avenir;fontSize=43;fontStyle=1;fontColor=#10A8AD;" parent="1" vertex="1">
          <mxGeometry x="450" y="385" width="60" height="30" as="geometry" />
        </mxCell>
        <mxCell id="rqItN7AuTsDLwn26Sm5v-19" value="7" style="text;html=1;strokeColor=none;fillColor=none;align=center;verticalAlign=middle;whiteSpace=wrap;rounded=0;fontFamily=Avenir;fontSize=43;fontStyle=1;fontColor=#10A8AD;" parent="1" vertex="1">
          <mxGeometry x="370" y="465" width="60" height="30" as="geometry" />
        </mxCell>
      </root>
    </mxGraphModel>
  </diagram>
  <diagram id="O5phyRfvInC9ZANAfu6o" name="Page-2">
    <mxGraphModel dx="835" dy="729" grid="1" gridSize="10" guides="1" tooltips="1" connect="1" arrows="1" fold="1" page="1" pageScale="1" pageWidth="2339" pageHeight="3300" math="0" shadow="0">
      <root>
        <mxCell id="0" />
        <mxCell id="1" parent="0" />
        <mxCell id="qV-ueoYf3WWMQ8qp10Ea-1" value="0,0" style="rounded=0;whiteSpace=wrap;html=1;fillColor=none;strokeWidth=3;strokeColor=#AD4564;dashed=1;fontFamily=Avenir;fontStyle=1;fontSize=24;fontColor=#ad4564;fillStyle=solid;" parent="1" vertex="1">
          <mxGeometry x="960" y="920" width="50" height="50" as="geometry" />
        </mxCell>
        <mxCell id="qV-ueoYf3WWMQ8qp10Ea-2" value="0,1" style="rounded=0;whiteSpace=wrap;html=1;fillColor=none;strokeWidth=3;strokeColor=#AD4564;dashed=1;fontFamily=Avenir;fontStyle=1;fontSize=24;fontColor=#ad4564;" parent="1" vertex="1">
          <mxGeometry x="1010" y="920" width="50" height="50" as="geometry" />
        </mxCell>
        <mxCell id="qV-ueoYf3WWMQ8qp10Ea-3" value="0,2" style="rounded=0;whiteSpace=wrap;html=1;fillColor=none;strokeWidth=3;strokeColor=#AD4564;dashed=1;fontFamily=Avenir;fontStyle=1;fontSize=24;fontColor=#ad4564;" parent="1" vertex="1">
          <mxGeometry x="1060" y="920" width="50" height="50" as="geometry" />
        </mxCell>
        <mxCell id="qV-ueoYf3WWMQ8qp10Ea-4" value="0,3" style="rounded=0;whiteSpace=wrap;html=1;fillColor=none;strokeWidth=3;strokeColor=#AD4564;dashed=1;fontFamily=Avenir;fontStyle=1;fontSize=24;fontColor=#ad4564;" parent="1" vertex="1">
          <mxGeometry x="1110" y="920" width="50" height="50" as="geometry" />
        </mxCell>
        <mxCell id="qV-ueoYf3WWMQ8qp10Ea-5" value="0,4" style="rounded=0;whiteSpace=wrap;html=1;fillColor=none;strokeWidth=3;strokeColor=#AD4564;dashed=1;fontFamily=Avenir;fontStyle=1;fontSize=24;fontColor=#ad4564;" parent="1" vertex="1">
          <mxGeometry x="1160" y="920" width="50" height="50" as="geometry" />
        </mxCell>
        <mxCell id="qV-ueoYf3WWMQ8qp10Ea-6" value="0,5" style="rounded=0;whiteSpace=wrap;html=1;fillColor=none;strokeWidth=3;strokeColor=#AD4564;dashed=1;fontFamily=Avenir;fontStyle=1;fontSize=24;fontColor=#ad4564;" parent="1" vertex="1">
          <mxGeometry x="1210" y="920" width="50" height="50" as="geometry" />
        </mxCell>
        <mxCell id="qV-ueoYf3WWMQ8qp10Ea-7" value="0,6" style="rounded=0;whiteSpace=wrap;html=1;fillColor=none;strokeWidth=3;strokeColor=#AD4564;dashed=1;fontFamily=Avenir;fontStyle=1;fontSize=24;fontColor=#ad4564;" parent="1" vertex="1">
          <mxGeometry x="1260" y="920" width="50" height="50" as="geometry" />
        </mxCell>
        <mxCell id="qV-ueoYf3WWMQ8qp10Ea-8" value="1,0" style="rounded=0;whiteSpace=wrap;html=1;fillColor=none;strokeWidth=3;strokeColor=#AD4564;dashed=1;fontFamily=Avenir;fontStyle=1;fontSize=24;fontColor=#ad4564;" parent="1" vertex="1">
          <mxGeometry x="960" y="970" width="50" height="50" as="geometry" />
        </mxCell>
        <mxCell id="qV-ueoYf3WWMQ8qp10Ea-9" value="1,1" style="rounded=0;whiteSpace=wrap;html=1;fillColor=none;strokeWidth=3;strokeColor=#AD4564;dashed=1;fontFamily=Avenir;fontStyle=1;fontSize=24;fontColor=#ad4564;" parent="1" vertex="1">
          <mxGeometry x="1010" y="970" width="50" height="50" as="geometry" />
        </mxCell>
        <mxCell id="qV-ueoYf3WWMQ8qp10Ea-10" value="1,2" style="rounded=0;whiteSpace=wrap;html=1;fillColor=none;strokeWidth=3;strokeColor=#AD4564;dashed=1;fontFamily=Avenir;fontStyle=1;fontSize=24;fontColor=#ad4564;" parent="1" vertex="1">
          <mxGeometry x="1060" y="970" width="50" height="50" as="geometry" />
        </mxCell>
        <mxCell id="qV-ueoYf3WWMQ8qp10Ea-11" value="1,3" style="rounded=0;whiteSpace=wrap;html=1;fillColor=none;strokeWidth=3;strokeColor=#AD4564;dashed=1;fontFamily=Avenir;fontStyle=1;fontSize=24;fontColor=#ad4564;" parent="1" vertex="1">
          <mxGeometry x="1110" y="970" width="50" height="50" as="geometry" />
        </mxCell>
        <mxCell id="qV-ueoYf3WWMQ8qp10Ea-12" value="1,4" style="rounded=0;whiteSpace=wrap;html=1;fillColor=none;strokeWidth=3;strokeColor=#AD4564;dashed=1;fontFamily=Avenir;fontStyle=1;fontSize=24;fontColor=#ad4564;" parent="1" vertex="1">
          <mxGeometry x="1160" y="970" width="50" height="50" as="geometry" />
        </mxCell>
        <mxCell id="qV-ueoYf3WWMQ8qp10Ea-13" value="1,5" style="rounded=0;whiteSpace=wrap;html=1;fillColor=none;strokeWidth=3;strokeColor=#AD4564;dashed=1;fontFamily=Avenir;fontStyle=1;fontSize=24;fontColor=#ad4564;" parent="1" vertex="1">
          <mxGeometry x="1210" y="970" width="50" height="50" as="geometry" />
        </mxCell>
        <mxCell id="qV-ueoYf3WWMQ8qp10Ea-14" value="1,6" style="rounded=0;whiteSpace=wrap;html=1;fillColor=none;strokeWidth=3;strokeColor=#AD4564;dashed=1;fontFamily=Avenir;fontStyle=1;fontSize=24;fontColor=#ad4564;" parent="1" vertex="1">
          <mxGeometry x="1260" y="970" width="50" height="50" as="geometry" />
        </mxCell>
        <mxCell id="qV-ueoYf3WWMQ8qp10Ea-15" value="2,0" style="rounded=0;whiteSpace=wrap;html=1;fillColor=none;strokeWidth=3;strokeColor=#AD4564;dashed=1;fontFamily=Avenir;fontStyle=1;fontSize=24;fontColor=#ad4564;" parent="1" vertex="1">
          <mxGeometry x="960" y="1020" width="50" height="50" as="geometry" />
        </mxCell>
        <mxCell id="qV-ueoYf3WWMQ8qp10Ea-16" value="2,1" style="rounded=0;whiteSpace=wrap;html=1;fillColor=none;strokeWidth=3;strokeColor=#AD4564;dashed=1;fontFamily=Avenir;fontStyle=1;fontSize=24;fontColor=#ad4564;" parent="1" vertex="1">
          <mxGeometry x="1010" y="1020" width="50" height="50" as="geometry" />
        </mxCell>
        <mxCell id="qV-ueoYf3WWMQ8qp10Ea-17" value="2,2" style="rounded=0;whiteSpace=wrap;html=1;fillColor=none;strokeWidth=3;strokeColor=#AD4564;dashed=1;fontFamily=Avenir;fontStyle=1;fontSize=24;fontColor=#ad4564;" parent="1" vertex="1">
          <mxGeometry x="1060" y="1020" width="50" height="50" as="geometry" />
        </mxCell>
        <mxCell id="qV-ueoYf3WWMQ8qp10Ea-18" value="2,3" style="rounded=0;whiteSpace=wrap;html=1;fillColor=none;strokeWidth=3;strokeColor=#AD4564;dashed=1;fontFamily=Avenir;fontStyle=1;fontSize=24;fontColor=#ad4564;" parent="1" vertex="1">
          <mxGeometry x="1110" y="1020" width="50" height="50" as="geometry" />
        </mxCell>
        <mxCell id="qV-ueoYf3WWMQ8qp10Ea-19" value="2,4" style="rounded=0;whiteSpace=wrap;html=1;fillColor=none;strokeWidth=3;strokeColor=#AD4564;dashed=1;fontFamily=Avenir;fontStyle=1;fontSize=24;fontColor=#ad4564;" parent="1" vertex="1">
          <mxGeometry x="1160" y="1020" width="50" height="50" as="geometry" />
        </mxCell>
        <mxCell id="qV-ueoYf3WWMQ8qp10Ea-20" value="2,5" style="rounded=0;whiteSpace=wrap;html=1;fillColor=none;strokeWidth=3;strokeColor=#AD4564;dashed=1;fontFamily=Avenir;fontStyle=1;fontSize=24;fontColor=#ad4564;" parent="1" vertex="1">
          <mxGeometry x="1210" y="1020" width="50" height="50" as="geometry" />
        </mxCell>
        <mxCell id="qV-ueoYf3WWMQ8qp10Ea-21" value="2,6" style="rounded=0;whiteSpace=wrap;html=1;fillColor=none;strokeWidth=3;strokeColor=#AD4564;dashed=1;fontFamily=Avenir;fontStyle=1;fontSize=24;fontColor=#ad4564;" parent="1" vertex="1">
          <mxGeometry x="1260" y="1020" width="50" height="50" as="geometry" />
        </mxCell>
        <mxCell id="qV-ueoYf3WWMQ8qp10Ea-22" value="3,0" style="rounded=0;whiteSpace=wrap;html=1;fillColor=none;strokeWidth=3;strokeColor=#AD4564;dashed=1;fontFamily=Avenir;fontStyle=1;fontSize=24;fontColor=#ad4564;" parent="1" vertex="1">
          <mxGeometry x="960" y="1070" width="50" height="50" as="geometry" />
        </mxCell>
        <mxCell id="qV-ueoYf3WWMQ8qp10Ea-23" value="3,1" style="rounded=0;whiteSpace=wrap;html=1;fillColor=none;strokeWidth=3;strokeColor=#AD4564;dashed=1;fontFamily=Avenir;fontStyle=1;fontSize=24;fontColor=#ad4564;" parent="1" vertex="1">
          <mxGeometry x="1010" y="1070" width="50" height="50" as="geometry" />
        </mxCell>
        <mxCell id="qV-ueoYf3WWMQ8qp10Ea-24" value="3,2" style="rounded=0;whiteSpace=wrap;html=1;fillColor=none;strokeWidth=3;strokeColor=#AD4564;dashed=1;fontFamily=Avenir;fontStyle=1;fontSize=24;fontColor=#ad4564;" parent="1" vertex="1">
          <mxGeometry x="1060" y="1070" width="50" height="50" as="geometry" />
        </mxCell>
        <mxCell id="qV-ueoYf3WWMQ8qp10Ea-25" value="3,3" style="rounded=0;whiteSpace=wrap;html=1;fillColor=none;strokeWidth=3;strokeColor=#AD4564;dashed=1;fontFamily=Avenir;fontStyle=1;fontSize=24;fontColor=#ad4564;" parent="1" vertex="1">
          <mxGeometry x="1110" y="1070" width="50" height="50" as="geometry" />
        </mxCell>
        <mxCell id="qV-ueoYf3WWMQ8qp10Ea-26" value="3,4" style="rounded=0;whiteSpace=wrap;html=1;fillColor=none;strokeWidth=3;strokeColor=#AD4564;dashed=1;fontFamily=Avenir;fontStyle=1;fontSize=24;fontColor=#ad4564;" parent="1" vertex="1">
          <mxGeometry x="1160" y="1070" width="50" height="50" as="geometry" />
        </mxCell>
        <mxCell id="qV-ueoYf3WWMQ8qp10Ea-27" value="3,5" style="rounded=0;whiteSpace=wrap;html=1;fillColor=none;strokeWidth=3;strokeColor=#AD4564;dashed=1;fontFamily=Avenir;fontStyle=1;fontSize=24;fontColor=#ad4564;" parent="1" vertex="1">
          <mxGeometry x="1210" y="1070" width="50" height="50" as="geometry" />
        </mxCell>
        <mxCell id="qV-ueoYf3WWMQ8qp10Ea-28" value="3,6" style="rounded=0;whiteSpace=wrap;html=1;fillColor=none;strokeWidth=3;strokeColor=#AD4564;dashed=1;fontFamily=Avenir;fontStyle=1;fontSize=24;fontColor=#ad4564;" parent="1" vertex="1">
          <mxGeometry x="1260" y="1070" width="50" height="50" as="geometry" />
        </mxCell>
        <mxCell id="qV-ueoYf3WWMQ8qp10Ea-29" value="4,0" style="rounded=0;whiteSpace=wrap;html=1;fillColor=none;strokeWidth=3;strokeColor=#AD4564;dashed=1;fontFamily=Avenir;fontStyle=1;fontSize=24;fontColor=#ad4564;" parent="1" vertex="1">
          <mxGeometry x="960" y="1120" width="50" height="50" as="geometry" />
        </mxCell>
        <mxCell id="qV-ueoYf3WWMQ8qp10Ea-30" value="4,1" style="rounded=0;whiteSpace=wrap;html=1;fillColor=none;strokeWidth=3;strokeColor=#AD4564;dashed=1;fontFamily=Avenir;fontStyle=1;fontSize=24;fontColor=#ad4564;" parent="1" vertex="1">
          <mxGeometry x="1010" y="1120" width="50" height="50" as="geometry" />
        </mxCell>
        <mxCell id="qV-ueoYf3WWMQ8qp10Ea-31" value="4,2" style="rounded=0;whiteSpace=wrap;html=1;fillColor=none;strokeWidth=3;strokeColor=#AD4564;dashed=1;fontFamily=Avenir;fontStyle=1;fontSize=24;fontColor=#ad4564;" parent="1" vertex="1">
          <mxGeometry x="1060" y="1120" width="50" height="50" as="geometry" />
        </mxCell>
        <mxCell id="qV-ueoYf3WWMQ8qp10Ea-32" value="4,3" style="rounded=0;whiteSpace=wrap;html=1;fillColor=none;strokeWidth=3;strokeColor=#AD4564;dashed=1;fontFamily=Avenir;fontStyle=1;fontSize=24;fontColor=#ad4564;" parent="1" vertex="1">
          <mxGeometry x="1110" y="1120" width="50" height="50" as="geometry" />
        </mxCell>
        <mxCell id="qV-ueoYf3WWMQ8qp10Ea-33" value="4,4" style="rounded=0;whiteSpace=wrap;html=1;fillColor=none;strokeWidth=3;strokeColor=#AD4564;dashed=1;fontFamily=Avenir;fontStyle=1;fontSize=24;fontColor=#ad4564;" parent="1" vertex="1">
          <mxGeometry x="1160" y="1120" width="50" height="50" as="geometry" />
        </mxCell>
        <mxCell id="qV-ueoYf3WWMQ8qp10Ea-34" value="4,5" style="rounded=0;whiteSpace=wrap;html=1;fillColor=none;strokeWidth=3;strokeColor=#AD4564;dashed=1;fontFamily=Avenir;fontStyle=1;fontSize=24;fontColor=#ad4564;" parent="1" vertex="1">
          <mxGeometry x="1210" y="1120" width="50" height="50" as="geometry" />
        </mxCell>
        <mxCell id="qV-ueoYf3WWMQ8qp10Ea-35" value="4,6" style="rounded=0;whiteSpace=wrap;html=1;fillColor=none;strokeWidth=3;strokeColor=#AD4564;dashed=1;fontFamily=Avenir;fontStyle=1;fontSize=24;fontColor=#ad4564;" parent="1" vertex="1">
          <mxGeometry x="1260" y="1120" width="50" height="50" as="geometry" />
        </mxCell>
        <mxCell id="qV-ueoYf3WWMQ8qp10Ea-36" value="5,0" style="rounded=0;whiteSpace=wrap;html=1;fillColor=none;strokeWidth=3;strokeColor=#AD4564;dashed=1;fontFamily=Avenir;fontStyle=1;fontSize=24;fontColor=#ad4564;" parent="1" vertex="1">
          <mxGeometry x="960" y="1170" width="50" height="50" as="geometry" />
        </mxCell>
        <mxCell id="qV-ueoYf3WWMQ8qp10Ea-37" value="5,1" style="rounded=0;whiteSpace=wrap;html=1;fillColor=none;strokeWidth=3;strokeColor=#AD4564;dashed=1;fontFamily=Avenir;fontStyle=1;fontSize=24;fontColor=#ad4564;" parent="1" vertex="1">
          <mxGeometry x="1010" y="1170" width="50" height="50" as="geometry" />
        </mxCell>
        <mxCell id="qV-ueoYf3WWMQ8qp10Ea-38" value="5,2" style="rounded=0;whiteSpace=wrap;html=1;fillColor=none;strokeWidth=3;strokeColor=#AD4564;dashed=1;fontFamily=Avenir;fontStyle=1;fontSize=24;fontColor=#ad4564;" parent="1" vertex="1">
          <mxGeometry x="1060" y="1170" width="50" height="50" as="geometry" />
        </mxCell>
        <mxCell id="qV-ueoYf3WWMQ8qp10Ea-39" value="5,3" style="rounded=0;whiteSpace=wrap;html=1;fillColor=none;strokeWidth=3;strokeColor=#AD4564;dashed=1;fontFamily=Avenir;fontStyle=1;fontSize=24;fontColor=#ad4564;" parent="1" vertex="1">
          <mxGeometry x="1110" y="1170" width="50" height="50" as="geometry" />
        </mxCell>
        <mxCell id="qV-ueoYf3WWMQ8qp10Ea-40" value="5,4" style="rounded=0;whiteSpace=wrap;html=1;fillColor=none;strokeWidth=3;strokeColor=#AD4564;dashed=1;fontFamily=Avenir;fontStyle=1;fontSize=24;fontColor=#ad4564;" parent="1" vertex="1">
          <mxGeometry x="1160" y="1170" width="50" height="50" as="geometry" />
        </mxCell>
        <mxCell id="qV-ueoYf3WWMQ8qp10Ea-41" value="5,5" style="rounded=0;whiteSpace=wrap;html=1;fillColor=none;strokeWidth=3;strokeColor=#AD4564;dashed=1;fontFamily=Avenir;fontStyle=1;fontSize=24;fontColor=#ad4564;" parent="1" vertex="1">
          <mxGeometry x="1210" y="1170" width="50" height="50" as="geometry" />
        </mxCell>
        <mxCell id="qV-ueoYf3WWMQ8qp10Ea-42" value="5,6" style="rounded=0;whiteSpace=wrap;html=1;fillColor=none;strokeWidth=3;strokeColor=#AD4564;dashed=1;fontFamily=Avenir;fontStyle=1;fontSize=24;fontColor=#ad4564;" parent="1" vertex="1">
          <mxGeometry x="1260" y="1170" width="50" height="50" as="geometry" />
        </mxCell>
        <mxCell id="qV-ueoYf3WWMQ8qp10Ea-43" value="6,0" style="rounded=0;whiteSpace=wrap;html=1;fillColor=none;strokeWidth=3;strokeColor=#AD4564;dashed=1;fontFamily=Avenir;fontStyle=1;fontSize=24;fontColor=#ad4564;" parent="1" vertex="1">
          <mxGeometry x="960" y="1220" width="50" height="50" as="geometry" />
        </mxCell>
        <mxCell id="qV-ueoYf3WWMQ8qp10Ea-44" value="6,1" style="rounded=0;whiteSpace=wrap;html=1;fillColor=none;strokeWidth=3;strokeColor=#AD4564;dashed=1;fontFamily=Avenir;fontStyle=1;fontSize=24;fontColor=#ad4564;" parent="1" vertex="1">
          <mxGeometry x="1010" y="1220" width="50" height="50" as="geometry" />
        </mxCell>
        <mxCell id="qV-ueoYf3WWMQ8qp10Ea-45" value="6,2" style="rounded=0;whiteSpace=wrap;html=1;fillColor=none;strokeWidth=3;strokeColor=#AD4564;dashed=1;fontFamily=Avenir;fontStyle=1;fontSize=24;fontColor=#ad4564;" parent="1" vertex="1">
          <mxGeometry x="1060" y="1220" width="50" height="50" as="geometry" />
        </mxCell>
        <mxCell id="qV-ueoYf3WWMQ8qp10Ea-46" value="6,3" style="rounded=0;whiteSpace=wrap;html=1;fillColor=none;strokeWidth=3;strokeColor=#AD4564;dashed=1;fontFamily=Avenir;fontStyle=1;fontSize=24;fontColor=#ad4564;" parent="1" vertex="1">
          <mxGeometry x="1110" y="1220" width="50" height="50" as="geometry" />
        </mxCell>
        <mxCell id="qV-ueoYf3WWMQ8qp10Ea-47" value="6,4" style="rounded=0;whiteSpace=wrap;html=1;fillColor=none;strokeWidth=3;strokeColor=#AD4564;dashed=1;fontFamily=Avenir;fontStyle=1;fontSize=24;fontColor=#ad4564;" parent="1" vertex="1">
          <mxGeometry x="1160" y="1220" width="50" height="50" as="geometry" />
        </mxCell>
        <mxCell id="qV-ueoYf3WWMQ8qp10Ea-48" value="6,5" style="rounded=0;whiteSpace=wrap;html=1;fillColor=none;strokeWidth=3;strokeColor=#AD4564;dashed=1;fontFamily=Avenir;fontStyle=1;fontSize=24;fontColor=#ad4564;" parent="1" vertex="1">
          <mxGeometry x="1210" y="1220" width="50" height="50" as="geometry" />
        </mxCell>
        <mxCell id="qV-ueoYf3WWMQ8qp10Ea-49" value="6,6" style="rounded=0;whiteSpace=wrap;html=1;fillColor=none;strokeWidth=3;strokeColor=#AD4564;dashed=1;fontFamily=Avenir;fontStyle=1;fontSize=24;fontColor=#ad4564;" parent="1" vertex="1">
          <mxGeometry x="1260" y="1220" width="50" height="50" as="geometry" />
        </mxCell>
        <mxCell id="mnjG0ZJLDl94yLdww8Cb-1" value="0,0" style="rounded=0;whiteSpace=wrap;html=1;fillColor=none;strokeWidth=3;strokeColor=#10A8AD;dashed=1;fontFamily=Avenir;fontStyle=1;fontSize=31;fontColor=#10A8AD;" parent="1" vertex="1">
          <mxGeometry x="600" y="560" width="70" height="70" as="geometry" />
        </mxCell>
        <mxCell id="mnjG0ZJLDl94yLdww8Cb-2" value="0,1" style="rounded=0;whiteSpace=wrap;html=1;fillColor=none;strokeWidth=3;strokeColor=#10A8AD;dashed=1;fontFamily=Avenir;fontStyle=1;fontSize=31;fontColor=#10A8AD;" parent="1" vertex="1">
          <mxGeometry x="600" y="630" width="70" height="70" as="geometry" />
        </mxCell>
        <mxCell id="mnjG0ZJLDl94yLdww8Cb-3" value="0,2" style="rounded=0;whiteSpace=wrap;html=1;fillColor=none;strokeWidth=3;strokeColor=#10A8AD;dashed=1;fontFamily=Avenir;fontStyle=1;fontSize=31;fontColor=#10A8AD;" parent="1" vertex="1">
          <mxGeometry x="600" y="700" width="70" height="70" as="geometry" />
        </mxCell>
        <mxCell id="mnjG0ZJLDl94yLdww8Cb-4" value="0,3" style="rounded=0;whiteSpace=wrap;html=1;fillColor=none;strokeWidth=3;strokeColor=#10A8AD;dashed=1;fontFamily=Avenir;fontStyle=1;fontSize=31;fontColor=#10A8AD;" parent="1" vertex="1">
          <mxGeometry x="600" y="770" width="70" height="70" as="geometry" />
        </mxCell>
        <mxCell id="mnjG0ZJLDl94yLdww8Cb-5" value="0,4" style="rounded=0;whiteSpace=wrap;html=1;fillColor=none;strokeWidth=3;strokeColor=#10A8AD;dashed=1;fontFamily=Avenir;fontStyle=1;fontSize=31;fontColor=#10A8AD;" parent="1" vertex="1">
          <mxGeometry x="600" y="840" width="70" height="70" as="geometry" />
        </mxCell>
        <mxCell id="mnjG0ZJLDl94yLdww8Cb-6" value="1,0" style="rounded=0;whiteSpace=wrap;html=1;fillColor=none;strokeWidth=3;strokeColor=#10A8AD;dashed=1;fontFamily=Avenir;fontStyle=1;fontSize=31;fontColor=#10A8AD;" parent="1" vertex="1">
          <mxGeometry x="670" y="560" width="70" height="70" as="geometry" />
        </mxCell>
        <mxCell id="mnjG0ZJLDl94yLdww8Cb-7" value="1,1" style="rounded=0;whiteSpace=wrap;html=1;fillColor=none;strokeWidth=3;strokeColor=#10A8AD;dashed=1;fontFamily=Avenir;fontStyle=1;fontSize=31;fontColor=#10A8AD;" parent="1" vertex="1">
          <mxGeometry x="670" y="630" width="70" height="70" as="geometry" />
        </mxCell>
        <mxCell id="mnjG0ZJLDl94yLdww8Cb-8" value="1,2" style="rounded=0;whiteSpace=wrap;html=1;fillColor=none;strokeWidth=3;strokeColor=#10A8AD;dashed=1;fontFamily=Avenir;fontStyle=1;fontSize=31;fontColor=#10A8AD;" parent="1" vertex="1">
          <mxGeometry x="670" y="700" width="70" height="70" as="geometry" />
        </mxCell>
        <mxCell id="mnjG0ZJLDl94yLdww8Cb-9" value="1,3" style="rounded=0;whiteSpace=wrap;html=1;fillColor=none;strokeWidth=3;strokeColor=#10A8AD;dashed=1;fontFamily=Avenir;fontStyle=1;fontSize=31;fontColor=#10A8AD;" parent="1" vertex="1">
          <mxGeometry x="670" y="770" width="70" height="70" as="geometry" />
        </mxCell>
        <mxCell id="mnjG0ZJLDl94yLdww8Cb-10" value="1,4" style="rounded=0;whiteSpace=wrap;html=1;fillColor=none;strokeWidth=3;strokeColor=#10A8AD;dashed=1;fontFamily=Avenir;fontStyle=1;fontSize=31;fontColor=#10A8AD;" parent="1" vertex="1">
          <mxGeometry x="670" y="840" width="70" height="70" as="geometry" />
        </mxCell>
        <mxCell id="mnjG0ZJLDl94yLdww8Cb-11" value="2,0" style="rounded=0;whiteSpace=wrap;html=1;fillColor=none;strokeWidth=3;strokeColor=#10A8AD;dashed=1;fontFamily=Avenir;fontStyle=1;fontSize=31;fontColor=#10A8AD;" parent="1" vertex="1">
          <mxGeometry x="740" y="560" width="70" height="70" as="geometry" />
        </mxCell>
        <mxCell id="mnjG0ZJLDl94yLdww8Cb-12" value="2,1" style="rounded=0;whiteSpace=wrap;html=1;fillColor=none;strokeWidth=3;strokeColor=#10A8AD;dashed=1;fontFamily=Avenir;fontStyle=1;fontSize=31;fontColor=#10A8AD;" parent="1" vertex="1">
          <mxGeometry x="740" y="630" width="70" height="70" as="geometry" />
        </mxCell>
        <mxCell id="mnjG0ZJLDl94yLdww8Cb-13" value="2,2" style="rounded=0;whiteSpace=wrap;html=1;fillColor=none;strokeWidth=3;strokeColor=#10A8AD;dashed=1;fontFamily=Avenir;fontStyle=1;fontSize=31;fontColor=#10A8AD;" parent="1" vertex="1">
          <mxGeometry x="740" y="700" width="70" height="70" as="geometry" />
        </mxCell>
        <mxCell id="mnjG0ZJLDl94yLdww8Cb-14" value="2,3" style="rounded=0;whiteSpace=wrap;html=1;fillColor=none;strokeWidth=3;strokeColor=#10A8AD;dashed=1;fontFamily=Avenir;fontStyle=1;fontSize=31;fontColor=#10A8AD;" parent="1" vertex="1">
          <mxGeometry x="740" y="770" width="70" height="70" as="geometry" />
        </mxCell>
        <mxCell id="mnjG0ZJLDl94yLdww8Cb-15" value="2,4" style="rounded=0;whiteSpace=wrap;html=1;fillColor=none;strokeWidth=3;strokeColor=#10A8AD;dashed=1;fontFamily=Avenir;fontStyle=1;fontSize=31;fontColor=#10A8AD;" parent="1" vertex="1">
          <mxGeometry x="740" y="840" width="70" height="70" as="geometry" />
        </mxCell>
        <mxCell id="mnjG0ZJLDl94yLdww8Cb-16" value="3,0" style="rounded=0;whiteSpace=wrap;html=1;fillColor=none;strokeWidth=3;strokeColor=#10A8AD;dashed=1;fontFamily=Avenir;fontStyle=1;fontSize=31;fontColor=#10A8AD;" parent="1" vertex="1">
          <mxGeometry x="810" y="560" width="70" height="70" as="geometry" />
        </mxCell>
        <mxCell id="mnjG0ZJLDl94yLdww8Cb-17" value="3,1" style="rounded=0;whiteSpace=wrap;html=1;fillColor=none;strokeWidth=3;strokeColor=#10A8AD;dashed=1;fontFamily=Avenir;fontStyle=1;fontSize=31;fontColor=#10A8AD;" parent="1" vertex="1">
          <mxGeometry x="810" y="630" width="70" height="70" as="geometry" />
        </mxCell>
        <mxCell id="mnjG0ZJLDl94yLdww8Cb-18" value="3,2" style="rounded=0;whiteSpace=wrap;html=1;fillColor=none;strokeWidth=3;strokeColor=#10A8AD;dashed=1;fontFamily=Avenir;fontStyle=1;fontSize=31;fontColor=#10A8AD;" parent="1" vertex="1">
          <mxGeometry x="810" y="700" width="70" height="70" as="geometry" />
        </mxCell>
        <mxCell id="mnjG0ZJLDl94yLdww8Cb-19" value="3,3" style="rounded=0;whiteSpace=wrap;html=1;fillColor=none;strokeWidth=3;strokeColor=#10A8AD;dashed=1;fontFamily=Avenir;fontStyle=1;fontSize=31;fontColor=#10A8AD;" parent="1" vertex="1">
          <mxGeometry x="810" y="770" width="70" height="70" as="geometry" />
        </mxCell>
        <mxCell id="mnjG0ZJLDl94yLdww8Cb-20" value="3,4" style="rounded=0;whiteSpace=wrap;html=1;fillColor=none;strokeWidth=3;strokeColor=#10A8AD;dashed=1;fontFamily=Avenir;fontStyle=1;fontSize=31;fontColor=#10A8AD;" parent="1" vertex="1">
          <mxGeometry x="810" y="840" width="70" height="70" as="geometry" />
        </mxCell>
        <mxCell id="mnjG0ZJLDl94yLdww8Cb-21" value="4,0" style="rounded=0;whiteSpace=wrap;html=1;fillColor=none;strokeWidth=3;strokeColor=#10A8AD;dashed=1;fontFamily=Avenir;fontStyle=1;fontSize=31;fontColor=#10A8AD;" parent="1" vertex="1">
          <mxGeometry x="880" y="560" width="70" height="70" as="geometry" />
        </mxCell>
        <mxCell id="mnjG0ZJLDl94yLdww8Cb-22" value="4,1" style="rounded=0;whiteSpace=wrap;html=1;fillColor=none;strokeWidth=3;strokeColor=#10A8AD;dashed=1;fontFamily=Avenir;fontStyle=1;fontSize=31;fontColor=#10A8AD;" parent="1" vertex="1">
          <mxGeometry x="880" y="630" width="70" height="70" as="geometry" />
        </mxCell>
        <mxCell id="mnjG0ZJLDl94yLdww8Cb-23" value="4,2" style="rounded=0;whiteSpace=wrap;html=1;fillColor=none;strokeWidth=3;strokeColor=#10A8AD;dashed=1;fontFamily=Avenir;fontStyle=1;fontSize=31;fontColor=#10A8AD;" parent="1" vertex="1">
          <mxGeometry x="880" y="700" width="70" height="70" as="geometry" />
        </mxCell>
        <mxCell id="mnjG0ZJLDl94yLdww8Cb-24" value="4,3" style="rounded=0;whiteSpace=wrap;html=1;fillColor=none;strokeWidth=3;strokeColor=#10A8AD;dashed=1;fontFamily=Avenir;fontStyle=1;fontSize=31;fontColor=#10A8AD;" parent="1" vertex="1">
          <mxGeometry x="880" y="770" width="70" height="70" as="geometry" />
        </mxCell>
        <mxCell id="mnjG0ZJLDl94yLdww8Cb-25" value="4,4" style="rounded=0;whiteSpace=wrap;html=1;fillColor=none;strokeWidth=3;strokeColor=#10A8AD;dashed=1;fontFamily=Avenir;fontStyle=1;fontSize=31;fontColor=#10A8AD;" parent="1" vertex="1">
          <mxGeometry x="880" y="840" width="70" height="70" as="geometry" />
        </mxCell>
        <mxCell id="mnjG0ZJLDl94yLdww8Cb-26" value="0" style="rounded=0;html=1;fillColor=#10A8AD;strokeWidth=5;strokeColor=#10A8AD;fontFamily=Avenir;fontStyle=1;fontSize=90;fontColor=#FFFFFF;labelBackgroundColor=none;fillStyle=solid;glass=0;shadow=0;opacity=40;labelBorderColor=none;whiteSpace=wrap;textOpacity=80;" parent="1" vertex="1">
          <mxGeometry x="600" y="560" width="350" height="350" as="geometry" />
        </mxCell>
        <mxCell id="gBsD64_UjYB4qEvEu-Pp-1" value="4" style="rounded=0;whiteSpace=wrap;html=1;fillColor=#EA6B66;strokeWidth=5;strokeColor=#EA6B66;fontFamily=Avenir;fontStyle=1;fontSize=90;fontColor=#FFFFFF;labelBackgroundColor=none;fillStyle=auto;opacity=40;textOpacity=80;" parent="1" vertex="1">
          <mxGeometry x="960" y="920" width="350" height="350" as="geometry" />
        </mxCell>
        <mxCell id="gBsD64_UjYB4qEvEu-Pp-2" value="0,0" style="rounded=0;whiteSpace=wrap;html=1;fillColor=none;strokeWidth=3;strokeColor=#10A8AD;dashed=1;fontFamily=Avenir;fontStyle=1;fontSize=31;fontColor=#10A8AD;" parent="1" vertex="1">
          <mxGeometry x="960" y="560" width="70" height="70" as="geometry" />
        </mxCell>
        <mxCell id="gBsD64_UjYB4qEvEu-Pp-3" value="0,1" style="rounded=0;whiteSpace=wrap;html=1;fillColor=none;strokeWidth=3;strokeColor=#10A8AD;dashed=1;fontFamily=Avenir;fontStyle=1;fontSize=31;fontColor=#10A8AD;" parent="1" vertex="1">
          <mxGeometry x="960" y="630" width="70" height="70" as="geometry" />
        </mxCell>
        <mxCell id="gBsD64_UjYB4qEvEu-Pp-4" value="0,2" style="rounded=0;whiteSpace=wrap;html=1;fillColor=none;strokeWidth=3;strokeColor=#10A8AD;dashed=1;fontFamily=Avenir;fontStyle=1;fontSize=31;fontColor=#10A8AD;" parent="1" vertex="1">
          <mxGeometry x="960" y="700" width="70" height="70" as="geometry" />
        </mxCell>
        <mxCell id="gBsD64_UjYB4qEvEu-Pp-5" value="0,3" style="rounded=0;whiteSpace=wrap;html=1;fillColor=none;strokeWidth=3;strokeColor=#10A8AD;dashed=1;fontFamily=Avenir;fontStyle=1;fontSize=31;fontColor=#10A8AD;" parent="1" vertex="1">
          <mxGeometry x="960" y="770" width="70" height="70" as="geometry" />
        </mxCell>
        <mxCell id="gBsD64_UjYB4qEvEu-Pp-6" value="0,4" style="rounded=0;whiteSpace=wrap;html=1;fillColor=none;strokeWidth=3;strokeColor=#10A8AD;dashed=1;fontFamily=Avenir;fontStyle=1;fontSize=31;fontColor=#10A8AD;" parent="1" vertex="1">
          <mxGeometry x="960" y="840" width="70" height="70" as="geometry" />
        </mxCell>
        <mxCell id="gBsD64_UjYB4qEvEu-Pp-7" value="1,0" style="rounded=0;whiteSpace=wrap;html=1;fillColor=none;strokeWidth=3;strokeColor=#10A8AD;dashed=1;fontFamily=Avenir;fontStyle=1;fontSize=31;fontColor=#10A8AD;" parent="1" vertex="1">
          <mxGeometry x="1030" y="560" width="70" height="70" as="geometry" />
        </mxCell>
        <mxCell id="gBsD64_UjYB4qEvEu-Pp-8" value="1,1" style="rounded=0;whiteSpace=wrap;html=1;fillColor=none;strokeWidth=3;strokeColor=#10A8AD;dashed=1;fontFamily=Avenir;fontStyle=1;fontSize=31;fontColor=#10A8AD;" parent="1" vertex="1">
          <mxGeometry x="1030" y="630" width="70" height="70" as="geometry" />
        </mxCell>
        <mxCell id="gBsD64_UjYB4qEvEu-Pp-9" value="1,2" style="rounded=0;whiteSpace=wrap;html=1;fillColor=none;strokeWidth=3;strokeColor=#10A8AD;dashed=1;fontFamily=Avenir;fontStyle=1;fontSize=31;fontColor=#10A8AD;" parent="1" vertex="1">
          <mxGeometry x="1030" y="700" width="70" height="70" as="geometry" />
        </mxCell>
        <mxCell id="gBsD64_UjYB4qEvEu-Pp-10" value="1,3" style="rounded=0;whiteSpace=wrap;html=1;fillColor=none;strokeWidth=3;strokeColor=#10A8AD;dashed=1;fontFamily=Avenir;fontStyle=1;fontSize=31;fontColor=#10A8AD;" parent="1" vertex="1">
          <mxGeometry x="1030" y="770" width="70" height="70" as="geometry" />
        </mxCell>
        <mxCell id="gBsD64_UjYB4qEvEu-Pp-11" value="1,4" style="rounded=0;whiteSpace=wrap;html=1;fillColor=none;strokeWidth=3;strokeColor=#10A8AD;dashed=1;fontFamily=Avenir;fontStyle=1;fontSize=31;fontColor=#10A8AD;" parent="1" vertex="1">
          <mxGeometry x="1030" y="840" width="70" height="70" as="geometry" />
        </mxCell>
        <mxCell id="gBsD64_UjYB4qEvEu-Pp-12" value="2,0" style="rounded=0;whiteSpace=wrap;html=1;fillColor=none;strokeWidth=3;strokeColor=#10A8AD;dashed=1;fontFamily=Avenir;fontStyle=1;fontSize=31;fontColor=#10A8AD;" parent="1" vertex="1">
          <mxGeometry x="1100" y="560" width="70" height="70" as="geometry" />
        </mxCell>
        <mxCell id="gBsD64_UjYB4qEvEu-Pp-13" value="2,1" style="rounded=0;whiteSpace=wrap;html=1;fillColor=none;strokeWidth=3;strokeColor=#10A8AD;dashed=1;fontFamily=Avenir;fontStyle=1;fontSize=31;fontColor=#10A8AD;" parent="1" vertex="1">
          <mxGeometry x="1100" y="630" width="70" height="70" as="geometry" />
        </mxCell>
        <mxCell id="gBsD64_UjYB4qEvEu-Pp-14" value="2,2" style="rounded=0;whiteSpace=wrap;html=1;fillColor=none;strokeWidth=3;strokeColor=#10A8AD;dashed=1;fontFamily=Avenir;fontStyle=1;fontSize=31;fontColor=#10A8AD;" parent="1" vertex="1">
          <mxGeometry x="1100" y="700" width="70" height="70" as="geometry" />
        </mxCell>
        <mxCell id="gBsD64_UjYB4qEvEu-Pp-15" value="2,3" style="rounded=0;whiteSpace=wrap;html=1;fillColor=none;strokeWidth=3;strokeColor=#10A8AD;dashed=1;fontFamily=Avenir;fontStyle=1;fontSize=31;fontColor=#10A8AD;" parent="1" vertex="1">
          <mxGeometry x="1100" y="770" width="70" height="70" as="geometry" />
        </mxCell>
        <mxCell id="gBsD64_UjYB4qEvEu-Pp-16" value="2,4" style="rounded=0;whiteSpace=wrap;html=1;fillColor=none;strokeWidth=3;strokeColor=#10A8AD;dashed=1;fontFamily=Avenir;fontStyle=1;fontSize=31;fontColor=#10A8AD;" parent="1" vertex="1">
          <mxGeometry x="1100" y="840" width="70" height="70" as="geometry" />
        </mxCell>
        <mxCell id="gBsD64_UjYB4qEvEu-Pp-17" value="3,0" style="rounded=0;whiteSpace=wrap;html=1;fillColor=none;strokeWidth=3;strokeColor=#10A8AD;dashed=1;fontFamily=Avenir;fontStyle=1;fontSize=31;fontColor=#10A8AD;" parent="1" vertex="1">
          <mxGeometry x="1170" y="560" width="70" height="70" as="geometry" />
        </mxCell>
        <mxCell id="gBsD64_UjYB4qEvEu-Pp-18" value="3,1" style="rounded=0;whiteSpace=wrap;html=1;fillColor=none;strokeWidth=3;strokeColor=#10A8AD;dashed=1;fontFamily=Avenir;fontStyle=1;fontSize=31;fontColor=#10A8AD;" parent="1" vertex="1">
          <mxGeometry x="1170" y="630" width="70" height="70" as="geometry" />
        </mxCell>
        <mxCell id="gBsD64_UjYB4qEvEu-Pp-19" value="3,2" style="rounded=0;whiteSpace=wrap;html=1;fillColor=none;strokeWidth=3;strokeColor=#10A8AD;dashed=1;fontFamily=Avenir;fontStyle=1;fontSize=31;fontColor=#10A8AD;" parent="1" vertex="1">
          <mxGeometry x="1170" y="700" width="70" height="70" as="geometry" />
        </mxCell>
        <mxCell id="gBsD64_UjYB4qEvEu-Pp-20" value="3,3" style="rounded=0;whiteSpace=wrap;html=1;fillColor=none;strokeWidth=3;strokeColor=#10A8AD;dashed=1;fontFamily=Avenir;fontStyle=1;fontSize=31;fontColor=#10A8AD;" parent="1" vertex="1">
          <mxGeometry x="1170" y="770" width="70" height="70" as="geometry" />
        </mxCell>
        <mxCell id="gBsD64_UjYB4qEvEu-Pp-21" value="3,4" style="rounded=0;whiteSpace=wrap;html=1;fillColor=none;strokeWidth=3;strokeColor=#10A8AD;dashed=1;fontFamily=Avenir;fontStyle=1;fontSize=31;fontColor=#10A8AD;" parent="1" vertex="1">
          <mxGeometry x="1170" y="840" width="70" height="70" as="geometry" />
        </mxCell>
        <mxCell id="gBsD64_UjYB4qEvEu-Pp-22" value="4,0" style="rounded=0;whiteSpace=wrap;html=1;fillColor=none;strokeWidth=3;strokeColor=#10A8AD;dashed=1;fontFamily=Avenir;fontStyle=1;fontSize=31;fontColor=#10A8AD;" parent="1" vertex="1">
          <mxGeometry x="1240" y="560" width="70" height="70" as="geometry" />
        </mxCell>
        <mxCell id="gBsD64_UjYB4qEvEu-Pp-23" value="4,1" style="rounded=0;whiteSpace=wrap;html=1;fillColor=none;strokeWidth=3;strokeColor=#10A8AD;dashed=1;fontFamily=Avenir;fontStyle=1;fontSize=31;fontColor=#10A8AD;" parent="1" vertex="1">
          <mxGeometry x="1240" y="630" width="70" height="70" as="geometry" />
        </mxCell>
        <mxCell id="gBsD64_UjYB4qEvEu-Pp-24" value="4,2" style="rounded=0;whiteSpace=wrap;html=1;fillColor=none;strokeWidth=3;strokeColor=#10A8AD;dashed=1;fontFamily=Avenir;fontStyle=1;fontSize=31;fontColor=#10A8AD;" parent="1" vertex="1">
          <mxGeometry x="1240" y="700" width="70" height="70" as="geometry" />
        </mxCell>
        <mxCell id="gBsD64_UjYB4qEvEu-Pp-25" value="4,3" style="rounded=0;whiteSpace=wrap;html=1;fillColor=none;strokeWidth=3;strokeColor=#10A8AD;dashed=1;fontFamily=Avenir;fontStyle=1;fontSize=31;fontColor=#10A8AD;" parent="1" vertex="1">
          <mxGeometry x="1240" y="770" width="70" height="70" as="geometry" />
        </mxCell>
        <mxCell id="gBsD64_UjYB4qEvEu-Pp-26" value="4,4" style="rounded=0;whiteSpace=wrap;html=1;fillColor=none;strokeWidth=3;strokeColor=#10A8AD;dashed=1;fontFamily=Avenir;fontStyle=1;fontSize=31;fontColor=#10A8AD;" parent="1" vertex="1">
          <mxGeometry x="1240" y="840" width="70" height="70" as="geometry" />
        </mxCell>
        <mxCell id="gBsD64_UjYB4qEvEu-Pp-27" value="1" style="rounded=0;html=1;fillColor=#10A8AD;strokeWidth=5;strokeColor=#10A8AD;fontFamily=Avenir;fontStyle=1;fontSize=90;fontColor=#FFFFFF;labelBackgroundColor=none;fillStyle=solid;glass=0;shadow=0;opacity=40;labelBorderColor=none;whiteSpace=wrap;textOpacity=80;" parent="1" vertex="1">
          <mxGeometry x="960" y="560" width="350" height="350" as="geometry" />
        </mxCell>
        <mxCell id="gBsD64_UjYB4qEvEu-Pp-28" value="0,0" style="rounded=0;whiteSpace=wrap;html=1;fillColor=none;strokeWidth=3;strokeColor=#10A8AD;dashed=1;fontFamily=Avenir;fontStyle=1;fontSize=31;fontColor=#10A8AD;" parent="1" vertex="1">
          <mxGeometry x="1320" y="560" width="70" height="70" as="geometry" />
        </mxCell>
        <mxCell id="gBsD64_UjYB4qEvEu-Pp-29" value="0,1" style="rounded=0;whiteSpace=wrap;html=1;fillColor=none;strokeWidth=3;strokeColor=#10A8AD;dashed=1;fontFamily=Avenir;fontStyle=1;fontSize=31;fontColor=#10A8AD;" parent="1" vertex="1">
          <mxGeometry x="1320" y="630" width="70" height="70" as="geometry" />
        </mxCell>
        <mxCell id="gBsD64_UjYB4qEvEu-Pp-30" value="0,2" style="rounded=0;whiteSpace=wrap;html=1;fillColor=none;strokeWidth=3;strokeColor=#10A8AD;dashed=1;fontFamily=Avenir;fontStyle=1;fontSize=31;fontColor=#10A8AD;" parent="1" vertex="1">
          <mxGeometry x="1320" y="700" width="70" height="70" as="geometry" />
        </mxCell>
        <mxCell id="gBsD64_UjYB4qEvEu-Pp-31" value="0,3" style="rounded=0;whiteSpace=wrap;html=1;fillColor=none;strokeWidth=3;strokeColor=#10A8AD;dashed=1;fontFamily=Avenir;fontStyle=1;fontSize=31;fontColor=#10A8AD;" parent="1" vertex="1">
          <mxGeometry x="1320" y="770" width="70" height="70" as="geometry" />
        </mxCell>
        <mxCell id="gBsD64_UjYB4qEvEu-Pp-32" value="0,4" style="rounded=0;whiteSpace=wrap;html=1;fillColor=none;strokeWidth=3;strokeColor=#10A8AD;dashed=1;fontFamily=Avenir;fontStyle=1;fontSize=31;fontColor=#10A8AD;" parent="1" vertex="1">
          <mxGeometry x="1320" y="840" width="70" height="70" as="geometry" />
        </mxCell>
        <mxCell id="gBsD64_UjYB4qEvEu-Pp-33" value="1,0" style="rounded=0;whiteSpace=wrap;html=1;fillColor=none;strokeWidth=3;strokeColor=#10A8AD;dashed=1;fontFamily=Avenir;fontStyle=1;fontSize=31;fontColor=#10A8AD;" parent="1" vertex="1">
          <mxGeometry x="1390" y="560" width="70" height="70" as="geometry" />
        </mxCell>
        <mxCell id="gBsD64_UjYB4qEvEu-Pp-34" value="1,1" style="rounded=0;whiteSpace=wrap;html=1;fillColor=none;strokeWidth=3;strokeColor=#10A8AD;dashed=1;fontFamily=Avenir;fontStyle=1;fontSize=31;fontColor=#10A8AD;" parent="1" vertex="1">
          <mxGeometry x="1390" y="630" width="70" height="70" as="geometry" />
        </mxCell>
        <mxCell id="gBsD64_UjYB4qEvEu-Pp-35" value="1,2" style="rounded=0;whiteSpace=wrap;html=1;fillColor=none;strokeWidth=3;strokeColor=#10A8AD;dashed=1;fontFamily=Avenir;fontStyle=1;fontSize=31;fontColor=#10A8AD;" parent="1" vertex="1">
          <mxGeometry x="1390" y="700" width="70" height="70" as="geometry" />
        </mxCell>
        <mxCell id="gBsD64_UjYB4qEvEu-Pp-36" value="1,3" style="rounded=0;whiteSpace=wrap;html=1;fillColor=none;strokeWidth=3;strokeColor=#10A8AD;dashed=1;fontFamily=Avenir;fontStyle=1;fontSize=31;fontColor=#10A8AD;" parent="1" vertex="1">
          <mxGeometry x="1390" y="770" width="70" height="70" as="geometry" />
        </mxCell>
        <mxCell id="gBsD64_UjYB4qEvEu-Pp-37" value="1,4" style="rounded=0;whiteSpace=wrap;html=1;fillColor=none;strokeWidth=3;strokeColor=#10A8AD;dashed=1;fontFamily=Avenir;fontStyle=1;fontSize=31;fontColor=#10A8AD;" parent="1" vertex="1">
          <mxGeometry x="1390" y="840" width="70" height="70" as="geometry" />
        </mxCell>
        <mxCell id="gBsD64_UjYB4qEvEu-Pp-38" value="2,0" style="rounded=0;whiteSpace=wrap;html=1;fillColor=none;strokeWidth=3;strokeColor=#10A8AD;dashed=1;fontFamily=Avenir;fontStyle=1;fontSize=31;fontColor=#10A8AD;" parent="1" vertex="1">
          <mxGeometry x="1460" y="560" width="70" height="70" as="geometry" />
        </mxCell>
        <mxCell id="gBsD64_UjYB4qEvEu-Pp-39" value="2,1" style="rounded=0;whiteSpace=wrap;html=1;fillColor=none;strokeWidth=3;strokeColor=#10A8AD;dashed=1;fontFamily=Avenir;fontStyle=1;fontSize=31;fontColor=#10A8AD;" parent="1" vertex="1">
          <mxGeometry x="1460" y="630" width="70" height="70" as="geometry" />
        </mxCell>
        <mxCell id="gBsD64_UjYB4qEvEu-Pp-40" value="2,2" style="rounded=0;whiteSpace=wrap;html=1;fillColor=none;strokeWidth=3;strokeColor=#10A8AD;dashed=1;fontFamily=Avenir;fontStyle=1;fontSize=31;fontColor=#10A8AD;" parent="1" vertex="1">
          <mxGeometry x="1460" y="700" width="70" height="70" as="geometry" />
        </mxCell>
        <mxCell id="gBsD64_UjYB4qEvEu-Pp-41" value="2,3" style="rounded=0;whiteSpace=wrap;html=1;fillColor=none;strokeWidth=3;strokeColor=#10A8AD;dashed=1;fontFamily=Avenir;fontStyle=1;fontSize=31;fontColor=#10A8AD;" parent="1" vertex="1">
          <mxGeometry x="1460" y="770" width="70" height="70" as="geometry" />
        </mxCell>
        <mxCell id="gBsD64_UjYB4qEvEu-Pp-42" value="2,4" style="rounded=0;whiteSpace=wrap;html=1;fillColor=none;strokeWidth=3;strokeColor=#10A8AD;dashed=1;fontFamily=Avenir;fontStyle=1;fontSize=31;fontColor=#10A8AD;" parent="1" vertex="1">
          <mxGeometry x="1460" y="840" width="70" height="70" as="geometry" />
        </mxCell>
        <mxCell id="gBsD64_UjYB4qEvEu-Pp-43" value="3,0" style="rounded=0;whiteSpace=wrap;html=1;fillColor=none;strokeWidth=3;strokeColor=#10A8AD;dashed=1;fontFamily=Avenir;fontStyle=1;fontSize=31;fontColor=#10A8AD;" parent="1" vertex="1">
          <mxGeometry x="1530" y="560" width="70" height="70" as="geometry" />
        </mxCell>
        <mxCell id="gBsD64_UjYB4qEvEu-Pp-44" value="3,1" style="rounded=0;whiteSpace=wrap;html=1;fillColor=none;strokeWidth=3;strokeColor=#10A8AD;dashed=1;fontFamily=Avenir;fontStyle=1;fontSize=31;fontColor=#10A8AD;" parent="1" vertex="1">
          <mxGeometry x="1530" y="630" width="70" height="70" as="geometry" />
        </mxCell>
        <mxCell id="gBsD64_UjYB4qEvEu-Pp-45" value="3,2" style="rounded=0;whiteSpace=wrap;html=1;fillColor=none;strokeWidth=3;strokeColor=#10A8AD;dashed=1;fontFamily=Avenir;fontStyle=1;fontSize=31;fontColor=#10A8AD;" parent="1" vertex="1">
          <mxGeometry x="1530" y="700" width="70" height="70" as="geometry" />
        </mxCell>
        <mxCell id="gBsD64_UjYB4qEvEu-Pp-46" value="3,3" style="rounded=0;whiteSpace=wrap;html=1;fillColor=none;strokeWidth=3;strokeColor=#10A8AD;dashed=1;fontFamily=Avenir;fontStyle=1;fontSize=31;fontColor=#10A8AD;" parent="1" vertex="1">
          <mxGeometry x="1530" y="770" width="70" height="70" as="geometry" />
        </mxCell>
        <mxCell id="gBsD64_UjYB4qEvEu-Pp-47" value="3,4" style="rounded=0;whiteSpace=wrap;html=1;fillColor=none;strokeWidth=3;strokeColor=#10A8AD;dashed=1;fontFamily=Avenir;fontStyle=1;fontSize=31;fontColor=#10A8AD;" parent="1" vertex="1">
          <mxGeometry x="1530" y="840" width="70" height="70" as="geometry" />
        </mxCell>
        <mxCell id="gBsD64_UjYB4qEvEu-Pp-48" value="4,0" style="rounded=0;whiteSpace=wrap;html=1;fillColor=none;strokeWidth=3;strokeColor=#10A8AD;dashed=1;fontFamily=Avenir;fontStyle=1;fontSize=31;fontColor=#10A8AD;" parent="1" vertex="1">
          <mxGeometry x="1600" y="560" width="70" height="70" as="geometry" />
        </mxCell>
        <mxCell id="gBsD64_UjYB4qEvEu-Pp-49" value="4,1" style="rounded=0;whiteSpace=wrap;html=1;fillColor=none;strokeWidth=3;strokeColor=#10A8AD;dashed=1;fontFamily=Avenir;fontStyle=1;fontSize=31;fontColor=#10A8AD;" parent="1" vertex="1">
          <mxGeometry x="1600" y="630" width="70" height="70" as="geometry" />
        </mxCell>
        <mxCell id="gBsD64_UjYB4qEvEu-Pp-50" value="4,2" style="rounded=0;whiteSpace=wrap;html=1;fillColor=none;strokeWidth=3;strokeColor=#10A8AD;dashed=1;fontFamily=Avenir;fontStyle=1;fontSize=31;fontColor=#10A8AD;" parent="1" vertex="1">
          <mxGeometry x="1600" y="700" width="70" height="70" as="geometry" />
        </mxCell>
        <mxCell id="gBsD64_UjYB4qEvEu-Pp-51" value="4,3" style="rounded=0;whiteSpace=wrap;html=1;fillColor=none;strokeWidth=3;strokeColor=#10A8AD;dashed=1;fontFamily=Avenir;fontStyle=1;fontSize=31;fontColor=#10A8AD;" parent="1" vertex="1">
          <mxGeometry x="1600" y="770" width="70" height="70" as="geometry" />
        </mxCell>
        <mxCell id="gBsD64_UjYB4qEvEu-Pp-52" value="4,4" style="rounded=0;whiteSpace=wrap;html=1;fillColor=none;strokeWidth=3;strokeColor=#10A8AD;dashed=1;fontFamily=Avenir;fontStyle=1;fontSize=31;fontColor=#10A8AD;" parent="1" vertex="1">
          <mxGeometry x="1600" y="840" width="70" height="70" as="geometry" />
        </mxCell>
        <mxCell id="gBsD64_UjYB4qEvEu-Pp-53" value="2" style="rounded=0;html=1;fillColor=#10A8AD;strokeWidth=5;strokeColor=#10A8AD;fontFamily=Avenir;fontStyle=1;fontSize=90;fontColor=#FFFFFF;labelBackgroundColor=none;fillStyle=solid;glass=0;shadow=0;opacity=40;labelBorderColor=none;whiteSpace=wrap;textOpacity=80;" parent="1" vertex="1">
          <mxGeometry x="1320" y="560" width="350" height="350" as="geometry" />
        </mxCell>
        <mxCell id="gBsD64_UjYB4qEvEu-Pp-54" value="0,0" style="rounded=0;whiteSpace=wrap;html=1;fillColor=none;strokeWidth=3;strokeColor=#10A8AD;dashed=1;fontFamily=Avenir;fontStyle=1;fontSize=31;fontColor=#10A8AD;" parent="1" vertex="1">
          <mxGeometry x="600" y="920" width="70" height="70" as="geometry" />
        </mxCell>
        <mxCell id="gBsD64_UjYB4qEvEu-Pp-55" value="0,1" style="rounded=0;whiteSpace=wrap;html=1;fillColor=none;strokeWidth=3;strokeColor=#10A8AD;dashed=1;fontFamily=Avenir;fontStyle=1;fontSize=31;fontColor=#10A8AD;" parent="1" vertex="1">
          <mxGeometry x="600" y="990" width="70" height="70" as="geometry" />
        </mxCell>
        <mxCell id="gBsD64_UjYB4qEvEu-Pp-56" value="0,2" style="rounded=0;whiteSpace=wrap;html=1;fillColor=none;strokeWidth=3;strokeColor=#10A8AD;dashed=1;fontFamily=Avenir;fontStyle=1;fontSize=31;fontColor=#10A8AD;" parent="1" vertex="1">
          <mxGeometry x="600" y="1060" width="70" height="70" as="geometry" />
        </mxCell>
        <mxCell id="gBsD64_UjYB4qEvEu-Pp-57" value="0,3" style="rounded=0;whiteSpace=wrap;html=1;fillColor=none;strokeWidth=3;strokeColor=#10A8AD;dashed=1;fontFamily=Avenir;fontStyle=1;fontSize=31;fontColor=#10A8AD;" parent="1" vertex="1">
          <mxGeometry x="600" y="1130" width="70" height="70" as="geometry" />
        </mxCell>
        <mxCell id="gBsD64_UjYB4qEvEu-Pp-58" value="0,4" style="rounded=0;whiteSpace=wrap;html=1;fillColor=none;strokeWidth=3;strokeColor=#10A8AD;dashed=1;fontFamily=Avenir;fontStyle=1;fontSize=31;fontColor=#10A8AD;" parent="1" vertex="1">
          <mxGeometry x="600" y="1200" width="70" height="70" as="geometry" />
        </mxCell>
        <mxCell id="gBsD64_UjYB4qEvEu-Pp-59" value="1,0" style="rounded=0;whiteSpace=wrap;html=1;fillColor=none;strokeWidth=3;strokeColor=#10A8AD;dashed=1;fontFamily=Avenir;fontStyle=1;fontSize=31;fontColor=#10A8AD;" parent="1" vertex="1">
          <mxGeometry x="670" y="920" width="70" height="70" as="geometry" />
        </mxCell>
        <mxCell id="gBsD64_UjYB4qEvEu-Pp-60" value="1,1" style="rounded=0;whiteSpace=wrap;html=1;fillColor=none;strokeWidth=3;strokeColor=#10A8AD;dashed=1;fontFamily=Avenir;fontStyle=1;fontSize=31;fontColor=#10A8AD;" parent="1" vertex="1">
          <mxGeometry x="670" y="990" width="70" height="70" as="geometry" />
        </mxCell>
        <mxCell id="gBsD64_UjYB4qEvEu-Pp-61" value="1,2" style="rounded=0;whiteSpace=wrap;html=1;fillColor=none;strokeWidth=3;strokeColor=#10A8AD;dashed=1;fontFamily=Avenir;fontStyle=1;fontSize=31;fontColor=#10A8AD;" parent="1" vertex="1">
          <mxGeometry x="670" y="1060" width="70" height="70" as="geometry" />
        </mxCell>
        <mxCell id="gBsD64_UjYB4qEvEu-Pp-62" value="1,3" style="rounded=0;whiteSpace=wrap;html=1;fillColor=none;strokeWidth=3;strokeColor=#10A8AD;dashed=1;fontFamily=Avenir;fontStyle=1;fontSize=31;fontColor=#10A8AD;" parent="1" vertex="1">
          <mxGeometry x="670" y="1130" width="70" height="70" as="geometry" />
        </mxCell>
        <mxCell id="gBsD64_UjYB4qEvEu-Pp-63" value="1,4" style="rounded=0;whiteSpace=wrap;html=1;fillColor=none;strokeWidth=3;strokeColor=#10A8AD;dashed=1;fontFamily=Avenir;fontStyle=1;fontSize=31;fontColor=#10A8AD;" parent="1" vertex="1">
          <mxGeometry x="670" y="1200" width="70" height="70" as="geometry" />
        </mxCell>
        <mxCell id="gBsD64_UjYB4qEvEu-Pp-64" value="2,0" style="rounded=0;whiteSpace=wrap;html=1;fillColor=none;strokeWidth=3;strokeColor=#10A8AD;dashed=1;fontFamily=Avenir;fontStyle=1;fontSize=31;fontColor=#10A8AD;" parent="1" vertex="1">
          <mxGeometry x="740" y="920" width="70" height="70" as="geometry" />
        </mxCell>
        <mxCell id="gBsD64_UjYB4qEvEu-Pp-65" value="2,1" style="rounded=0;whiteSpace=wrap;html=1;fillColor=none;strokeWidth=3;strokeColor=#10A8AD;dashed=1;fontFamily=Avenir;fontStyle=1;fontSize=31;fontColor=#10A8AD;" parent="1" vertex="1">
          <mxGeometry x="740" y="990" width="70" height="70" as="geometry" />
        </mxCell>
        <mxCell id="gBsD64_UjYB4qEvEu-Pp-66" value="2,2" style="rounded=0;whiteSpace=wrap;html=1;fillColor=none;strokeWidth=3;strokeColor=#10A8AD;dashed=1;fontFamily=Avenir;fontStyle=1;fontSize=31;fontColor=#10A8AD;" parent="1" vertex="1">
          <mxGeometry x="740" y="1060" width="70" height="70" as="geometry" />
        </mxCell>
        <mxCell id="gBsD64_UjYB4qEvEu-Pp-67" value="2,3" style="rounded=0;whiteSpace=wrap;html=1;fillColor=none;strokeWidth=3;strokeColor=#10A8AD;dashed=1;fontFamily=Avenir;fontStyle=1;fontSize=31;fontColor=#10A8AD;" parent="1" vertex="1">
          <mxGeometry x="740" y="1130" width="70" height="70" as="geometry" />
        </mxCell>
        <mxCell id="gBsD64_UjYB4qEvEu-Pp-68" value="2,4" style="rounded=0;whiteSpace=wrap;html=1;fillColor=none;strokeWidth=3;strokeColor=#10A8AD;dashed=1;fontFamily=Avenir;fontStyle=1;fontSize=31;fontColor=#10A8AD;" parent="1" vertex="1">
          <mxGeometry x="740" y="1200" width="70" height="70" as="geometry" />
        </mxCell>
        <mxCell id="gBsD64_UjYB4qEvEu-Pp-69" value="3,0" style="rounded=0;whiteSpace=wrap;html=1;fillColor=none;strokeWidth=3;strokeColor=#10A8AD;dashed=1;fontFamily=Avenir;fontStyle=1;fontSize=31;fontColor=#10A8AD;" parent="1" vertex="1">
          <mxGeometry x="810" y="920" width="70" height="70" as="geometry" />
        </mxCell>
        <mxCell id="gBsD64_UjYB4qEvEu-Pp-70" value="3,1" style="rounded=0;whiteSpace=wrap;html=1;fillColor=none;strokeWidth=3;strokeColor=#10A8AD;dashed=1;fontFamily=Avenir;fontStyle=1;fontSize=31;fontColor=#10A8AD;" parent="1" vertex="1">
          <mxGeometry x="810" y="990" width="70" height="70" as="geometry" />
        </mxCell>
        <mxCell id="gBsD64_UjYB4qEvEu-Pp-71" value="3,2" style="rounded=0;whiteSpace=wrap;html=1;fillColor=none;strokeWidth=3;strokeColor=#10A8AD;dashed=1;fontFamily=Avenir;fontStyle=1;fontSize=31;fontColor=#10A8AD;" parent="1" vertex="1">
          <mxGeometry x="810" y="1060" width="70" height="70" as="geometry" />
        </mxCell>
        <mxCell id="gBsD64_UjYB4qEvEu-Pp-72" value="3,3" style="rounded=0;whiteSpace=wrap;html=1;fillColor=none;strokeWidth=3;strokeColor=#10A8AD;dashed=1;fontFamily=Avenir;fontStyle=1;fontSize=31;fontColor=#10A8AD;" parent="1" vertex="1">
          <mxGeometry x="810" y="1130" width="70" height="70" as="geometry" />
        </mxCell>
        <mxCell id="gBsD64_UjYB4qEvEu-Pp-73" value="3,4" style="rounded=0;whiteSpace=wrap;html=1;fillColor=none;strokeWidth=3;strokeColor=#10A8AD;dashed=1;fontFamily=Avenir;fontStyle=1;fontSize=31;fontColor=#10A8AD;" parent="1" vertex="1">
          <mxGeometry x="810" y="1200" width="70" height="70" as="geometry" />
        </mxCell>
        <mxCell id="gBsD64_UjYB4qEvEu-Pp-74" value="4,0" style="rounded=0;whiteSpace=wrap;html=1;fillColor=none;strokeWidth=3;strokeColor=#10A8AD;dashed=1;fontFamily=Avenir;fontStyle=1;fontSize=31;fontColor=#10A8AD;" parent="1" vertex="1">
          <mxGeometry x="880" y="920" width="70" height="70" as="geometry" />
        </mxCell>
        <mxCell id="gBsD64_UjYB4qEvEu-Pp-75" value="4,1" style="rounded=0;whiteSpace=wrap;html=1;fillColor=none;strokeWidth=3;strokeColor=#10A8AD;dashed=1;fontFamily=Avenir;fontStyle=1;fontSize=31;fontColor=#10A8AD;" parent="1" vertex="1">
          <mxGeometry x="880" y="990" width="70" height="70" as="geometry" />
        </mxCell>
        <mxCell id="gBsD64_UjYB4qEvEu-Pp-76" value="4,2" style="rounded=0;whiteSpace=wrap;html=1;fillColor=none;strokeWidth=3;strokeColor=#10A8AD;dashed=1;fontFamily=Avenir;fontStyle=1;fontSize=31;fontColor=#10A8AD;" parent="1" vertex="1">
          <mxGeometry x="880" y="1060" width="70" height="70" as="geometry" />
        </mxCell>
        <mxCell id="gBsD64_UjYB4qEvEu-Pp-77" value="4,3" style="rounded=0;whiteSpace=wrap;html=1;fillColor=none;strokeWidth=3;strokeColor=#10A8AD;dashed=1;fontFamily=Avenir;fontStyle=1;fontSize=31;fontColor=#10A8AD;" parent="1" vertex="1">
          <mxGeometry x="880" y="1130" width="70" height="70" as="geometry" />
        </mxCell>
        <mxCell id="gBsD64_UjYB4qEvEu-Pp-78" value="4,4" style="rounded=0;whiteSpace=wrap;html=1;fillColor=none;strokeWidth=3;strokeColor=#10A8AD;dashed=1;fontFamily=Avenir;fontStyle=1;fontSize=31;fontColor=#10A8AD;" parent="1" vertex="1">
          <mxGeometry x="880" y="1200" width="70" height="70" as="geometry" />
        </mxCell>
        <mxCell id="gBsD64_UjYB4qEvEu-Pp-79" value="3" style="rounded=0;html=1;fillColor=#10A8AD;strokeWidth=5;strokeColor=#10A8AD;fontFamily=Avenir;fontStyle=1;fontSize=90;fontColor=#FFFFFF;labelBackgroundColor=none;fillStyle=solid;glass=0;shadow=0;opacity=40;labelBorderColor=none;whiteSpace=wrap;textOpacity=80;" parent="1" vertex="1">
          <mxGeometry x="600" y="920" width="350" height="350" as="geometry" />
        </mxCell>
        <mxCell id="gBsD64_UjYB4qEvEu-Pp-80" value="0,0" style="rounded=0;whiteSpace=wrap;html=1;fillColor=none;strokeWidth=3;strokeColor=#10A8AD;dashed=1;fontFamily=Avenir;fontStyle=1;fontSize=31;fontColor=#10A8AD;" parent="1" vertex="1">
          <mxGeometry x="1320" y="920" width="70" height="70" as="geometry" />
        </mxCell>
        <mxCell id="gBsD64_UjYB4qEvEu-Pp-81" value="0,1" style="rounded=0;whiteSpace=wrap;html=1;fillColor=none;strokeWidth=3;strokeColor=#10A8AD;dashed=1;fontFamily=Avenir;fontStyle=1;fontSize=31;fontColor=#10A8AD;" parent="1" vertex="1">
          <mxGeometry x="1320" y="990" width="70" height="70" as="geometry" />
        </mxCell>
        <mxCell id="gBsD64_UjYB4qEvEu-Pp-82" value="0,2" style="rounded=0;whiteSpace=wrap;html=1;fillColor=none;strokeWidth=3;strokeColor=#10A8AD;dashed=1;fontFamily=Avenir;fontStyle=1;fontSize=31;fontColor=#10A8AD;" parent="1" vertex="1">
          <mxGeometry x="1320" y="1060" width="70" height="70" as="geometry" />
        </mxCell>
        <mxCell id="gBsD64_UjYB4qEvEu-Pp-83" value="0,3" style="rounded=0;whiteSpace=wrap;html=1;fillColor=none;strokeWidth=3;strokeColor=#10A8AD;dashed=1;fontFamily=Avenir;fontStyle=1;fontSize=31;fontColor=#10A8AD;" parent="1" vertex="1">
          <mxGeometry x="1320" y="1130" width="70" height="70" as="geometry" />
        </mxCell>
        <mxCell id="gBsD64_UjYB4qEvEu-Pp-84" value="0,4" style="rounded=0;whiteSpace=wrap;html=1;fillColor=none;strokeWidth=3;strokeColor=#10A8AD;dashed=1;fontFamily=Avenir;fontStyle=1;fontSize=31;fontColor=#10A8AD;" parent="1" vertex="1">
          <mxGeometry x="1320" y="1200" width="70" height="70" as="geometry" />
        </mxCell>
        <mxCell id="gBsD64_UjYB4qEvEu-Pp-85" value="1,0" style="rounded=0;whiteSpace=wrap;html=1;fillColor=none;strokeWidth=3;strokeColor=#10A8AD;dashed=1;fontFamily=Avenir;fontStyle=1;fontSize=31;fontColor=#10A8AD;" parent="1" vertex="1">
          <mxGeometry x="1390" y="920" width="70" height="70" as="geometry" />
        </mxCell>
        <mxCell id="gBsD64_UjYB4qEvEu-Pp-86" value="1,1" style="rounded=0;whiteSpace=wrap;html=1;fillColor=none;strokeWidth=3;strokeColor=#10A8AD;dashed=1;fontFamily=Avenir;fontStyle=1;fontSize=31;fontColor=#10A8AD;" parent="1" vertex="1">
          <mxGeometry x="1390" y="990" width="70" height="70" as="geometry" />
        </mxCell>
        <mxCell id="gBsD64_UjYB4qEvEu-Pp-87" value="1,2" style="rounded=0;whiteSpace=wrap;html=1;fillColor=none;strokeWidth=3;strokeColor=#10A8AD;dashed=1;fontFamily=Avenir;fontStyle=1;fontSize=31;fontColor=#10A8AD;" parent="1" vertex="1">
          <mxGeometry x="1390" y="1060" width="70" height="70" as="geometry" />
        </mxCell>
        <mxCell id="gBsD64_UjYB4qEvEu-Pp-88" value="1,3" style="rounded=0;whiteSpace=wrap;html=1;fillColor=none;strokeWidth=3;strokeColor=#10A8AD;dashed=1;fontFamily=Avenir;fontStyle=1;fontSize=31;fontColor=#10A8AD;" parent="1" vertex="1">
          <mxGeometry x="1390" y="1130" width="70" height="70" as="geometry" />
        </mxCell>
        <mxCell id="gBsD64_UjYB4qEvEu-Pp-89" value="1,4" style="rounded=0;whiteSpace=wrap;html=1;fillColor=none;strokeWidth=3;strokeColor=#10A8AD;dashed=1;fontFamily=Avenir;fontStyle=1;fontSize=31;fontColor=#10A8AD;" parent="1" vertex="1">
          <mxGeometry x="1390" y="1200" width="70" height="70" as="geometry" />
        </mxCell>
        <mxCell id="gBsD64_UjYB4qEvEu-Pp-90" value="2,0" style="rounded=0;whiteSpace=wrap;html=1;fillColor=none;strokeWidth=3;strokeColor=#10A8AD;dashed=1;fontFamily=Avenir;fontStyle=1;fontSize=31;fontColor=#10A8AD;" parent="1" vertex="1">
          <mxGeometry x="1460" y="920" width="70" height="70" as="geometry" />
        </mxCell>
        <mxCell id="gBsD64_UjYB4qEvEu-Pp-91" value="2,1" style="rounded=0;whiteSpace=wrap;html=1;fillColor=none;strokeWidth=3;strokeColor=#10A8AD;dashed=1;fontFamily=Avenir;fontStyle=1;fontSize=31;fontColor=#10A8AD;" parent="1" vertex="1">
          <mxGeometry x="1460" y="990" width="70" height="70" as="geometry" />
        </mxCell>
        <mxCell id="gBsD64_UjYB4qEvEu-Pp-92" value="2,2" style="rounded=0;whiteSpace=wrap;html=1;fillColor=none;strokeWidth=3;strokeColor=#10A8AD;dashed=1;fontFamily=Avenir;fontStyle=1;fontSize=31;fontColor=#10A8AD;" parent="1" vertex="1">
          <mxGeometry x="1460" y="1060" width="70" height="70" as="geometry" />
        </mxCell>
        <mxCell id="gBsD64_UjYB4qEvEu-Pp-93" value="2,3" style="rounded=0;whiteSpace=wrap;html=1;fillColor=none;strokeWidth=3;strokeColor=#10A8AD;dashed=1;fontFamily=Avenir;fontStyle=1;fontSize=31;fontColor=#10A8AD;" parent="1" vertex="1">
          <mxGeometry x="1460" y="1130" width="70" height="70" as="geometry" />
        </mxCell>
        <mxCell id="gBsD64_UjYB4qEvEu-Pp-94" value="2,4" style="rounded=0;whiteSpace=wrap;html=1;fillColor=none;strokeWidth=3;strokeColor=#10A8AD;dashed=1;fontFamily=Avenir;fontStyle=1;fontSize=31;fontColor=#10A8AD;" parent="1" vertex="1">
          <mxGeometry x="1460" y="1200" width="70" height="70" as="geometry" />
        </mxCell>
        <mxCell id="gBsD64_UjYB4qEvEu-Pp-95" value="3,0" style="rounded=0;whiteSpace=wrap;html=1;fillColor=none;strokeWidth=3;strokeColor=#10A8AD;dashed=1;fontFamily=Avenir;fontStyle=1;fontSize=31;fontColor=#10A8AD;" parent="1" vertex="1">
          <mxGeometry x="1530" y="920" width="70" height="70" as="geometry" />
        </mxCell>
        <mxCell id="gBsD64_UjYB4qEvEu-Pp-96" value="3,1" style="rounded=0;whiteSpace=wrap;html=1;fillColor=none;strokeWidth=3;strokeColor=#10A8AD;dashed=1;fontFamily=Avenir;fontStyle=1;fontSize=31;fontColor=#10A8AD;" parent="1" vertex="1">
          <mxGeometry x="1530" y="990" width="70" height="70" as="geometry" />
        </mxCell>
        <mxCell id="gBsD64_UjYB4qEvEu-Pp-97" value="3,2" style="rounded=0;whiteSpace=wrap;html=1;fillColor=none;strokeWidth=3;strokeColor=#10A8AD;dashed=1;fontFamily=Avenir;fontStyle=1;fontSize=31;fontColor=#10A8AD;" parent="1" vertex="1">
          <mxGeometry x="1530" y="1060" width="70" height="70" as="geometry" />
        </mxCell>
        <mxCell id="gBsD64_UjYB4qEvEu-Pp-98" value="3,3" style="rounded=0;whiteSpace=wrap;html=1;fillColor=none;strokeWidth=3;strokeColor=#10A8AD;dashed=1;fontFamily=Avenir;fontStyle=1;fontSize=31;fontColor=#10A8AD;" parent="1" vertex="1">
          <mxGeometry x="1530" y="1130" width="70" height="70" as="geometry" />
        </mxCell>
        <mxCell id="gBsD64_UjYB4qEvEu-Pp-99" value="3,4" style="rounded=0;whiteSpace=wrap;html=1;fillColor=none;strokeWidth=3;strokeColor=#10A8AD;dashed=1;fontFamily=Avenir;fontStyle=1;fontSize=31;fontColor=#10A8AD;" parent="1" vertex="1">
          <mxGeometry x="1530" y="1200" width="70" height="70" as="geometry" />
        </mxCell>
        <mxCell id="gBsD64_UjYB4qEvEu-Pp-100" value="4,0" style="rounded=0;whiteSpace=wrap;html=1;fillColor=none;strokeWidth=3;strokeColor=#10A8AD;dashed=1;fontFamily=Avenir;fontStyle=1;fontSize=31;fontColor=#10A8AD;" parent="1" vertex="1">
          <mxGeometry x="1600" y="920" width="70" height="70" as="geometry" />
        </mxCell>
        <mxCell id="gBsD64_UjYB4qEvEu-Pp-101" value="4,1" style="rounded=0;whiteSpace=wrap;html=1;fillColor=none;strokeWidth=3;strokeColor=#10A8AD;dashed=1;fontFamily=Avenir;fontStyle=1;fontSize=31;fontColor=#10A8AD;" parent="1" vertex="1">
          <mxGeometry x="1600" y="990" width="70" height="70" as="geometry" />
        </mxCell>
        <mxCell id="gBsD64_UjYB4qEvEu-Pp-102" value="4,2" style="rounded=0;whiteSpace=wrap;html=1;fillColor=none;strokeWidth=3;strokeColor=#10A8AD;dashed=1;fontFamily=Avenir;fontStyle=1;fontSize=31;fontColor=#10A8AD;" parent="1" vertex="1">
          <mxGeometry x="1600" y="1060" width="70" height="70" as="geometry" />
        </mxCell>
        <mxCell id="gBsD64_UjYB4qEvEu-Pp-103" value="4,3" style="rounded=0;whiteSpace=wrap;html=1;fillColor=none;strokeWidth=3;strokeColor=#10A8AD;dashed=1;fontFamily=Avenir;fontStyle=1;fontSize=31;fontColor=#10A8AD;" parent="1" vertex="1">
          <mxGeometry x="1600" y="1130" width="70" height="70" as="geometry" />
        </mxCell>
        <mxCell id="gBsD64_UjYB4qEvEu-Pp-104" value="4,4" style="rounded=0;whiteSpace=wrap;html=1;fillColor=none;strokeWidth=3;strokeColor=#10A8AD;dashed=1;fontFamily=Avenir;fontStyle=1;fontSize=31;fontColor=#10A8AD;" parent="1" vertex="1">
          <mxGeometry x="1600" y="1200" width="70" height="70" as="geometry" />
        </mxCell>
        <mxCell id="gBsD64_UjYB4qEvEu-Pp-105" value="5" style="rounded=0;html=1;fillColor=#10A8AD;strokeWidth=5;strokeColor=#10A8AD;fontFamily=Avenir;fontStyle=1;fontSize=90;fontColor=#FFFFFF;labelBackgroundColor=none;fillStyle=solid;glass=0;shadow=0;opacity=40;labelBorderColor=none;whiteSpace=wrap;textOpacity=80;" parent="1" vertex="1">
          <mxGeometry x="1320" y="920" width="350" height="350" as="geometry" />
        </mxCell>
        <mxCell id="gBsD64_UjYB4qEvEu-Pp-106" value="0,0" style="rounded=0;whiteSpace=wrap;html=1;fillColor=none;strokeWidth=3;strokeColor=#10A8AD;dashed=1;fontFamily=Avenir;fontStyle=1;fontSize=31;fontColor=#10A8AD;" parent="1" vertex="1">
          <mxGeometry x="600" y="1280" width="70" height="70" as="geometry" />
        </mxCell>
        <mxCell id="gBsD64_UjYB4qEvEu-Pp-107" value="0,1" style="rounded=0;whiteSpace=wrap;html=1;fillColor=none;strokeWidth=3;strokeColor=#10A8AD;dashed=1;fontFamily=Avenir;fontStyle=1;fontSize=31;fontColor=#10A8AD;" parent="1" vertex="1">
          <mxGeometry x="600" y="1350" width="70" height="70" as="geometry" />
        </mxCell>
        <mxCell id="gBsD64_UjYB4qEvEu-Pp-108" value="0,2" style="rounded=0;whiteSpace=wrap;html=1;fillColor=none;strokeWidth=3;strokeColor=#10A8AD;dashed=1;fontFamily=Avenir;fontStyle=1;fontSize=31;fontColor=#10A8AD;" parent="1" vertex="1">
          <mxGeometry x="600" y="1420" width="70" height="70" as="geometry" />
        </mxCell>
        <mxCell id="gBsD64_UjYB4qEvEu-Pp-109" value="0,3" style="rounded=0;whiteSpace=wrap;html=1;fillColor=none;strokeWidth=3;strokeColor=#10A8AD;dashed=1;fontFamily=Avenir;fontStyle=1;fontSize=31;fontColor=#10A8AD;" parent="1" vertex="1">
          <mxGeometry x="600" y="1490" width="70" height="70" as="geometry" />
        </mxCell>
        <mxCell id="gBsD64_UjYB4qEvEu-Pp-110" value="0,4" style="rounded=0;whiteSpace=wrap;html=1;fillColor=none;strokeWidth=3;strokeColor=#10A8AD;dashed=1;fontFamily=Avenir;fontStyle=1;fontSize=31;fontColor=#10A8AD;" parent="1" vertex="1">
          <mxGeometry x="600" y="1560" width="70" height="70" as="geometry" />
        </mxCell>
        <mxCell id="gBsD64_UjYB4qEvEu-Pp-111" value="1,0" style="rounded=0;whiteSpace=wrap;html=1;fillColor=none;strokeWidth=3;strokeColor=#10A8AD;dashed=1;fontFamily=Avenir;fontStyle=1;fontSize=31;fontColor=#10A8AD;" parent="1" vertex="1">
          <mxGeometry x="670" y="1280" width="70" height="70" as="geometry" />
        </mxCell>
        <mxCell id="gBsD64_UjYB4qEvEu-Pp-112" value="1,1" style="rounded=0;whiteSpace=wrap;html=1;fillColor=none;strokeWidth=3;strokeColor=#10A8AD;dashed=1;fontFamily=Avenir;fontStyle=1;fontSize=31;fontColor=#10A8AD;" parent="1" vertex="1">
          <mxGeometry x="670" y="1350" width="70" height="70" as="geometry" />
        </mxCell>
        <mxCell id="gBsD64_UjYB4qEvEu-Pp-113" value="1,2" style="rounded=0;whiteSpace=wrap;html=1;fillColor=none;strokeWidth=3;strokeColor=#10A8AD;dashed=1;fontFamily=Avenir;fontStyle=1;fontSize=31;fontColor=#10A8AD;" parent="1" vertex="1">
          <mxGeometry x="670" y="1420" width="70" height="70" as="geometry" />
        </mxCell>
        <mxCell id="gBsD64_UjYB4qEvEu-Pp-114" value="1,3" style="rounded=0;whiteSpace=wrap;html=1;fillColor=none;strokeWidth=3;strokeColor=#10A8AD;dashed=1;fontFamily=Avenir;fontStyle=1;fontSize=31;fontColor=#10A8AD;" parent="1" vertex="1">
          <mxGeometry x="670" y="1490" width="70" height="70" as="geometry" />
        </mxCell>
        <mxCell id="gBsD64_UjYB4qEvEu-Pp-115" value="1,4" style="rounded=0;whiteSpace=wrap;html=1;fillColor=none;strokeWidth=3;strokeColor=#10A8AD;dashed=1;fontFamily=Avenir;fontStyle=1;fontSize=31;fontColor=#10A8AD;" parent="1" vertex="1">
          <mxGeometry x="670" y="1560" width="70" height="70" as="geometry" />
        </mxCell>
        <mxCell id="gBsD64_UjYB4qEvEu-Pp-116" value="2,0" style="rounded=0;whiteSpace=wrap;html=1;fillColor=none;strokeWidth=3;strokeColor=#10A8AD;dashed=1;fontFamily=Avenir;fontStyle=1;fontSize=31;fontColor=#10A8AD;" parent="1" vertex="1">
          <mxGeometry x="740" y="1280" width="70" height="70" as="geometry" />
        </mxCell>
        <mxCell id="gBsD64_UjYB4qEvEu-Pp-117" value="2,1" style="rounded=0;whiteSpace=wrap;html=1;fillColor=none;strokeWidth=3;strokeColor=#10A8AD;dashed=1;fontFamily=Avenir;fontStyle=1;fontSize=31;fontColor=#10A8AD;" parent="1" vertex="1">
          <mxGeometry x="740" y="1350" width="70" height="70" as="geometry" />
        </mxCell>
        <mxCell id="gBsD64_UjYB4qEvEu-Pp-118" value="2,2" style="rounded=0;whiteSpace=wrap;html=1;fillColor=none;strokeWidth=3;strokeColor=#10A8AD;dashed=1;fontFamily=Avenir;fontStyle=1;fontSize=31;fontColor=#10A8AD;" parent="1" vertex="1">
          <mxGeometry x="740" y="1420" width="70" height="70" as="geometry" />
        </mxCell>
        <mxCell id="gBsD64_UjYB4qEvEu-Pp-119" value="2,3" style="rounded=0;whiteSpace=wrap;html=1;fillColor=none;strokeWidth=3;strokeColor=#10A8AD;dashed=1;fontFamily=Avenir;fontStyle=1;fontSize=31;fontColor=#10A8AD;" parent="1" vertex="1">
          <mxGeometry x="740" y="1490" width="70" height="70" as="geometry" />
        </mxCell>
        <mxCell id="gBsD64_UjYB4qEvEu-Pp-120" value="2,4" style="rounded=0;whiteSpace=wrap;html=1;fillColor=none;strokeWidth=3;strokeColor=#10A8AD;dashed=1;fontFamily=Avenir;fontStyle=1;fontSize=31;fontColor=#10A8AD;" parent="1" vertex="1">
          <mxGeometry x="740" y="1560" width="70" height="70" as="geometry" />
        </mxCell>
        <mxCell id="gBsD64_UjYB4qEvEu-Pp-121" value="3,0" style="rounded=0;whiteSpace=wrap;html=1;fillColor=none;strokeWidth=3;strokeColor=#10A8AD;dashed=1;fontFamily=Avenir;fontStyle=1;fontSize=31;fontColor=#10A8AD;" parent="1" vertex="1">
          <mxGeometry x="810" y="1280" width="70" height="70" as="geometry" />
        </mxCell>
        <mxCell id="gBsD64_UjYB4qEvEu-Pp-122" value="3,1" style="rounded=0;whiteSpace=wrap;html=1;fillColor=none;strokeWidth=3;strokeColor=#10A8AD;dashed=1;fontFamily=Avenir;fontStyle=1;fontSize=31;fontColor=#10A8AD;" parent="1" vertex="1">
          <mxGeometry x="810" y="1350" width="70" height="70" as="geometry" />
        </mxCell>
        <mxCell id="gBsD64_UjYB4qEvEu-Pp-123" value="3,2" style="rounded=0;whiteSpace=wrap;html=1;fillColor=none;strokeWidth=3;strokeColor=#10A8AD;dashed=1;fontFamily=Avenir;fontStyle=1;fontSize=31;fontColor=#10A8AD;" parent="1" vertex="1">
          <mxGeometry x="810" y="1420" width="70" height="70" as="geometry" />
        </mxCell>
        <mxCell id="gBsD64_UjYB4qEvEu-Pp-124" value="3,3" style="rounded=0;whiteSpace=wrap;html=1;fillColor=none;strokeWidth=3;strokeColor=#10A8AD;dashed=1;fontFamily=Avenir;fontStyle=1;fontSize=31;fontColor=#10A8AD;" parent="1" vertex="1">
          <mxGeometry x="810" y="1490" width="70" height="70" as="geometry" />
        </mxCell>
        <mxCell id="gBsD64_UjYB4qEvEu-Pp-125" value="3,4" style="rounded=0;whiteSpace=wrap;html=1;fillColor=none;strokeWidth=3;strokeColor=#10A8AD;dashed=1;fontFamily=Avenir;fontStyle=1;fontSize=31;fontColor=#10A8AD;" parent="1" vertex="1">
          <mxGeometry x="810" y="1560" width="70" height="70" as="geometry" />
        </mxCell>
        <mxCell id="gBsD64_UjYB4qEvEu-Pp-126" value="4,0" style="rounded=0;whiteSpace=wrap;html=1;fillColor=none;strokeWidth=3;strokeColor=#10A8AD;dashed=1;fontFamily=Avenir;fontStyle=1;fontSize=31;fontColor=#10A8AD;" parent="1" vertex="1">
          <mxGeometry x="880" y="1280" width="70" height="70" as="geometry" />
        </mxCell>
        <mxCell id="gBsD64_UjYB4qEvEu-Pp-127" value="4,1" style="rounded=0;whiteSpace=wrap;html=1;fillColor=none;strokeWidth=3;strokeColor=#10A8AD;dashed=1;fontFamily=Avenir;fontStyle=1;fontSize=31;fontColor=#10A8AD;" parent="1" vertex="1">
          <mxGeometry x="880" y="1350" width="70" height="70" as="geometry" />
        </mxCell>
        <mxCell id="gBsD64_UjYB4qEvEu-Pp-128" value="4,2" style="rounded=0;whiteSpace=wrap;html=1;fillColor=none;strokeWidth=3;strokeColor=#10A8AD;dashed=1;fontFamily=Avenir;fontStyle=1;fontSize=31;fontColor=#10A8AD;" parent="1" vertex="1">
          <mxGeometry x="880" y="1420" width="70" height="70" as="geometry" />
        </mxCell>
        <mxCell id="gBsD64_UjYB4qEvEu-Pp-129" value="4,3" style="rounded=0;whiteSpace=wrap;html=1;fillColor=none;strokeWidth=3;strokeColor=#10A8AD;dashed=1;fontFamily=Avenir;fontStyle=1;fontSize=31;fontColor=#10A8AD;" parent="1" vertex="1">
          <mxGeometry x="880" y="1490" width="70" height="70" as="geometry" />
        </mxCell>
        <mxCell id="gBsD64_UjYB4qEvEu-Pp-130" value="4,4" style="rounded=0;whiteSpace=wrap;html=1;fillColor=none;strokeWidth=3;strokeColor=#10A8AD;dashed=1;fontFamily=Avenir;fontStyle=1;fontSize=31;fontColor=#10A8AD;" parent="1" vertex="1">
          <mxGeometry x="880" y="1560" width="70" height="70" as="geometry" />
        </mxCell>
        <mxCell id="gBsD64_UjYB4qEvEu-Pp-131" value="6" style="rounded=0;html=1;fillColor=#10A8AD;strokeWidth=5;strokeColor=#10A8AD;fontFamily=Avenir;fontStyle=1;fontSize=90;fontColor=#FFFFFF;labelBackgroundColor=none;fillStyle=solid;glass=0;shadow=0;opacity=40;labelBorderColor=none;whiteSpace=wrap;textOpacity=80;" parent="1" vertex="1">
          <mxGeometry x="600" y="1280" width="350" height="350" as="geometry" />
        </mxCell>
        <mxCell id="gBsD64_UjYB4qEvEu-Pp-132" value="0,0" style="rounded=0;whiteSpace=wrap;html=1;fillColor=none;strokeWidth=3;strokeColor=#10A8AD;dashed=1;fontFamily=Avenir;fontStyle=1;fontSize=31;fontColor=#10A8AD;" parent="1" vertex="1">
          <mxGeometry x="960" y="1280" width="70" height="70" as="geometry" />
        </mxCell>
        <mxCell id="gBsD64_UjYB4qEvEu-Pp-133" value="0,1" style="rounded=0;whiteSpace=wrap;html=1;fillColor=none;strokeWidth=3;strokeColor=#10A8AD;dashed=1;fontFamily=Avenir;fontStyle=1;fontSize=31;fontColor=#10A8AD;" parent="1" vertex="1">
          <mxGeometry x="960" y="1350" width="70" height="70" as="geometry" />
        </mxCell>
        <mxCell id="gBsD64_UjYB4qEvEu-Pp-134" value="0,2" style="rounded=0;whiteSpace=wrap;html=1;fillColor=none;strokeWidth=3;strokeColor=#10A8AD;dashed=1;fontFamily=Avenir;fontStyle=1;fontSize=31;fontColor=#10A8AD;" parent="1" vertex="1">
          <mxGeometry x="960" y="1420" width="70" height="70" as="geometry" />
        </mxCell>
        <mxCell id="gBsD64_UjYB4qEvEu-Pp-135" value="0,3" style="rounded=0;whiteSpace=wrap;html=1;fillColor=none;strokeWidth=3;strokeColor=#10A8AD;dashed=1;fontFamily=Avenir;fontStyle=1;fontSize=31;fontColor=#10A8AD;" parent="1" vertex="1">
          <mxGeometry x="960" y="1490" width="70" height="70" as="geometry" />
        </mxCell>
        <mxCell id="gBsD64_UjYB4qEvEu-Pp-136" value="0,4" style="rounded=0;whiteSpace=wrap;html=1;fillColor=none;strokeWidth=3;strokeColor=#10A8AD;dashed=1;fontFamily=Avenir;fontStyle=1;fontSize=31;fontColor=#10A8AD;" parent="1" vertex="1">
          <mxGeometry x="960" y="1560" width="70" height="70" as="geometry" />
        </mxCell>
        <mxCell id="gBsD64_UjYB4qEvEu-Pp-137" value="1,0" style="rounded=0;whiteSpace=wrap;html=1;fillColor=none;strokeWidth=3;strokeColor=#10A8AD;dashed=1;fontFamily=Avenir;fontStyle=1;fontSize=31;fontColor=#10A8AD;" parent="1" vertex="1">
          <mxGeometry x="1030" y="1280" width="70" height="70" as="geometry" />
        </mxCell>
        <mxCell id="gBsD64_UjYB4qEvEu-Pp-138" value="1,1" style="rounded=0;whiteSpace=wrap;html=1;fillColor=none;strokeWidth=3;strokeColor=#10A8AD;dashed=1;fontFamily=Avenir;fontStyle=1;fontSize=31;fontColor=#10A8AD;" parent="1" vertex="1">
          <mxGeometry x="1030" y="1350" width="70" height="70" as="geometry" />
        </mxCell>
        <mxCell id="gBsD64_UjYB4qEvEu-Pp-139" value="1,2" style="rounded=0;whiteSpace=wrap;html=1;fillColor=none;strokeWidth=3;strokeColor=#10A8AD;dashed=1;fontFamily=Avenir;fontStyle=1;fontSize=31;fontColor=#10A8AD;" parent="1" vertex="1">
          <mxGeometry x="1030" y="1420" width="70" height="70" as="geometry" />
        </mxCell>
        <mxCell id="gBsD64_UjYB4qEvEu-Pp-140" value="1,3" style="rounded=0;whiteSpace=wrap;html=1;fillColor=none;strokeWidth=3;strokeColor=#10A8AD;dashed=1;fontFamily=Avenir;fontStyle=1;fontSize=31;fontColor=#10A8AD;" parent="1" vertex="1">
          <mxGeometry x="1030" y="1490" width="70" height="70" as="geometry" />
        </mxCell>
        <mxCell id="gBsD64_UjYB4qEvEu-Pp-141" value="1,4" style="rounded=0;whiteSpace=wrap;html=1;fillColor=none;strokeWidth=3;strokeColor=#10A8AD;dashed=1;fontFamily=Avenir;fontStyle=1;fontSize=31;fontColor=#10A8AD;" parent="1" vertex="1">
          <mxGeometry x="1030" y="1560" width="70" height="70" as="geometry" />
        </mxCell>
        <mxCell id="gBsD64_UjYB4qEvEu-Pp-142" value="2,0" style="rounded=0;whiteSpace=wrap;html=1;fillColor=none;strokeWidth=3;strokeColor=#10A8AD;dashed=1;fontFamily=Avenir;fontStyle=1;fontSize=31;fontColor=#10A8AD;" parent="1" vertex="1">
          <mxGeometry x="1100" y="1280" width="70" height="70" as="geometry" />
        </mxCell>
        <mxCell id="gBsD64_UjYB4qEvEu-Pp-143" value="2,1" style="rounded=0;whiteSpace=wrap;html=1;fillColor=none;strokeWidth=3;strokeColor=#10A8AD;dashed=1;fontFamily=Avenir;fontStyle=1;fontSize=31;fontColor=#10A8AD;" parent="1" vertex="1">
          <mxGeometry x="1100" y="1350" width="70" height="70" as="geometry" />
        </mxCell>
        <mxCell id="gBsD64_UjYB4qEvEu-Pp-144" value="2,2" style="rounded=0;whiteSpace=wrap;html=1;fillColor=none;strokeWidth=3;strokeColor=#10A8AD;dashed=1;fontFamily=Avenir;fontStyle=1;fontSize=31;fontColor=#10A8AD;" parent="1" vertex="1">
          <mxGeometry x="1100" y="1420" width="70" height="70" as="geometry" />
        </mxCell>
        <mxCell id="gBsD64_UjYB4qEvEu-Pp-145" value="2,3" style="rounded=0;whiteSpace=wrap;html=1;fillColor=none;strokeWidth=3;strokeColor=#10A8AD;dashed=1;fontFamily=Avenir;fontStyle=1;fontSize=31;fontColor=#10A8AD;" parent="1" vertex="1">
          <mxGeometry x="1100" y="1490" width="70" height="70" as="geometry" />
        </mxCell>
        <mxCell id="gBsD64_UjYB4qEvEu-Pp-146" value="2,4" style="rounded=0;whiteSpace=wrap;html=1;fillColor=none;strokeWidth=3;strokeColor=#10A8AD;dashed=1;fontFamily=Avenir;fontStyle=1;fontSize=31;fontColor=#10A8AD;" parent="1" vertex="1">
          <mxGeometry x="1100" y="1560" width="70" height="70" as="geometry" />
        </mxCell>
        <mxCell id="gBsD64_UjYB4qEvEu-Pp-147" value="3,0" style="rounded=0;whiteSpace=wrap;html=1;fillColor=none;strokeWidth=3;strokeColor=#10A8AD;dashed=1;fontFamily=Avenir;fontStyle=1;fontSize=31;fontColor=#10A8AD;" parent="1" vertex="1">
          <mxGeometry x="1170" y="1280" width="70" height="70" as="geometry" />
        </mxCell>
        <mxCell id="gBsD64_UjYB4qEvEu-Pp-148" value="3,1" style="rounded=0;whiteSpace=wrap;html=1;fillColor=none;strokeWidth=3;strokeColor=#10A8AD;dashed=1;fontFamily=Avenir;fontStyle=1;fontSize=31;fontColor=#10A8AD;" parent="1" vertex="1">
          <mxGeometry x="1170" y="1350" width="70" height="70" as="geometry" />
        </mxCell>
        <mxCell id="gBsD64_UjYB4qEvEu-Pp-149" value="3,2" style="rounded=0;whiteSpace=wrap;html=1;fillColor=none;strokeWidth=3;strokeColor=#10A8AD;dashed=1;fontFamily=Avenir;fontStyle=1;fontSize=31;fontColor=#10A8AD;" parent="1" vertex="1">
          <mxGeometry x="1170" y="1420" width="70" height="70" as="geometry" />
        </mxCell>
        <mxCell id="gBsD64_UjYB4qEvEu-Pp-150" value="3,3" style="rounded=0;whiteSpace=wrap;html=1;fillColor=none;strokeWidth=3;strokeColor=#10A8AD;dashed=1;fontFamily=Avenir;fontStyle=1;fontSize=31;fontColor=#10A8AD;" parent="1" vertex="1">
          <mxGeometry x="1170" y="1490" width="70" height="70" as="geometry" />
        </mxCell>
        <mxCell id="gBsD64_UjYB4qEvEu-Pp-151" value="3,4" style="rounded=0;whiteSpace=wrap;html=1;fillColor=none;strokeWidth=3;strokeColor=#10A8AD;dashed=1;fontFamily=Avenir;fontStyle=1;fontSize=31;fontColor=#10A8AD;" parent="1" vertex="1">
          <mxGeometry x="1170" y="1560" width="70" height="70" as="geometry" />
        </mxCell>
        <mxCell id="gBsD64_UjYB4qEvEu-Pp-152" value="4,0" style="rounded=0;whiteSpace=wrap;html=1;fillColor=none;strokeWidth=3;strokeColor=#10A8AD;dashed=1;fontFamily=Avenir;fontStyle=1;fontSize=31;fontColor=#10A8AD;" parent="1" vertex="1">
          <mxGeometry x="1240" y="1280" width="70" height="70" as="geometry" />
        </mxCell>
        <mxCell id="gBsD64_UjYB4qEvEu-Pp-153" value="4,1" style="rounded=0;whiteSpace=wrap;html=1;fillColor=none;strokeWidth=3;strokeColor=#10A8AD;dashed=1;fontFamily=Avenir;fontStyle=1;fontSize=31;fontColor=#10A8AD;" parent="1" vertex="1">
          <mxGeometry x="1240" y="1350" width="70" height="70" as="geometry" />
        </mxCell>
        <mxCell id="gBsD64_UjYB4qEvEu-Pp-154" value="4,2" style="rounded=0;whiteSpace=wrap;html=1;fillColor=none;strokeWidth=3;strokeColor=#10A8AD;dashed=1;fontFamily=Avenir;fontStyle=1;fontSize=31;fontColor=#10A8AD;" parent="1" vertex="1">
          <mxGeometry x="1240" y="1420" width="70" height="70" as="geometry" />
        </mxCell>
        <mxCell id="gBsD64_UjYB4qEvEu-Pp-155" value="4,3" style="rounded=0;whiteSpace=wrap;html=1;fillColor=none;strokeWidth=3;strokeColor=#10A8AD;dashed=1;fontFamily=Avenir;fontStyle=1;fontSize=31;fontColor=#10A8AD;" parent="1" vertex="1">
          <mxGeometry x="1240" y="1490" width="70" height="70" as="geometry" />
        </mxCell>
        <mxCell id="gBsD64_UjYB4qEvEu-Pp-156" value="4,4" style="rounded=0;whiteSpace=wrap;html=1;fillColor=none;strokeWidth=3;strokeColor=#10A8AD;dashed=1;fontFamily=Avenir;fontStyle=1;fontSize=31;fontColor=#10A8AD;" parent="1" vertex="1">
          <mxGeometry x="1240" y="1560" width="70" height="70" as="geometry" />
        </mxCell>
        <mxCell id="gBsD64_UjYB4qEvEu-Pp-157" value="7" style="rounded=0;html=1;fillColor=#10A8AD;strokeWidth=5;strokeColor=#10A8AD;fontFamily=Avenir;fontStyle=1;fontSize=90;fontColor=#FFFFFF;labelBackgroundColor=none;fillStyle=solid;glass=0;shadow=0;opacity=40;labelBorderColor=none;whiteSpace=wrap;textOpacity=80;" parent="1" vertex="1">
          <mxGeometry x="960" y="1280" width="350" height="350" as="geometry" />
        </mxCell>
        <mxCell id="gBsD64_UjYB4qEvEu-Pp-184" value="0,0" style="rounded=0;whiteSpace=wrap;html=1;fillColor=none;strokeWidth=3;strokeColor=#10A8AD;dashed=1;fontFamily=Avenir;fontStyle=1;fontSize=31;fontColor=#10A8AD;" parent="1" vertex="1">
          <mxGeometry x="1320" y="1280" width="70" height="70" as="geometry" />
        </mxCell>
        <mxCell id="gBsD64_UjYB4qEvEu-Pp-185" value="0,1" style="rounded=0;whiteSpace=wrap;html=1;fillColor=none;strokeWidth=3;strokeColor=#10A8AD;dashed=1;fontFamily=Avenir;fontStyle=1;fontSize=31;fontColor=#10A8AD;" parent="1" vertex="1">
          <mxGeometry x="1320" y="1350" width="70" height="70" as="geometry" />
        </mxCell>
        <mxCell id="gBsD64_UjYB4qEvEu-Pp-186" value="0,2" style="rounded=0;whiteSpace=wrap;html=1;fillColor=none;strokeWidth=3;strokeColor=#10A8AD;dashed=1;fontFamily=Avenir;fontStyle=1;fontSize=31;fontColor=#10A8AD;" parent="1" vertex="1">
          <mxGeometry x="1320" y="1420" width="70" height="70" as="geometry" />
        </mxCell>
        <mxCell id="gBsD64_UjYB4qEvEu-Pp-187" value="0,3" style="rounded=0;whiteSpace=wrap;html=1;fillColor=none;strokeWidth=3;strokeColor=#10A8AD;dashed=1;fontFamily=Avenir;fontStyle=1;fontSize=31;fontColor=#10A8AD;" parent="1" vertex="1">
          <mxGeometry x="1320" y="1490" width="70" height="70" as="geometry" />
        </mxCell>
        <mxCell id="gBsD64_UjYB4qEvEu-Pp-188" value="0,4" style="rounded=0;whiteSpace=wrap;html=1;fillColor=none;strokeWidth=3;strokeColor=#10A8AD;dashed=1;fontFamily=Avenir;fontStyle=1;fontSize=31;fontColor=#10A8AD;" parent="1" vertex="1">
          <mxGeometry x="1320" y="1560" width="70" height="70" as="geometry" />
        </mxCell>
        <mxCell id="gBsD64_UjYB4qEvEu-Pp-189" value="1,0" style="rounded=0;whiteSpace=wrap;html=1;fillColor=none;strokeWidth=3;strokeColor=#10A8AD;dashed=1;fontFamily=Avenir;fontStyle=1;fontSize=31;fontColor=#10A8AD;" parent="1" vertex="1">
          <mxGeometry x="1390" y="1280" width="70" height="70" as="geometry" />
        </mxCell>
        <mxCell id="gBsD64_UjYB4qEvEu-Pp-190" value="1,1" style="rounded=0;whiteSpace=wrap;html=1;fillColor=none;strokeWidth=3;strokeColor=#10A8AD;dashed=1;fontFamily=Avenir;fontStyle=1;fontSize=31;fontColor=#10A8AD;" parent="1" vertex="1">
          <mxGeometry x="1390" y="1350" width="70" height="70" as="geometry" />
        </mxCell>
        <mxCell id="gBsD64_UjYB4qEvEu-Pp-191" value="1,2" style="rounded=0;whiteSpace=wrap;html=1;fillColor=none;strokeWidth=3;strokeColor=#10A8AD;dashed=1;fontFamily=Avenir;fontStyle=1;fontSize=31;fontColor=#10A8AD;" parent="1" vertex="1">
          <mxGeometry x="1390" y="1420" width="70" height="70" as="geometry" />
        </mxCell>
        <mxCell id="gBsD64_UjYB4qEvEu-Pp-192" value="1,3" style="rounded=0;whiteSpace=wrap;html=1;fillColor=none;strokeWidth=3;strokeColor=#10A8AD;dashed=1;fontFamily=Avenir;fontStyle=1;fontSize=31;fontColor=#10A8AD;" parent="1" vertex="1">
          <mxGeometry x="1390" y="1490" width="70" height="70" as="geometry" />
        </mxCell>
        <mxCell id="gBsD64_UjYB4qEvEu-Pp-193" value="1,4" style="rounded=0;whiteSpace=wrap;html=1;fillColor=none;strokeWidth=3;strokeColor=#10A8AD;dashed=1;fontFamily=Avenir;fontStyle=1;fontSize=31;fontColor=#10A8AD;" parent="1" vertex="1">
          <mxGeometry x="1390" y="1560" width="70" height="70" as="geometry" />
        </mxCell>
        <mxCell id="gBsD64_UjYB4qEvEu-Pp-194" value="2,0" style="rounded=0;whiteSpace=wrap;html=1;fillColor=none;strokeWidth=3;strokeColor=#10A8AD;dashed=1;fontFamily=Avenir;fontStyle=1;fontSize=31;fontColor=#10A8AD;" parent="1" vertex="1">
          <mxGeometry x="1460" y="1280" width="70" height="70" as="geometry" />
        </mxCell>
        <mxCell id="gBsD64_UjYB4qEvEu-Pp-195" value="2,1" style="rounded=0;whiteSpace=wrap;html=1;fillColor=none;strokeWidth=3;strokeColor=#10A8AD;dashed=1;fontFamily=Avenir;fontStyle=1;fontSize=31;fontColor=#10A8AD;" parent="1" vertex="1">
          <mxGeometry x="1460" y="1350" width="70" height="70" as="geometry" />
        </mxCell>
        <mxCell id="gBsD64_UjYB4qEvEu-Pp-196" value="2,2" style="rounded=0;whiteSpace=wrap;html=1;fillColor=none;strokeWidth=3;strokeColor=#10A8AD;dashed=1;fontFamily=Avenir;fontStyle=1;fontSize=31;fontColor=#10A8AD;" parent="1" vertex="1">
          <mxGeometry x="1460" y="1420" width="70" height="70" as="geometry" />
        </mxCell>
        <mxCell id="gBsD64_UjYB4qEvEu-Pp-197" value="2,3" style="rounded=0;whiteSpace=wrap;html=1;fillColor=none;strokeWidth=3;strokeColor=#10A8AD;dashed=1;fontFamily=Avenir;fontStyle=1;fontSize=31;fontColor=#10A8AD;" parent="1" vertex="1">
          <mxGeometry x="1460" y="1490" width="70" height="70" as="geometry" />
        </mxCell>
        <mxCell id="gBsD64_UjYB4qEvEu-Pp-198" value="2,4" style="rounded=0;whiteSpace=wrap;html=1;fillColor=none;strokeWidth=3;strokeColor=#10A8AD;dashed=1;fontFamily=Avenir;fontStyle=1;fontSize=31;fontColor=#10A8AD;" parent="1" vertex="1">
          <mxGeometry x="1460" y="1560" width="70" height="70" as="geometry" />
        </mxCell>
        <mxCell id="gBsD64_UjYB4qEvEu-Pp-199" value="3,0" style="rounded=0;whiteSpace=wrap;html=1;fillColor=none;strokeWidth=3;strokeColor=#10A8AD;dashed=1;fontFamily=Avenir;fontStyle=1;fontSize=31;fontColor=#10A8AD;" parent="1" vertex="1">
          <mxGeometry x="1530" y="1280" width="70" height="70" as="geometry" />
        </mxCell>
        <mxCell id="gBsD64_UjYB4qEvEu-Pp-200" value="3,1" style="rounded=0;whiteSpace=wrap;html=1;fillColor=none;strokeWidth=3;strokeColor=#10A8AD;dashed=1;fontFamily=Avenir;fontStyle=1;fontSize=31;fontColor=#10A8AD;" parent="1" vertex="1">
          <mxGeometry x="1530" y="1350" width="70" height="70" as="geometry" />
        </mxCell>
        <mxCell id="gBsD64_UjYB4qEvEu-Pp-201" value="3,2" style="rounded=0;whiteSpace=wrap;html=1;fillColor=none;strokeWidth=3;strokeColor=#10A8AD;dashed=1;fontFamily=Avenir;fontStyle=1;fontSize=31;fontColor=#10A8AD;" parent="1" vertex="1">
          <mxGeometry x="1530" y="1420" width="70" height="70" as="geometry" />
        </mxCell>
        <mxCell id="gBsD64_UjYB4qEvEu-Pp-202" value="3,3" style="rounded=0;whiteSpace=wrap;html=1;fillColor=none;strokeWidth=3;strokeColor=#10A8AD;dashed=1;fontFamily=Avenir;fontStyle=1;fontSize=31;fontColor=#10A8AD;" parent="1" vertex="1">
          <mxGeometry x="1530" y="1490" width="70" height="70" as="geometry" />
        </mxCell>
        <mxCell id="gBsD64_UjYB4qEvEu-Pp-203" value="3,4" style="rounded=0;whiteSpace=wrap;html=1;fillColor=none;strokeWidth=3;strokeColor=#10A8AD;dashed=1;fontFamily=Avenir;fontStyle=1;fontSize=31;fontColor=#10A8AD;" parent="1" vertex="1">
          <mxGeometry x="1530" y="1560" width="70" height="70" as="geometry" />
        </mxCell>
        <mxCell id="gBsD64_UjYB4qEvEu-Pp-204" value="4,0" style="rounded=0;whiteSpace=wrap;html=1;fillColor=none;strokeWidth=3;strokeColor=#10A8AD;dashed=1;fontFamily=Avenir;fontStyle=1;fontSize=31;fontColor=#10A8AD;" parent="1" vertex="1">
          <mxGeometry x="1600" y="1280" width="70" height="70" as="geometry" />
        </mxCell>
        <mxCell id="gBsD64_UjYB4qEvEu-Pp-205" value="4,1" style="rounded=0;whiteSpace=wrap;html=1;fillColor=none;strokeWidth=3;strokeColor=#10A8AD;dashed=1;fontFamily=Avenir;fontStyle=1;fontSize=31;fontColor=#10A8AD;" parent="1" vertex="1">
          <mxGeometry x="1600" y="1350" width="70" height="70" as="geometry" />
        </mxCell>
        <mxCell id="gBsD64_UjYB4qEvEu-Pp-206" value="4,2" style="rounded=0;whiteSpace=wrap;html=1;fillColor=none;strokeWidth=3;strokeColor=#10A8AD;dashed=1;fontFamily=Avenir;fontStyle=1;fontSize=31;fontColor=#10A8AD;" parent="1" vertex="1">
          <mxGeometry x="1600" y="1420" width="70" height="70" as="geometry" />
        </mxCell>
        <mxCell id="gBsD64_UjYB4qEvEu-Pp-207" value="4,3" style="rounded=0;whiteSpace=wrap;html=1;fillColor=none;strokeWidth=3;strokeColor=#10A8AD;dashed=1;fontFamily=Avenir;fontStyle=1;fontSize=31;fontColor=#10A8AD;" parent="1" vertex="1">
          <mxGeometry x="1600" y="1490" width="70" height="70" as="geometry" />
        </mxCell>
        <mxCell id="gBsD64_UjYB4qEvEu-Pp-208" value="4,4" style="rounded=0;whiteSpace=wrap;html=1;fillColor=none;strokeWidth=3;strokeColor=#10A8AD;dashed=1;fontFamily=Avenir;fontStyle=1;fontSize=31;fontColor=#10A8AD;" parent="1" vertex="1">
          <mxGeometry x="1600" y="1560" width="70" height="70" as="geometry" />
        </mxCell>
        <mxCell id="gBsD64_UjYB4qEvEu-Pp-209" value="8" style="rounded=0;html=1;fillColor=#10A8AD;strokeWidth=5;strokeColor=#10A8AD;fontFamily=Avenir;fontStyle=1;fontSize=90;fontColor=#FFFFFF;labelBackgroundColor=none;fillStyle=solid;glass=0;shadow=0;opacity=40;labelBorderColor=none;whiteSpace=wrap;textOpacity=80;" parent="1" vertex="1">
          <mxGeometry x="1320" y="1280" width="350" height="350" as="geometry" />
        </mxCell>
      </root>
    </mxGraphModel>
  </diagram>
  <diagram id="FJmsDogrNa89-8_Z5ZK-" name="Page-3">
    <mxGraphModel dx="835" dy="729" grid="1" gridSize="10" guides="0" tooltips="1" connect="1" arrows="1" fold="1" page="1" pageScale="1" pageWidth="2339" pageHeight="3300" math="0" shadow="0">
      <root>
        <mxCell id="0" />
        <mxCell id="1" parent="0" />
        <mxCell id="taeCFyFWrRogax-9pANC-1" value="0,0" style="rounded=0;whiteSpace=wrap;html=1;fillColor=none;strokeWidth=3;strokeColor=#AD4564;dashed=1;fontFamily=Avenir;fontStyle=1;fontSize=24;fontColor=#ad4564;fillStyle=solid;" parent="1" vertex="1">
          <mxGeometry x="960" y="920" width="50" height="50" as="geometry" />
        </mxCell>
        <mxCell id="taeCFyFWrRogax-9pANC-2" value="0,1" style="rounded=0;whiteSpace=wrap;html=1;fillColor=none;strokeWidth=3;strokeColor=#AD4564;dashed=1;fontFamily=Avenir;fontStyle=1;fontSize=24;fontColor=#ad4564;" parent="1" vertex="1">
          <mxGeometry x="1010" y="920" width="50" height="50" as="geometry" />
        </mxCell>
        <mxCell id="taeCFyFWrRogax-9pANC-3" value="0,2" style="rounded=0;whiteSpace=wrap;html=1;fillColor=none;strokeWidth=3;strokeColor=#AD4564;dashed=1;fontFamily=Avenir;fontStyle=1;fontSize=24;fontColor=#ad4564;" parent="1" vertex="1">
          <mxGeometry x="1060" y="920" width="50" height="50" as="geometry" />
        </mxCell>
        <mxCell id="taeCFyFWrRogax-9pANC-4" value="0,3" style="rounded=0;whiteSpace=wrap;html=1;fillColor=none;strokeWidth=3;strokeColor=#AD4564;dashed=1;fontFamily=Avenir;fontStyle=1;fontSize=24;fontColor=#ad4564;" parent="1" vertex="1">
          <mxGeometry x="1110" y="920" width="50" height="50" as="geometry" />
        </mxCell>
        <mxCell id="taeCFyFWrRogax-9pANC-5" value="0,4" style="rounded=0;whiteSpace=wrap;html=1;fillColor=none;strokeWidth=3;strokeColor=#AD4564;dashed=1;fontFamily=Avenir;fontStyle=1;fontSize=24;fontColor=#ad4564;" parent="1" vertex="1">
          <mxGeometry x="1160" y="920" width="50" height="50" as="geometry" />
        </mxCell>
        <mxCell id="taeCFyFWrRogax-9pANC-6" value="0,5" style="rounded=0;whiteSpace=wrap;html=1;fillColor=none;strokeWidth=3;strokeColor=#AD4564;dashed=1;fontFamily=Avenir;fontStyle=1;fontSize=24;fontColor=#ad4564;" parent="1" vertex="1">
          <mxGeometry x="1210" y="920" width="50" height="50" as="geometry" />
        </mxCell>
        <mxCell id="taeCFyFWrRogax-9pANC-7" value="0,6" style="rounded=0;whiteSpace=wrap;html=1;fillColor=none;strokeWidth=3;strokeColor=#AD4564;dashed=1;fontFamily=Avenir;fontStyle=1;fontSize=24;fontColor=#ad4564;" parent="1" vertex="1">
          <mxGeometry x="1260" y="920" width="50" height="50" as="geometry" />
        </mxCell>
        <mxCell id="taeCFyFWrRogax-9pANC-8" value="1,0" style="rounded=0;whiteSpace=wrap;html=1;fillColor=none;strokeWidth=3;strokeColor=#AD4564;dashed=1;fontFamily=Avenir;fontStyle=1;fontSize=24;fontColor=#ad4564;" parent="1" vertex="1">
          <mxGeometry x="960" y="970" width="50" height="50" as="geometry" />
        </mxCell>
        <mxCell id="taeCFyFWrRogax-9pANC-9" value="1,1" style="rounded=0;whiteSpace=wrap;html=1;fillColor=none;strokeWidth=3;strokeColor=#AD4564;dashed=1;fontFamily=Avenir;fontStyle=1;fontSize=24;fontColor=#ad4564;" parent="1" vertex="1">
          <mxGeometry x="1010" y="970" width="50" height="50" as="geometry" />
        </mxCell>
        <mxCell id="taeCFyFWrRogax-9pANC-10" value="1,2" style="rounded=0;whiteSpace=wrap;html=1;fillColor=none;strokeWidth=3;strokeColor=#AD4564;dashed=1;fontFamily=Avenir;fontStyle=1;fontSize=24;fontColor=#ad4564;" parent="1" vertex="1">
          <mxGeometry x="1060" y="970" width="50" height="50" as="geometry" />
        </mxCell>
        <mxCell id="taeCFyFWrRogax-9pANC-11" value="1,3" style="rounded=0;whiteSpace=wrap;html=1;fillColor=none;strokeWidth=3;strokeColor=#AD4564;dashed=1;fontFamily=Avenir;fontStyle=1;fontSize=24;fontColor=#ad4564;" parent="1" vertex="1">
          <mxGeometry x="1110" y="970" width="50" height="50" as="geometry" />
        </mxCell>
        <mxCell id="taeCFyFWrRogax-9pANC-12" value="1,4" style="rounded=0;whiteSpace=wrap;html=1;fillColor=none;strokeWidth=3;strokeColor=#AD4564;dashed=1;fontFamily=Avenir;fontStyle=1;fontSize=24;fontColor=#ad4564;" parent="1" vertex="1">
          <mxGeometry x="1160" y="970" width="50" height="50" as="geometry" />
        </mxCell>
        <mxCell id="taeCFyFWrRogax-9pANC-13" value="1,5" style="rounded=0;whiteSpace=wrap;html=1;fillColor=none;strokeWidth=3;strokeColor=#AD4564;dashed=1;fontFamily=Avenir;fontStyle=1;fontSize=24;fontColor=#ad4564;" parent="1" vertex="1">
          <mxGeometry x="1210" y="970" width="50" height="50" as="geometry" />
        </mxCell>
        <mxCell id="taeCFyFWrRogax-9pANC-14" value="1,6" style="rounded=0;whiteSpace=wrap;html=1;fillColor=none;strokeWidth=3;strokeColor=#AD4564;dashed=1;fontFamily=Avenir;fontStyle=1;fontSize=24;fontColor=#ad4564;" parent="1" vertex="1">
          <mxGeometry x="1260" y="970" width="50" height="50" as="geometry" />
        </mxCell>
        <mxCell id="taeCFyFWrRogax-9pANC-15" value="2,0" style="rounded=0;whiteSpace=wrap;html=1;fillColor=none;strokeWidth=3;strokeColor=#AD4564;dashed=1;fontFamily=Avenir;fontStyle=1;fontSize=24;fontColor=#ad4564;" parent="1" vertex="1">
          <mxGeometry x="960" y="1020" width="50" height="50" as="geometry" />
        </mxCell>
        <mxCell id="taeCFyFWrRogax-9pANC-16" value="2,1" style="rounded=0;whiteSpace=wrap;html=1;fillColor=none;strokeWidth=3;strokeColor=#AD4564;dashed=1;fontFamily=Avenir;fontStyle=1;fontSize=24;fontColor=#ad4564;" parent="1" vertex="1">
          <mxGeometry x="1010" y="1020" width="50" height="50" as="geometry" />
        </mxCell>
        <mxCell id="taeCFyFWrRogax-9pANC-17" value="2,2" style="rounded=0;whiteSpace=wrap;html=1;fillColor=none;strokeWidth=3;strokeColor=#AD4564;dashed=1;fontFamily=Avenir;fontStyle=1;fontSize=24;fontColor=#ad4564;" parent="1" vertex="1">
          <mxGeometry x="1060" y="1020" width="50" height="50" as="geometry" />
        </mxCell>
        <mxCell id="taeCFyFWrRogax-9pANC-18" value="2,3" style="rounded=0;whiteSpace=wrap;html=1;fillColor=none;strokeWidth=3;strokeColor=#AD4564;dashed=1;fontFamily=Avenir;fontStyle=1;fontSize=24;fontColor=#ad4564;" parent="1" vertex="1">
          <mxGeometry x="1110" y="1020" width="50" height="50" as="geometry" />
        </mxCell>
        <mxCell id="taeCFyFWrRogax-9pANC-19" value="2,4" style="rounded=0;whiteSpace=wrap;html=1;fillColor=none;strokeWidth=3;strokeColor=#AD4564;dashed=1;fontFamily=Avenir;fontStyle=1;fontSize=24;fontColor=#ad4564;" parent="1" vertex="1">
          <mxGeometry x="1160" y="1020" width="50" height="50" as="geometry" />
        </mxCell>
        <mxCell id="taeCFyFWrRogax-9pANC-20" value="2,5" style="rounded=0;whiteSpace=wrap;html=1;fillColor=none;strokeWidth=3;strokeColor=#AD4564;dashed=1;fontFamily=Avenir;fontStyle=1;fontSize=24;fontColor=#ad4564;" parent="1" vertex="1">
          <mxGeometry x="1210" y="1020" width="50" height="50" as="geometry" />
        </mxCell>
        <mxCell id="taeCFyFWrRogax-9pANC-21" value="2,6" style="rounded=0;whiteSpace=wrap;html=1;fillColor=none;strokeWidth=3;strokeColor=#AD4564;dashed=1;fontFamily=Avenir;fontStyle=1;fontSize=24;fontColor=#ad4564;" parent="1" vertex="1">
          <mxGeometry x="1260" y="1020" width="50" height="50" as="geometry" />
        </mxCell>
        <mxCell id="taeCFyFWrRogax-9pANC-22" value="3,0" style="rounded=0;whiteSpace=wrap;html=1;fillColor=none;strokeWidth=3;strokeColor=#AD4564;dashed=1;fontFamily=Avenir;fontStyle=1;fontSize=24;fontColor=#ad4564;" parent="1" vertex="1">
          <mxGeometry x="960" y="1070" width="50" height="50" as="geometry" />
        </mxCell>
        <mxCell id="taeCFyFWrRogax-9pANC-23" value="3,1" style="rounded=0;whiteSpace=wrap;html=1;fillColor=none;strokeWidth=3;strokeColor=#AD4564;dashed=1;fontFamily=Avenir;fontStyle=1;fontSize=24;fontColor=#ad4564;" parent="1" vertex="1">
          <mxGeometry x="1010" y="1070" width="50" height="50" as="geometry" />
        </mxCell>
        <mxCell id="taeCFyFWrRogax-9pANC-24" value="3,2" style="rounded=0;whiteSpace=wrap;html=1;fillColor=none;strokeWidth=3;strokeColor=#AD4564;dashed=1;fontFamily=Avenir;fontStyle=1;fontSize=24;fontColor=#ad4564;" parent="1" vertex="1">
          <mxGeometry x="1060" y="1070" width="50" height="50" as="geometry" />
        </mxCell>
        <mxCell id="taeCFyFWrRogax-9pANC-25" value="3,3" style="rounded=0;whiteSpace=wrap;html=1;fillColor=none;strokeWidth=3;strokeColor=#AD4564;dashed=1;fontFamily=Avenir;fontStyle=1;fontSize=24;fontColor=#ad4564;" parent="1" vertex="1">
          <mxGeometry x="1110" y="1070" width="50" height="50" as="geometry" />
        </mxCell>
        <mxCell id="taeCFyFWrRogax-9pANC-26" value="3,4" style="rounded=0;whiteSpace=wrap;html=1;fillColor=none;strokeWidth=3;strokeColor=#AD4564;dashed=1;fontFamily=Avenir;fontStyle=1;fontSize=24;fontColor=#ad4564;" parent="1" vertex="1">
          <mxGeometry x="1160" y="1070" width="50" height="50" as="geometry" />
        </mxCell>
        <mxCell id="taeCFyFWrRogax-9pANC-27" value="3,5" style="rounded=0;whiteSpace=wrap;html=1;fillColor=none;strokeWidth=3;strokeColor=#AD4564;dashed=1;fontFamily=Avenir;fontStyle=1;fontSize=24;fontColor=#ad4564;" parent="1" vertex="1">
          <mxGeometry x="1210" y="1070" width="50" height="50" as="geometry" />
        </mxCell>
        <mxCell id="taeCFyFWrRogax-9pANC-28" value="3,6" style="rounded=0;whiteSpace=wrap;html=1;fillColor=none;strokeWidth=3;strokeColor=#AD4564;dashed=1;fontFamily=Avenir;fontStyle=1;fontSize=24;fontColor=#ad4564;" parent="1" vertex="1">
          <mxGeometry x="1260" y="1070" width="50" height="50" as="geometry" />
        </mxCell>
        <mxCell id="taeCFyFWrRogax-9pANC-29" value="4,0" style="rounded=0;whiteSpace=wrap;html=1;fillColor=none;strokeWidth=3;strokeColor=#AD4564;dashed=1;fontFamily=Avenir;fontStyle=1;fontSize=24;fontColor=#ad4564;" parent="1" vertex="1">
          <mxGeometry x="960" y="1120" width="50" height="50" as="geometry" />
        </mxCell>
        <mxCell id="taeCFyFWrRogax-9pANC-30" value="4,1" style="rounded=0;whiteSpace=wrap;html=1;fillColor=none;strokeWidth=3;strokeColor=#AD4564;dashed=1;fontFamily=Avenir;fontStyle=1;fontSize=24;fontColor=#ad4564;" parent="1" vertex="1">
          <mxGeometry x="1010" y="1120" width="50" height="50" as="geometry" />
        </mxCell>
        <mxCell id="taeCFyFWrRogax-9pANC-31" value="4,2" style="rounded=0;whiteSpace=wrap;html=1;fillColor=none;strokeWidth=3;strokeColor=#AD4564;dashed=1;fontFamily=Avenir;fontStyle=1;fontSize=24;fontColor=#ad4564;" parent="1" vertex="1">
          <mxGeometry x="1060" y="1120" width="50" height="50" as="geometry" />
        </mxCell>
        <mxCell id="taeCFyFWrRogax-9pANC-32" value="4,3" style="rounded=0;whiteSpace=wrap;html=1;fillColor=none;strokeWidth=3;strokeColor=#AD4564;dashed=1;fontFamily=Avenir;fontStyle=1;fontSize=24;fontColor=#ad4564;" parent="1" vertex="1">
          <mxGeometry x="1110" y="1120" width="50" height="50" as="geometry" />
        </mxCell>
        <mxCell id="taeCFyFWrRogax-9pANC-33" value="4,4" style="rounded=0;whiteSpace=wrap;html=1;fillColor=none;strokeWidth=3;strokeColor=#AD4564;dashed=1;fontFamily=Avenir;fontStyle=1;fontSize=24;fontColor=#ad4564;" parent="1" vertex="1">
          <mxGeometry x="1160" y="1120" width="50" height="50" as="geometry" />
        </mxCell>
        <mxCell id="taeCFyFWrRogax-9pANC-34" value="4,5" style="rounded=0;whiteSpace=wrap;html=1;fillColor=none;strokeWidth=3;strokeColor=#AD4564;dashed=1;fontFamily=Avenir;fontStyle=1;fontSize=24;fontColor=#ad4564;" parent="1" vertex="1">
          <mxGeometry x="1210" y="1120" width="50" height="50" as="geometry" />
        </mxCell>
        <mxCell id="taeCFyFWrRogax-9pANC-35" value="4,6" style="rounded=0;whiteSpace=wrap;html=1;fillColor=none;strokeWidth=3;strokeColor=#AD4564;dashed=1;fontFamily=Avenir;fontStyle=1;fontSize=24;fontColor=#ad4564;" parent="1" vertex="1">
          <mxGeometry x="1260" y="1120" width="50" height="50" as="geometry" />
        </mxCell>
        <mxCell id="taeCFyFWrRogax-9pANC-36" value="5,0" style="rounded=0;whiteSpace=wrap;html=1;fillColor=none;strokeWidth=3;strokeColor=#AD4564;dashed=1;fontFamily=Avenir;fontStyle=1;fontSize=24;fontColor=#ad4564;" parent="1" vertex="1">
          <mxGeometry x="960" y="1170" width="50" height="50" as="geometry" />
        </mxCell>
        <mxCell id="taeCFyFWrRogax-9pANC-37" value="5,1" style="rounded=0;whiteSpace=wrap;html=1;fillColor=none;strokeWidth=3;strokeColor=#AD4564;dashed=1;fontFamily=Avenir;fontStyle=1;fontSize=24;fontColor=#ad4564;" parent="1" vertex="1">
          <mxGeometry x="1010" y="1170" width="50" height="50" as="geometry" />
        </mxCell>
        <mxCell id="taeCFyFWrRogax-9pANC-38" value="5,2" style="rounded=0;whiteSpace=wrap;html=1;fillColor=none;strokeWidth=3;strokeColor=#AD4564;dashed=1;fontFamily=Avenir;fontStyle=1;fontSize=24;fontColor=#ad4564;" parent="1" vertex="1">
          <mxGeometry x="1060" y="1170" width="50" height="50" as="geometry" />
        </mxCell>
        <mxCell id="taeCFyFWrRogax-9pANC-39" value="5,3" style="rounded=0;whiteSpace=wrap;html=1;fillColor=none;strokeWidth=3;strokeColor=#AD4564;dashed=1;fontFamily=Avenir;fontStyle=1;fontSize=24;fontColor=#ad4564;" parent="1" vertex="1">
          <mxGeometry x="1110" y="1170" width="50" height="50" as="geometry" />
        </mxCell>
        <mxCell id="taeCFyFWrRogax-9pANC-40" value="5,4" style="rounded=0;whiteSpace=wrap;html=1;fillColor=none;strokeWidth=3;strokeColor=#AD4564;dashed=1;fontFamily=Avenir;fontStyle=1;fontSize=24;fontColor=#ad4564;" parent="1" vertex="1">
          <mxGeometry x="1160" y="1170" width="50" height="50" as="geometry" />
        </mxCell>
        <mxCell id="taeCFyFWrRogax-9pANC-41" value="5,5" style="rounded=0;whiteSpace=wrap;html=1;fillColor=none;strokeWidth=3;strokeColor=#AD4564;dashed=1;fontFamily=Avenir;fontStyle=1;fontSize=24;fontColor=#ad4564;" parent="1" vertex="1">
          <mxGeometry x="1210" y="1170" width="50" height="50" as="geometry" />
        </mxCell>
        <mxCell id="taeCFyFWrRogax-9pANC-42" value="5,6" style="rounded=0;whiteSpace=wrap;html=1;fillColor=none;strokeWidth=3;strokeColor=#AD4564;dashed=1;fontFamily=Avenir;fontStyle=1;fontSize=24;fontColor=#ad4564;" parent="1" vertex="1">
          <mxGeometry x="1260" y="1170" width="50" height="50" as="geometry" />
        </mxCell>
        <mxCell id="taeCFyFWrRogax-9pANC-43" value="6,0" style="rounded=0;whiteSpace=wrap;html=1;fillColor=none;strokeWidth=3;strokeColor=#AD4564;dashed=1;fontFamily=Avenir;fontStyle=1;fontSize=24;fontColor=#ad4564;" parent="1" vertex="1">
          <mxGeometry x="960" y="1220" width="50" height="50" as="geometry" />
        </mxCell>
        <mxCell id="taeCFyFWrRogax-9pANC-44" value="6,1" style="rounded=0;whiteSpace=wrap;html=1;fillColor=none;strokeWidth=3;strokeColor=#AD4564;dashed=1;fontFamily=Avenir;fontStyle=1;fontSize=24;fontColor=#ad4564;" parent="1" vertex="1">
          <mxGeometry x="1010" y="1220" width="50" height="50" as="geometry" />
        </mxCell>
        <mxCell id="taeCFyFWrRogax-9pANC-45" value="6,2" style="rounded=0;whiteSpace=wrap;html=1;fillColor=none;strokeWidth=3;strokeColor=#AD4564;dashed=1;fontFamily=Avenir;fontStyle=1;fontSize=24;fontColor=#ad4564;" parent="1" vertex="1">
          <mxGeometry x="1060" y="1220" width="50" height="50" as="geometry" />
        </mxCell>
        <mxCell id="taeCFyFWrRogax-9pANC-46" value="6,3" style="rounded=0;whiteSpace=wrap;html=1;fillColor=none;strokeWidth=3;strokeColor=#AD4564;dashed=1;fontFamily=Avenir;fontStyle=1;fontSize=24;fontColor=#ad4564;" parent="1" vertex="1">
          <mxGeometry x="1110" y="1220" width="50" height="50" as="geometry" />
        </mxCell>
        <mxCell id="taeCFyFWrRogax-9pANC-47" value="6,4" style="rounded=0;whiteSpace=wrap;html=1;fillColor=none;strokeWidth=3;strokeColor=#AD4564;dashed=1;fontFamily=Avenir;fontStyle=1;fontSize=24;fontColor=#ad4564;" parent="1" vertex="1">
          <mxGeometry x="1160" y="1220" width="50" height="50" as="geometry" />
        </mxCell>
        <mxCell id="taeCFyFWrRogax-9pANC-48" value="6,5" style="rounded=0;whiteSpace=wrap;html=1;fillColor=none;strokeWidth=3;strokeColor=#AD4564;dashed=1;fontFamily=Avenir;fontStyle=1;fontSize=24;fontColor=#ad4564;" parent="1" vertex="1">
          <mxGeometry x="1210" y="1220" width="50" height="50" as="geometry" />
        </mxCell>
        <mxCell id="taeCFyFWrRogax-9pANC-49" value="6,6" style="rounded=0;whiteSpace=wrap;html=1;fillColor=none;strokeWidth=3;strokeColor=#AD4564;dashed=1;fontFamily=Avenir;fontStyle=1;fontSize=24;fontColor=#ad4564;" parent="1" vertex="1">
          <mxGeometry x="1260" y="1220" width="50" height="50" as="geometry" />
        </mxCell>
        <mxCell id="taeCFyFWrRogax-9pANC-50" value="0,0" style="rounded=0;whiteSpace=wrap;html=1;fillColor=none;strokeWidth=3;strokeColor=#10A8AD;dashed=1;fontFamily=Avenir;fontStyle=1;fontSize=31;fontColor=#10A8AD;" parent="1" vertex="1">
          <mxGeometry x="600" y="560" width="70" height="70" as="geometry" />
        </mxCell>
        <mxCell id="taeCFyFWrRogax-9pANC-51" value="0,1" style="rounded=0;whiteSpace=wrap;html=1;fillColor=none;strokeWidth=3;strokeColor=#10A8AD;dashed=1;fontFamily=Avenir;fontStyle=1;fontSize=31;fontColor=#10A8AD;" parent="1" vertex="1">
          <mxGeometry x="600" y="630" width="70" height="70" as="geometry" />
        </mxCell>
        <mxCell id="taeCFyFWrRogax-9pANC-52" value="0,2" style="rounded=0;whiteSpace=wrap;html=1;fillColor=none;strokeWidth=3;strokeColor=#10A8AD;dashed=1;fontFamily=Avenir;fontStyle=1;fontSize=31;fontColor=#10A8AD;" parent="1" vertex="1">
          <mxGeometry x="600" y="700" width="70" height="70" as="geometry" />
        </mxCell>
        <mxCell id="taeCFyFWrRogax-9pANC-53" value="0,3" style="rounded=0;whiteSpace=wrap;html=1;fillColor=none;strokeWidth=3;strokeColor=#10A8AD;dashed=1;fontFamily=Avenir;fontStyle=1;fontSize=31;fontColor=#10A8AD;" parent="1" vertex="1">
          <mxGeometry x="600" y="770" width="70" height="70" as="geometry" />
        </mxCell>
        <mxCell id="taeCFyFWrRogax-9pANC-54" value="0,4" style="rounded=0;whiteSpace=wrap;html=1;fillColor=none;strokeWidth=3;strokeColor=#10A8AD;dashed=1;fontFamily=Avenir;fontStyle=1;fontSize=31;fontColor=#10A8AD;" parent="1" vertex="1">
          <mxGeometry x="600" y="840" width="70" height="70" as="geometry" />
        </mxCell>
        <mxCell id="taeCFyFWrRogax-9pANC-55" value="1,0" style="rounded=0;whiteSpace=wrap;html=1;fillColor=none;strokeWidth=3;strokeColor=#10A8AD;dashed=1;fontFamily=Avenir;fontStyle=1;fontSize=31;fontColor=#10A8AD;" parent="1" vertex="1">
          <mxGeometry x="670" y="560" width="70" height="70" as="geometry" />
        </mxCell>
        <mxCell id="taeCFyFWrRogax-9pANC-56" value="1,1" style="rounded=0;whiteSpace=wrap;html=1;fillColor=none;strokeWidth=3;strokeColor=#10A8AD;dashed=1;fontFamily=Avenir;fontStyle=1;fontSize=31;fontColor=#10A8AD;" parent="1" vertex="1">
          <mxGeometry x="670" y="630" width="70" height="70" as="geometry" />
        </mxCell>
        <mxCell id="taeCFyFWrRogax-9pANC-57" value="1,2" style="rounded=0;whiteSpace=wrap;html=1;fillColor=none;strokeWidth=3;strokeColor=#10A8AD;dashed=1;fontFamily=Avenir;fontStyle=1;fontSize=31;fontColor=#10A8AD;" parent="1" vertex="1">
          <mxGeometry x="670" y="700" width="70" height="70" as="geometry" />
        </mxCell>
        <mxCell id="taeCFyFWrRogax-9pANC-58" value="1,3" style="rounded=0;whiteSpace=wrap;html=1;fillColor=none;strokeWidth=3;strokeColor=#10A8AD;dashed=1;fontFamily=Avenir;fontStyle=1;fontSize=31;fontColor=#10A8AD;" parent="1" vertex="1">
          <mxGeometry x="670" y="770" width="70" height="70" as="geometry" />
        </mxCell>
        <mxCell id="taeCFyFWrRogax-9pANC-59" value="1,4" style="rounded=0;whiteSpace=wrap;html=1;fillColor=none;strokeWidth=3;strokeColor=#10A8AD;dashed=1;fontFamily=Avenir;fontStyle=1;fontSize=31;fontColor=#10A8AD;" parent="1" vertex="1">
          <mxGeometry x="670" y="840" width="70" height="70" as="geometry" />
        </mxCell>
        <mxCell id="taeCFyFWrRogax-9pANC-60" value="2,0" style="rounded=0;whiteSpace=wrap;html=1;fillColor=none;strokeWidth=3;strokeColor=#10A8AD;dashed=1;fontFamily=Avenir;fontStyle=1;fontSize=31;fontColor=#10A8AD;" parent="1" vertex="1">
          <mxGeometry x="740" y="560" width="70" height="70" as="geometry" />
        </mxCell>
        <mxCell id="taeCFyFWrRogax-9pANC-61" value="2,1" style="rounded=0;whiteSpace=wrap;html=1;fillColor=none;strokeWidth=3;strokeColor=#10A8AD;dashed=1;fontFamily=Avenir;fontStyle=1;fontSize=31;fontColor=#10A8AD;" parent="1" vertex="1">
          <mxGeometry x="740" y="630" width="70" height="70" as="geometry" />
        </mxCell>
        <mxCell id="taeCFyFWrRogax-9pANC-62" value="2,2" style="rounded=0;whiteSpace=wrap;html=1;fillColor=none;strokeWidth=3;strokeColor=#10A8AD;dashed=1;fontFamily=Avenir;fontStyle=1;fontSize=31;fontColor=#10A8AD;" parent="1" vertex="1">
          <mxGeometry x="740" y="700" width="70" height="70" as="geometry" />
        </mxCell>
        <mxCell id="taeCFyFWrRogax-9pANC-63" value="2,3" style="rounded=0;whiteSpace=wrap;html=1;fillColor=none;strokeWidth=3;strokeColor=#10A8AD;dashed=1;fontFamily=Avenir;fontStyle=1;fontSize=31;fontColor=#10A8AD;" parent="1" vertex="1">
          <mxGeometry x="740" y="770" width="70" height="70" as="geometry" />
        </mxCell>
        <mxCell id="taeCFyFWrRogax-9pANC-64" value="2,4" style="rounded=0;whiteSpace=wrap;html=1;fillColor=none;strokeWidth=3;strokeColor=#10A8AD;dashed=1;fontFamily=Avenir;fontStyle=1;fontSize=31;fontColor=#10A8AD;" parent="1" vertex="1">
          <mxGeometry x="740" y="840" width="70" height="70" as="geometry" />
        </mxCell>
        <mxCell id="taeCFyFWrRogax-9pANC-65" value="3,0" style="rounded=0;whiteSpace=wrap;html=1;fillColor=none;strokeWidth=3;strokeColor=#10A8AD;dashed=1;fontFamily=Avenir;fontStyle=1;fontSize=31;fontColor=#10A8AD;" parent="1" vertex="1">
          <mxGeometry x="810" y="560" width="70" height="70" as="geometry" />
        </mxCell>
        <mxCell id="taeCFyFWrRogax-9pANC-66" value="3,1" style="rounded=0;whiteSpace=wrap;html=1;fillColor=none;strokeWidth=3;strokeColor=#10A8AD;dashed=1;fontFamily=Avenir;fontStyle=1;fontSize=31;fontColor=#10A8AD;" parent="1" vertex="1">
          <mxGeometry x="810" y="630" width="70" height="70" as="geometry" />
        </mxCell>
        <mxCell id="taeCFyFWrRogax-9pANC-67" value="3,2" style="rounded=0;whiteSpace=wrap;html=1;fillColor=none;strokeWidth=3;strokeColor=#10A8AD;dashed=1;fontFamily=Avenir;fontStyle=1;fontSize=31;fontColor=#10A8AD;" parent="1" vertex="1">
          <mxGeometry x="810" y="700" width="70" height="70" as="geometry" />
        </mxCell>
        <mxCell id="taeCFyFWrRogax-9pANC-68" value="3,3" style="rounded=0;whiteSpace=wrap;html=1;fillColor=none;strokeWidth=3;strokeColor=#10A8AD;dashed=1;fontFamily=Avenir;fontStyle=1;fontSize=31;fontColor=#10A8AD;" parent="1" vertex="1">
          <mxGeometry x="810" y="770" width="70" height="70" as="geometry" />
        </mxCell>
        <mxCell id="taeCFyFWrRogax-9pANC-69" value="3,4" style="rounded=0;whiteSpace=wrap;html=1;fillColor=none;strokeWidth=3;strokeColor=#10A8AD;dashed=1;fontFamily=Avenir;fontStyle=1;fontSize=31;fontColor=#10A8AD;" parent="1" vertex="1">
          <mxGeometry x="810" y="840" width="70" height="70" as="geometry" />
        </mxCell>
        <mxCell id="taeCFyFWrRogax-9pANC-70" value="4,0" style="rounded=0;whiteSpace=wrap;html=1;fillColor=none;strokeWidth=3;strokeColor=#10A8AD;dashed=1;fontFamily=Avenir;fontStyle=1;fontSize=31;fontColor=#10A8AD;" parent="1" vertex="1">
          <mxGeometry x="880" y="560" width="70" height="70" as="geometry" />
        </mxCell>
        <mxCell id="taeCFyFWrRogax-9pANC-71" value="4,1" style="rounded=0;whiteSpace=wrap;html=1;fillColor=none;strokeWidth=3;strokeColor=#10A8AD;dashed=1;fontFamily=Avenir;fontStyle=1;fontSize=31;fontColor=#10A8AD;" parent="1" vertex="1">
          <mxGeometry x="880" y="630" width="70" height="70" as="geometry" />
        </mxCell>
        <mxCell id="taeCFyFWrRogax-9pANC-72" value="4,2" style="rounded=0;whiteSpace=wrap;html=1;fillColor=none;strokeWidth=3;strokeColor=#10A8AD;dashed=1;fontFamily=Avenir;fontStyle=1;fontSize=31;fontColor=#10A8AD;" parent="1" vertex="1">
          <mxGeometry x="880" y="700" width="70" height="70" as="geometry" />
        </mxCell>
        <mxCell id="taeCFyFWrRogax-9pANC-73" value="4,3" style="rounded=0;whiteSpace=wrap;html=1;fillColor=none;strokeWidth=3;strokeColor=#10A8AD;dashed=1;fontFamily=Avenir;fontStyle=1;fontSize=31;fontColor=#10A8AD;" parent="1" vertex="1">
          <mxGeometry x="880" y="770" width="70" height="70" as="geometry" />
        </mxCell>
        <mxCell id="taeCFyFWrRogax-9pANC-74" value="4,4" style="rounded=0;whiteSpace=wrap;html=1;fillColor=none;strokeWidth=3;strokeColor=#10A8AD;dashed=1;fontFamily=Avenir;fontStyle=1;fontSize=31;fontColor=#10A8AD;" parent="1" vertex="1">
          <mxGeometry x="880" y="840" width="70" height="70" as="geometry" />
        </mxCell>
        <mxCell id="taeCFyFWrRogax-9pANC-75" value="0" style="rounded=0;html=1;fillColor=#10A8AD;strokeWidth=5;strokeColor=#10A8AD;fontFamily=Avenir;fontStyle=1;fontSize=90;fontColor=#FFFFFF;labelBackgroundColor=none;fillStyle=solid;glass=0;shadow=0;opacity=40;labelBorderColor=none;whiteSpace=wrap;textOpacity=80;" parent="1" vertex="1">
          <mxGeometry x="600" y="560" width="350" height="350" as="geometry" />
        </mxCell>
        <mxCell id="taeCFyFWrRogax-9pANC-76" value="4" style="rounded=0;whiteSpace=wrap;html=1;fillColor=#EA6B66;strokeWidth=5;strokeColor=#EA6B66;fontFamily=Avenir;fontStyle=1;fontSize=90;fontColor=#FFFFFF;labelBackgroundColor=none;fillStyle=auto;opacity=40;textOpacity=80;" parent="1" vertex="1">
          <mxGeometry x="960" y="920" width="350" height="350" as="geometry" />
        </mxCell>
        <mxCell id="taeCFyFWrRogax-9pANC-77" value="0,0" style="rounded=0;whiteSpace=wrap;html=1;fillColor=none;strokeWidth=3;strokeColor=#10A8AD;dashed=1;fontFamily=Avenir;fontStyle=1;fontSize=31;fontColor=#10A8AD;" parent="1" vertex="1">
          <mxGeometry x="960" y="560" width="70" height="70" as="geometry" />
        </mxCell>
        <mxCell id="taeCFyFWrRogax-9pANC-78" value="0,1" style="rounded=0;whiteSpace=wrap;html=1;fillColor=none;strokeWidth=3;strokeColor=#10A8AD;dashed=1;fontFamily=Avenir;fontStyle=1;fontSize=31;fontColor=#10A8AD;" parent="1" vertex="1">
          <mxGeometry x="960" y="630" width="70" height="70" as="geometry" />
        </mxCell>
        <mxCell id="taeCFyFWrRogax-9pANC-79" value="0,2" style="rounded=0;whiteSpace=wrap;html=1;fillColor=none;strokeWidth=3;strokeColor=#10A8AD;dashed=1;fontFamily=Avenir;fontStyle=1;fontSize=31;fontColor=#10A8AD;" parent="1" vertex="1">
          <mxGeometry x="960" y="700" width="70" height="70" as="geometry" />
        </mxCell>
        <mxCell id="taeCFyFWrRogax-9pANC-80" value="0,3" style="rounded=0;whiteSpace=wrap;html=1;fillColor=none;strokeWidth=3;strokeColor=#10A8AD;dashed=1;fontFamily=Avenir;fontStyle=1;fontSize=31;fontColor=#10A8AD;" parent="1" vertex="1">
          <mxGeometry x="960" y="770" width="70" height="70" as="geometry" />
        </mxCell>
        <mxCell id="taeCFyFWrRogax-9pANC-81" value="0,4" style="rounded=0;whiteSpace=wrap;html=1;fillColor=none;strokeWidth=3;strokeColor=#10A8AD;dashed=1;fontFamily=Avenir;fontStyle=1;fontSize=31;fontColor=#10A8AD;" parent="1" vertex="1">
          <mxGeometry x="960" y="840" width="70" height="70" as="geometry" />
        </mxCell>
        <mxCell id="taeCFyFWrRogax-9pANC-82" value="1,0" style="rounded=0;whiteSpace=wrap;html=1;fillColor=none;strokeWidth=3;strokeColor=#10A8AD;dashed=1;fontFamily=Avenir;fontStyle=1;fontSize=31;fontColor=#10A8AD;" parent="1" vertex="1">
          <mxGeometry x="1030" y="560" width="70" height="70" as="geometry" />
        </mxCell>
        <mxCell id="taeCFyFWrRogax-9pANC-83" value="1,1" style="rounded=0;whiteSpace=wrap;html=1;fillColor=none;strokeWidth=3;strokeColor=#10A8AD;dashed=1;fontFamily=Avenir;fontStyle=1;fontSize=31;fontColor=#10A8AD;" parent="1" vertex="1">
          <mxGeometry x="1030" y="630" width="70" height="70" as="geometry" />
        </mxCell>
        <mxCell id="taeCFyFWrRogax-9pANC-84" value="1,2" style="rounded=0;whiteSpace=wrap;html=1;fillColor=none;strokeWidth=3;strokeColor=#10A8AD;dashed=1;fontFamily=Avenir;fontStyle=1;fontSize=31;fontColor=#10A8AD;" parent="1" vertex="1">
          <mxGeometry x="1030" y="700" width="70" height="70" as="geometry" />
        </mxCell>
        <mxCell id="taeCFyFWrRogax-9pANC-85" value="1,3" style="rounded=0;whiteSpace=wrap;html=1;fillColor=none;strokeWidth=3;strokeColor=#10A8AD;dashed=1;fontFamily=Avenir;fontStyle=1;fontSize=31;fontColor=#10A8AD;" parent="1" vertex="1">
          <mxGeometry x="1030" y="770" width="70" height="70" as="geometry" />
        </mxCell>
        <mxCell id="taeCFyFWrRogax-9pANC-86" value="1,4" style="rounded=0;whiteSpace=wrap;html=1;fillColor=none;strokeWidth=3;strokeColor=#10A8AD;dashed=1;fontFamily=Avenir;fontStyle=1;fontSize=31;fontColor=#10A8AD;" parent="1" vertex="1">
          <mxGeometry x="1030" y="840" width="70" height="70" as="geometry" />
        </mxCell>
        <mxCell id="taeCFyFWrRogax-9pANC-87" value="2,0" style="rounded=0;whiteSpace=wrap;html=1;fillColor=none;strokeWidth=3;strokeColor=#10A8AD;dashed=1;fontFamily=Avenir;fontStyle=1;fontSize=31;fontColor=#10A8AD;" parent="1" vertex="1">
          <mxGeometry x="1100" y="560" width="70" height="70" as="geometry" />
        </mxCell>
        <mxCell id="taeCFyFWrRogax-9pANC-88" value="2,1" style="rounded=0;whiteSpace=wrap;html=1;fillColor=none;strokeWidth=3;strokeColor=#10A8AD;dashed=1;fontFamily=Avenir;fontStyle=1;fontSize=31;fontColor=#10A8AD;" parent="1" vertex="1">
          <mxGeometry x="1100" y="630" width="70" height="70" as="geometry" />
        </mxCell>
        <mxCell id="taeCFyFWrRogax-9pANC-89" value="2,2" style="rounded=0;whiteSpace=wrap;html=1;fillColor=none;strokeWidth=3;strokeColor=#10A8AD;dashed=1;fontFamily=Avenir;fontStyle=1;fontSize=31;fontColor=#10A8AD;" parent="1" vertex="1">
          <mxGeometry x="1100" y="700" width="70" height="70" as="geometry" />
        </mxCell>
        <mxCell id="taeCFyFWrRogax-9pANC-90" value="2,3" style="rounded=0;whiteSpace=wrap;html=1;fillColor=none;strokeWidth=3;strokeColor=#10A8AD;dashed=1;fontFamily=Avenir;fontStyle=1;fontSize=31;fontColor=#10A8AD;" parent="1" vertex="1">
          <mxGeometry x="1100" y="770" width="70" height="70" as="geometry" />
        </mxCell>
        <mxCell id="taeCFyFWrRogax-9pANC-91" value="2,4" style="rounded=0;whiteSpace=wrap;html=1;fillColor=none;strokeWidth=3;strokeColor=#10A8AD;dashed=1;fontFamily=Avenir;fontStyle=1;fontSize=31;fontColor=#10A8AD;" parent="1" vertex="1">
          <mxGeometry x="1100" y="840" width="70" height="70" as="geometry" />
        </mxCell>
        <mxCell id="taeCFyFWrRogax-9pANC-92" value="3,0" style="rounded=0;whiteSpace=wrap;html=1;fillColor=none;strokeWidth=3;strokeColor=#10A8AD;dashed=1;fontFamily=Avenir;fontStyle=1;fontSize=31;fontColor=#10A8AD;" parent="1" vertex="1">
          <mxGeometry x="1170" y="560" width="70" height="70" as="geometry" />
        </mxCell>
        <mxCell id="taeCFyFWrRogax-9pANC-93" value="3,1" style="rounded=0;whiteSpace=wrap;html=1;fillColor=none;strokeWidth=3;strokeColor=#10A8AD;dashed=1;fontFamily=Avenir;fontStyle=1;fontSize=31;fontColor=#10A8AD;" parent="1" vertex="1">
          <mxGeometry x="1170" y="630" width="70" height="70" as="geometry" />
        </mxCell>
        <mxCell id="taeCFyFWrRogax-9pANC-94" value="3,2" style="rounded=0;whiteSpace=wrap;html=1;fillColor=none;strokeWidth=3;strokeColor=#10A8AD;dashed=1;fontFamily=Avenir;fontStyle=1;fontSize=31;fontColor=#10A8AD;" parent="1" vertex="1">
          <mxGeometry x="1170" y="700" width="70" height="70" as="geometry" />
        </mxCell>
        <mxCell id="taeCFyFWrRogax-9pANC-95" value="3,3" style="rounded=0;whiteSpace=wrap;html=1;fillColor=none;strokeWidth=3;strokeColor=#10A8AD;dashed=1;fontFamily=Avenir;fontStyle=1;fontSize=31;fontColor=#10A8AD;" parent="1" vertex="1">
          <mxGeometry x="1170" y="770" width="70" height="70" as="geometry" />
        </mxCell>
        <mxCell id="taeCFyFWrRogax-9pANC-96" value="3,4" style="rounded=0;whiteSpace=wrap;html=1;fillColor=none;strokeWidth=3;strokeColor=#10A8AD;dashed=1;fontFamily=Avenir;fontStyle=1;fontSize=31;fontColor=#10A8AD;" parent="1" vertex="1">
          <mxGeometry x="1170" y="840" width="70" height="70" as="geometry" />
        </mxCell>
        <mxCell id="taeCFyFWrRogax-9pANC-97" value="4,0" style="rounded=0;whiteSpace=wrap;html=1;fillColor=none;strokeWidth=3;strokeColor=#10A8AD;dashed=1;fontFamily=Avenir;fontStyle=1;fontSize=31;fontColor=#10A8AD;" parent="1" vertex="1">
          <mxGeometry x="1240" y="560" width="70" height="70" as="geometry" />
        </mxCell>
        <mxCell id="taeCFyFWrRogax-9pANC-98" value="4,1" style="rounded=0;whiteSpace=wrap;html=1;fillColor=none;strokeWidth=3;strokeColor=#10A8AD;dashed=1;fontFamily=Avenir;fontStyle=1;fontSize=31;fontColor=#10A8AD;" parent="1" vertex="1">
          <mxGeometry x="1240" y="630" width="70" height="70" as="geometry" />
        </mxCell>
        <mxCell id="taeCFyFWrRogax-9pANC-99" value="4,2" style="rounded=0;whiteSpace=wrap;html=1;fillColor=none;strokeWidth=3;strokeColor=#10A8AD;dashed=1;fontFamily=Avenir;fontStyle=1;fontSize=31;fontColor=#10A8AD;" parent="1" vertex="1">
          <mxGeometry x="1240" y="700" width="70" height="70" as="geometry" />
        </mxCell>
        <mxCell id="taeCFyFWrRogax-9pANC-100" value="4,3" style="rounded=0;whiteSpace=wrap;html=1;fillColor=none;strokeWidth=3;strokeColor=#10A8AD;dashed=1;fontFamily=Avenir;fontStyle=1;fontSize=31;fontColor=#10A8AD;" parent="1" vertex="1">
          <mxGeometry x="1240" y="770" width="70" height="70" as="geometry" />
        </mxCell>
        <mxCell id="taeCFyFWrRogax-9pANC-101" value="4,4" style="rounded=0;whiteSpace=wrap;html=1;fillColor=none;strokeWidth=3;strokeColor=#10A8AD;dashed=1;fontFamily=Avenir;fontStyle=1;fontSize=31;fontColor=#10A8AD;" parent="1" vertex="1">
          <mxGeometry x="1240" y="840" width="70" height="70" as="geometry" />
        </mxCell>
        <mxCell id="taeCFyFWrRogax-9pANC-102" value="1" style="rounded=0;html=1;fillColor=#10A8AD;strokeWidth=5;strokeColor=#10A8AD;fontFamily=Avenir;fontStyle=1;fontSize=90;fontColor=#FFFFFF;labelBackgroundColor=none;fillStyle=solid;glass=0;shadow=0;opacity=40;labelBorderColor=none;whiteSpace=wrap;textOpacity=80;" parent="1" vertex="1">
          <mxGeometry x="960" y="560" width="350" height="350" as="geometry" />
        </mxCell>
        <mxCell id="taeCFyFWrRogax-9pANC-103" value="0,0" style="rounded=0;whiteSpace=wrap;html=1;fillColor=none;strokeWidth=3;strokeColor=#10A8AD;dashed=1;fontFamily=Avenir;fontStyle=1;fontSize=31;fontColor=#10A8AD;" parent="1" vertex="1">
          <mxGeometry x="1320" y="560" width="70" height="70" as="geometry" />
        </mxCell>
        <mxCell id="taeCFyFWrRogax-9pANC-104" value="0,1" style="rounded=0;whiteSpace=wrap;html=1;fillColor=none;strokeWidth=3;strokeColor=#10A8AD;dashed=1;fontFamily=Avenir;fontStyle=1;fontSize=31;fontColor=#10A8AD;" parent="1" vertex="1">
          <mxGeometry x="1320" y="630" width="70" height="70" as="geometry" />
        </mxCell>
        <mxCell id="taeCFyFWrRogax-9pANC-105" value="0,2" style="rounded=0;whiteSpace=wrap;html=1;fillColor=none;strokeWidth=3;strokeColor=#10A8AD;dashed=1;fontFamily=Avenir;fontStyle=1;fontSize=31;fontColor=#10A8AD;" parent="1" vertex="1">
          <mxGeometry x="1320" y="700" width="70" height="70" as="geometry" />
        </mxCell>
        <mxCell id="taeCFyFWrRogax-9pANC-106" value="0,3" style="rounded=0;whiteSpace=wrap;html=1;fillColor=none;strokeWidth=3;strokeColor=#10A8AD;dashed=1;fontFamily=Avenir;fontStyle=1;fontSize=31;fontColor=#10A8AD;" parent="1" vertex="1">
          <mxGeometry x="1320" y="770" width="70" height="70" as="geometry" />
        </mxCell>
        <mxCell id="taeCFyFWrRogax-9pANC-107" value="0,4" style="rounded=0;whiteSpace=wrap;html=1;fillColor=none;strokeWidth=3;strokeColor=#10A8AD;dashed=1;fontFamily=Avenir;fontStyle=1;fontSize=31;fontColor=#10A8AD;" parent="1" vertex="1">
          <mxGeometry x="1320" y="840" width="70" height="70" as="geometry" />
        </mxCell>
        <mxCell id="taeCFyFWrRogax-9pANC-108" value="1,0" style="rounded=0;whiteSpace=wrap;html=1;fillColor=none;strokeWidth=3;strokeColor=#10A8AD;dashed=1;fontFamily=Avenir;fontStyle=1;fontSize=31;fontColor=#10A8AD;" parent="1" vertex="1">
          <mxGeometry x="1390" y="560" width="70" height="70" as="geometry" />
        </mxCell>
        <mxCell id="taeCFyFWrRogax-9pANC-109" value="1,1" style="rounded=0;whiteSpace=wrap;html=1;fillColor=none;strokeWidth=3;strokeColor=#10A8AD;dashed=1;fontFamily=Avenir;fontStyle=1;fontSize=31;fontColor=#10A8AD;" parent="1" vertex="1">
          <mxGeometry x="1390" y="630" width="70" height="70" as="geometry" />
        </mxCell>
        <mxCell id="taeCFyFWrRogax-9pANC-110" value="1,2" style="rounded=0;whiteSpace=wrap;html=1;fillColor=none;strokeWidth=3;strokeColor=#10A8AD;dashed=1;fontFamily=Avenir;fontStyle=1;fontSize=31;fontColor=#10A8AD;" parent="1" vertex="1">
          <mxGeometry x="1390" y="700" width="70" height="70" as="geometry" />
        </mxCell>
        <mxCell id="taeCFyFWrRogax-9pANC-111" value="1,3" style="rounded=0;whiteSpace=wrap;html=1;fillColor=none;strokeWidth=3;strokeColor=#10A8AD;dashed=1;fontFamily=Avenir;fontStyle=1;fontSize=31;fontColor=#10A8AD;" parent="1" vertex="1">
          <mxGeometry x="1390" y="770" width="70" height="70" as="geometry" />
        </mxCell>
        <mxCell id="taeCFyFWrRogax-9pANC-112" value="1,4" style="rounded=0;whiteSpace=wrap;html=1;fillColor=none;strokeWidth=3;strokeColor=#10A8AD;dashed=1;fontFamily=Avenir;fontStyle=1;fontSize=31;fontColor=#10A8AD;" parent="1" vertex="1">
          <mxGeometry x="1390" y="840" width="70" height="70" as="geometry" />
        </mxCell>
        <mxCell id="taeCFyFWrRogax-9pANC-113" value="2,0" style="rounded=0;whiteSpace=wrap;html=1;fillColor=none;strokeWidth=3;strokeColor=#10A8AD;dashed=1;fontFamily=Avenir;fontStyle=1;fontSize=31;fontColor=#10A8AD;" parent="1" vertex="1">
          <mxGeometry x="1460" y="560" width="70" height="70" as="geometry" />
        </mxCell>
        <mxCell id="taeCFyFWrRogax-9pANC-114" value="2,1" style="rounded=0;whiteSpace=wrap;html=1;fillColor=none;strokeWidth=3;strokeColor=#10A8AD;dashed=1;fontFamily=Avenir;fontStyle=1;fontSize=31;fontColor=#10A8AD;" parent="1" vertex="1">
          <mxGeometry x="1460" y="630" width="70" height="70" as="geometry" />
        </mxCell>
        <mxCell id="taeCFyFWrRogax-9pANC-115" value="2,2" style="rounded=0;whiteSpace=wrap;html=1;fillColor=none;strokeWidth=3;strokeColor=#10A8AD;dashed=1;fontFamily=Avenir;fontStyle=1;fontSize=31;fontColor=#10A8AD;" parent="1" vertex="1">
          <mxGeometry x="1460" y="700" width="70" height="70" as="geometry" />
        </mxCell>
        <mxCell id="taeCFyFWrRogax-9pANC-116" value="2,3" style="rounded=0;whiteSpace=wrap;html=1;fillColor=none;strokeWidth=3;strokeColor=#10A8AD;dashed=1;fontFamily=Avenir;fontStyle=1;fontSize=31;fontColor=#10A8AD;" parent="1" vertex="1">
          <mxGeometry x="1460" y="770" width="70" height="70" as="geometry" />
        </mxCell>
        <mxCell id="taeCFyFWrRogax-9pANC-117" value="2,4" style="rounded=0;whiteSpace=wrap;html=1;fillColor=none;strokeWidth=3;strokeColor=#10A8AD;dashed=1;fontFamily=Avenir;fontStyle=1;fontSize=31;fontColor=#10A8AD;" parent="1" vertex="1">
          <mxGeometry x="1460" y="840" width="70" height="70" as="geometry" />
        </mxCell>
        <mxCell id="taeCFyFWrRogax-9pANC-118" value="3,0" style="rounded=0;whiteSpace=wrap;html=1;fillColor=none;strokeWidth=3;strokeColor=#10A8AD;dashed=1;fontFamily=Avenir;fontStyle=1;fontSize=31;fontColor=#10A8AD;" parent="1" vertex="1">
          <mxGeometry x="1530" y="560" width="70" height="70" as="geometry" />
        </mxCell>
        <mxCell id="taeCFyFWrRogax-9pANC-119" value="3,1" style="rounded=0;whiteSpace=wrap;html=1;fillColor=none;strokeWidth=3;strokeColor=#10A8AD;dashed=1;fontFamily=Avenir;fontStyle=1;fontSize=31;fontColor=#10A8AD;" parent="1" vertex="1">
          <mxGeometry x="1530" y="630" width="70" height="70" as="geometry" />
        </mxCell>
        <mxCell id="taeCFyFWrRogax-9pANC-120" value="3,2" style="rounded=0;whiteSpace=wrap;html=1;fillColor=none;strokeWidth=3;strokeColor=#10A8AD;dashed=1;fontFamily=Avenir;fontStyle=1;fontSize=31;fontColor=#10A8AD;" parent="1" vertex="1">
          <mxGeometry x="1530" y="700" width="70" height="70" as="geometry" />
        </mxCell>
        <mxCell id="taeCFyFWrRogax-9pANC-121" value="3,3" style="rounded=0;whiteSpace=wrap;html=1;fillColor=none;strokeWidth=3;strokeColor=#10A8AD;dashed=1;fontFamily=Avenir;fontStyle=1;fontSize=31;fontColor=#10A8AD;" parent="1" vertex="1">
          <mxGeometry x="1530" y="770" width="70" height="70" as="geometry" />
        </mxCell>
        <mxCell id="taeCFyFWrRogax-9pANC-122" value="3,4" style="rounded=0;whiteSpace=wrap;html=1;fillColor=none;strokeWidth=3;strokeColor=#10A8AD;dashed=1;fontFamily=Avenir;fontStyle=1;fontSize=31;fontColor=#10A8AD;" parent="1" vertex="1">
          <mxGeometry x="1530" y="840" width="70" height="70" as="geometry" />
        </mxCell>
        <mxCell id="taeCFyFWrRogax-9pANC-123" value="4,0" style="rounded=0;whiteSpace=wrap;html=1;fillColor=none;strokeWidth=3;strokeColor=#10A8AD;dashed=1;fontFamily=Avenir;fontStyle=1;fontSize=31;fontColor=#10A8AD;" parent="1" vertex="1">
          <mxGeometry x="1600" y="560" width="70" height="70" as="geometry" />
        </mxCell>
        <mxCell id="taeCFyFWrRogax-9pANC-124" value="4,1" style="rounded=0;whiteSpace=wrap;html=1;fillColor=none;strokeWidth=3;strokeColor=#10A8AD;dashed=1;fontFamily=Avenir;fontStyle=1;fontSize=31;fontColor=#10A8AD;" parent="1" vertex="1">
          <mxGeometry x="1600" y="630" width="70" height="70" as="geometry" />
        </mxCell>
        <mxCell id="taeCFyFWrRogax-9pANC-125" value="4,2" style="rounded=0;whiteSpace=wrap;html=1;fillColor=none;strokeWidth=3;strokeColor=#10A8AD;dashed=1;fontFamily=Avenir;fontStyle=1;fontSize=31;fontColor=#10A8AD;" parent="1" vertex="1">
          <mxGeometry x="1600" y="700" width="70" height="70" as="geometry" />
        </mxCell>
        <mxCell id="taeCFyFWrRogax-9pANC-126" value="4,3" style="rounded=0;whiteSpace=wrap;html=1;fillColor=none;strokeWidth=3;strokeColor=#10A8AD;dashed=1;fontFamily=Avenir;fontStyle=1;fontSize=31;fontColor=#10A8AD;" parent="1" vertex="1">
          <mxGeometry x="1600" y="770" width="70" height="70" as="geometry" />
        </mxCell>
        <mxCell id="taeCFyFWrRogax-9pANC-127" value="4,4" style="rounded=0;whiteSpace=wrap;html=1;fillColor=none;strokeWidth=3;strokeColor=#10A8AD;dashed=1;fontFamily=Avenir;fontStyle=1;fontSize=31;fontColor=#10A8AD;" parent="1" vertex="1">
          <mxGeometry x="1600" y="840" width="70" height="70" as="geometry" />
        </mxCell>
        <mxCell id="taeCFyFWrRogax-9pANC-128" value="2" style="rounded=0;html=1;fillColor=#10A8AD;strokeWidth=5;strokeColor=#10A8AD;fontFamily=Avenir;fontStyle=1;fontSize=90;fontColor=#FFFFFF;labelBackgroundColor=none;fillStyle=solid;glass=0;shadow=0;opacity=40;labelBorderColor=none;whiteSpace=wrap;textOpacity=80;" parent="1" vertex="1">
          <mxGeometry x="1320" y="560" width="350" height="350" as="geometry" />
        </mxCell>
        <mxCell id="taeCFyFWrRogax-9pANC-129" value="0,0" style="rounded=0;whiteSpace=wrap;html=1;fillColor=none;strokeWidth=3;strokeColor=#10A8AD;dashed=1;fontFamily=Avenir;fontStyle=1;fontSize=31;fontColor=#10A8AD;" parent="1" vertex="1">
          <mxGeometry x="600" y="920" width="70" height="70" as="geometry" />
        </mxCell>
        <mxCell id="taeCFyFWrRogax-9pANC-130" value="0,1" style="rounded=0;whiteSpace=wrap;html=1;fillColor=none;strokeWidth=3;strokeColor=#10A8AD;dashed=1;fontFamily=Avenir;fontStyle=1;fontSize=31;fontColor=#10A8AD;" parent="1" vertex="1">
          <mxGeometry x="600" y="990" width="70" height="70" as="geometry" />
        </mxCell>
        <mxCell id="taeCFyFWrRogax-9pANC-131" value="0,2" style="rounded=0;whiteSpace=wrap;html=1;fillColor=none;strokeWidth=3;strokeColor=#10A8AD;dashed=1;fontFamily=Avenir;fontStyle=1;fontSize=31;fontColor=#10A8AD;" parent="1" vertex="1">
          <mxGeometry x="600" y="1060" width="70" height="70" as="geometry" />
        </mxCell>
        <mxCell id="taeCFyFWrRogax-9pANC-132" value="0,3" style="rounded=0;whiteSpace=wrap;html=1;fillColor=none;strokeWidth=3;strokeColor=#10A8AD;dashed=1;fontFamily=Avenir;fontStyle=1;fontSize=31;fontColor=#10A8AD;" parent="1" vertex="1">
          <mxGeometry x="600" y="1130" width="70" height="70" as="geometry" />
        </mxCell>
        <mxCell id="taeCFyFWrRogax-9pANC-133" value="0,4" style="rounded=0;whiteSpace=wrap;html=1;fillColor=none;strokeWidth=3;strokeColor=#10A8AD;dashed=1;fontFamily=Avenir;fontStyle=1;fontSize=31;fontColor=#10A8AD;" parent="1" vertex="1">
          <mxGeometry x="600" y="1200" width="70" height="70" as="geometry" />
        </mxCell>
        <mxCell id="taeCFyFWrRogax-9pANC-134" value="1,0" style="rounded=0;whiteSpace=wrap;html=1;fillColor=none;strokeWidth=3;strokeColor=#10A8AD;dashed=1;fontFamily=Avenir;fontStyle=1;fontSize=31;fontColor=#10A8AD;" parent="1" vertex="1">
          <mxGeometry x="670" y="920" width="70" height="70" as="geometry" />
        </mxCell>
        <mxCell id="taeCFyFWrRogax-9pANC-135" value="1,1" style="rounded=0;whiteSpace=wrap;html=1;fillColor=none;strokeWidth=3;strokeColor=#10A8AD;dashed=1;fontFamily=Avenir;fontStyle=1;fontSize=31;fontColor=#10A8AD;" parent="1" vertex="1">
          <mxGeometry x="670" y="990" width="70" height="70" as="geometry" />
        </mxCell>
        <mxCell id="taeCFyFWrRogax-9pANC-136" value="1,2" style="rounded=0;whiteSpace=wrap;html=1;fillColor=none;strokeWidth=3;strokeColor=#10A8AD;dashed=1;fontFamily=Avenir;fontStyle=1;fontSize=31;fontColor=#10A8AD;" parent="1" vertex="1">
          <mxGeometry x="670" y="1060" width="70" height="70" as="geometry" />
        </mxCell>
        <mxCell id="taeCFyFWrRogax-9pANC-137" value="1,3" style="rounded=0;whiteSpace=wrap;html=1;fillColor=none;strokeWidth=3;strokeColor=#10A8AD;dashed=1;fontFamily=Avenir;fontStyle=1;fontSize=31;fontColor=#10A8AD;" parent="1" vertex="1">
          <mxGeometry x="670" y="1130" width="70" height="70" as="geometry" />
        </mxCell>
        <mxCell id="taeCFyFWrRogax-9pANC-138" value="1,4" style="rounded=0;whiteSpace=wrap;html=1;fillColor=none;strokeWidth=3;strokeColor=#10A8AD;dashed=1;fontFamily=Avenir;fontStyle=1;fontSize=31;fontColor=#10A8AD;" parent="1" vertex="1">
          <mxGeometry x="670" y="1200" width="70" height="70" as="geometry" />
        </mxCell>
        <mxCell id="taeCFyFWrRogax-9pANC-139" value="2,0" style="rounded=0;whiteSpace=wrap;html=1;fillColor=none;strokeWidth=3;strokeColor=#10A8AD;dashed=1;fontFamily=Avenir;fontStyle=1;fontSize=31;fontColor=#10A8AD;" parent="1" vertex="1">
          <mxGeometry x="740" y="920" width="70" height="70" as="geometry" />
        </mxCell>
        <mxCell id="taeCFyFWrRogax-9pANC-140" value="2,1" style="rounded=0;whiteSpace=wrap;html=1;fillColor=none;strokeWidth=3;strokeColor=#10A8AD;dashed=1;fontFamily=Avenir;fontStyle=1;fontSize=31;fontColor=#10A8AD;" parent="1" vertex="1">
          <mxGeometry x="740" y="990" width="70" height="70" as="geometry" />
        </mxCell>
        <mxCell id="taeCFyFWrRogax-9pANC-141" value="2,2" style="rounded=0;whiteSpace=wrap;html=1;fillColor=none;strokeWidth=3;strokeColor=#10A8AD;dashed=1;fontFamily=Avenir;fontStyle=1;fontSize=31;fontColor=#10A8AD;" parent="1" vertex="1">
          <mxGeometry x="740" y="1060" width="70" height="70" as="geometry" />
        </mxCell>
        <mxCell id="taeCFyFWrRogax-9pANC-142" value="2,3" style="rounded=0;whiteSpace=wrap;html=1;fillColor=none;strokeWidth=3;strokeColor=#10A8AD;dashed=1;fontFamily=Avenir;fontStyle=1;fontSize=31;fontColor=#10A8AD;" parent="1" vertex="1">
          <mxGeometry x="740" y="1130" width="70" height="70" as="geometry" />
        </mxCell>
        <mxCell id="taeCFyFWrRogax-9pANC-143" value="2,4" style="rounded=0;whiteSpace=wrap;html=1;fillColor=none;strokeWidth=3;strokeColor=#10A8AD;dashed=1;fontFamily=Avenir;fontStyle=1;fontSize=31;fontColor=#10A8AD;" parent="1" vertex="1">
          <mxGeometry x="740" y="1200" width="70" height="70" as="geometry" />
        </mxCell>
        <mxCell id="taeCFyFWrRogax-9pANC-144" value="3,0" style="rounded=0;whiteSpace=wrap;html=1;fillColor=none;strokeWidth=3;strokeColor=#10A8AD;dashed=1;fontFamily=Avenir;fontStyle=1;fontSize=31;fontColor=#10A8AD;" parent="1" vertex="1">
          <mxGeometry x="810" y="920" width="70" height="70" as="geometry" />
        </mxCell>
        <mxCell id="taeCFyFWrRogax-9pANC-145" value="3,1" style="rounded=0;whiteSpace=wrap;html=1;fillColor=none;strokeWidth=3;strokeColor=#10A8AD;dashed=1;fontFamily=Avenir;fontStyle=1;fontSize=31;fontColor=#10A8AD;" parent="1" vertex="1">
          <mxGeometry x="810" y="990" width="70" height="70" as="geometry" />
        </mxCell>
        <mxCell id="taeCFyFWrRogax-9pANC-146" value="3,2" style="rounded=0;whiteSpace=wrap;html=1;fillColor=none;strokeWidth=3;strokeColor=#10A8AD;dashed=1;fontFamily=Avenir;fontStyle=1;fontSize=31;fontColor=#10A8AD;" parent="1" vertex="1">
          <mxGeometry x="810" y="1060" width="70" height="70" as="geometry" />
        </mxCell>
        <mxCell id="taeCFyFWrRogax-9pANC-147" value="3,3" style="rounded=0;whiteSpace=wrap;html=1;fillColor=none;strokeWidth=3;strokeColor=#10A8AD;dashed=1;fontFamily=Avenir;fontStyle=1;fontSize=31;fontColor=#10A8AD;" parent="1" vertex="1">
          <mxGeometry x="810" y="1130" width="70" height="70" as="geometry" />
        </mxCell>
        <mxCell id="taeCFyFWrRogax-9pANC-148" value="3,4" style="rounded=0;whiteSpace=wrap;html=1;fillColor=none;strokeWidth=3;strokeColor=#10A8AD;dashed=1;fontFamily=Avenir;fontStyle=1;fontSize=31;fontColor=#10A8AD;" parent="1" vertex="1">
          <mxGeometry x="810" y="1200" width="70" height="70" as="geometry" />
        </mxCell>
        <mxCell id="taeCFyFWrRogax-9pANC-149" value="4,0" style="rounded=0;whiteSpace=wrap;html=1;fillColor=none;strokeWidth=3;strokeColor=#10A8AD;dashed=1;fontFamily=Avenir;fontStyle=1;fontSize=31;fontColor=#10A8AD;" parent="1" vertex="1">
          <mxGeometry x="880" y="920" width="70" height="70" as="geometry" />
        </mxCell>
        <mxCell id="taeCFyFWrRogax-9pANC-150" value="4,1" style="rounded=0;whiteSpace=wrap;html=1;fillColor=none;strokeWidth=3;strokeColor=#10A8AD;dashed=1;fontFamily=Avenir;fontStyle=1;fontSize=31;fontColor=#10A8AD;" parent="1" vertex="1">
          <mxGeometry x="880" y="990" width="70" height="70" as="geometry" />
        </mxCell>
        <mxCell id="taeCFyFWrRogax-9pANC-151" value="4,2" style="rounded=0;whiteSpace=wrap;html=1;fillColor=none;strokeWidth=3;strokeColor=#10A8AD;dashed=1;fontFamily=Avenir;fontStyle=1;fontSize=31;fontColor=#10A8AD;" parent="1" vertex="1">
          <mxGeometry x="880" y="1060" width="70" height="70" as="geometry" />
        </mxCell>
        <mxCell id="taeCFyFWrRogax-9pANC-152" value="4,3" style="rounded=0;whiteSpace=wrap;html=1;fillColor=none;strokeWidth=3;strokeColor=#10A8AD;dashed=1;fontFamily=Avenir;fontStyle=1;fontSize=31;fontColor=#10A8AD;" parent="1" vertex="1">
          <mxGeometry x="880" y="1130" width="70" height="70" as="geometry" />
        </mxCell>
        <mxCell id="taeCFyFWrRogax-9pANC-153" value="4,4" style="rounded=0;whiteSpace=wrap;html=1;fillColor=none;strokeWidth=3;strokeColor=#10A8AD;dashed=1;fontFamily=Avenir;fontStyle=1;fontSize=31;fontColor=#10A8AD;" parent="1" vertex="1">
          <mxGeometry x="880" y="1200" width="70" height="70" as="geometry" />
        </mxCell>
        <mxCell id="taeCFyFWrRogax-9pANC-154" value="3" style="rounded=0;html=1;fillColor=#10A8AD;strokeWidth=5;strokeColor=#10A8AD;fontFamily=Avenir;fontStyle=1;fontSize=90;fontColor=#FFFFFF;labelBackgroundColor=none;fillStyle=solid;glass=0;shadow=0;opacity=40;labelBorderColor=none;whiteSpace=wrap;textOpacity=80;" parent="1" vertex="1">
          <mxGeometry x="600" y="920" width="350" height="350" as="geometry" />
        </mxCell>
        <mxCell id="taeCFyFWrRogax-9pANC-155" value="0,0" style="rounded=0;whiteSpace=wrap;html=1;fillColor=none;strokeWidth=3;strokeColor=#10A8AD;dashed=1;fontFamily=Avenir;fontStyle=1;fontSize=31;fontColor=#10A8AD;" parent="1" vertex="1">
          <mxGeometry x="1320" y="920" width="70" height="70" as="geometry" />
        </mxCell>
        <mxCell id="taeCFyFWrRogax-9pANC-156" value="0,1" style="rounded=0;whiteSpace=wrap;html=1;fillColor=none;strokeWidth=3;strokeColor=#10A8AD;dashed=1;fontFamily=Avenir;fontStyle=1;fontSize=31;fontColor=#10A8AD;" parent="1" vertex="1">
          <mxGeometry x="1320" y="990" width="70" height="70" as="geometry" />
        </mxCell>
        <mxCell id="taeCFyFWrRogax-9pANC-157" value="0,2" style="rounded=0;whiteSpace=wrap;html=1;fillColor=none;strokeWidth=3;strokeColor=#10A8AD;dashed=1;fontFamily=Avenir;fontStyle=1;fontSize=31;fontColor=#10A8AD;" parent="1" vertex="1">
          <mxGeometry x="1320" y="1060" width="70" height="70" as="geometry" />
        </mxCell>
        <mxCell id="taeCFyFWrRogax-9pANC-158" value="0,3" style="rounded=0;whiteSpace=wrap;html=1;fillColor=none;strokeWidth=3;strokeColor=#10A8AD;dashed=1;fontFamily=Avenir;fontStyle=1;fontSize=31;fontColor=#10A8AD;" parent="1" vertex="1">
          <mxGeometry x="1320" y="1130" width="70" height="70" as="geometry" />
        </mxCell>
        <mxCell id="taeCFyFWrRogax-9pANC-159" value="0,4" style="rounded=0;whiteSpace=wrap;html=1;fillColor=none;strokeWidth=3;strokeColor=#10A8AD;dashed=1;fontFamily=Avenir;fontStyle=1;fontSize=31;fontColor=#10A8AD;" parent="1" vertex="1">
          <mxGeometry x="1320" y="1200" width="70" height="70" as="geometry" />
        </mxCell>
        <mxCell id="taeCFyFWrRogax-9pANC-160" value="1,0" style="rounded=0;whiteSpace=wrap;html=1;fillColor=none;strokeWidth=3;strokeColor=#10A8AD;dashed=1;fontFamily=Avenir;fontStyle=1;fontSize=31;fontColor=#10A8AD;" parent="1" vertex="1">
          <mxGeometry x="1390" y="920" width="70" height="70" as="geometry" />
        </mxCell>
        <mxCell id="taeCFyFWrRogax-9pANC-161" value="1,1" style="rounded=0;whiteSpace=wrap;html=1;fillColor=none;strokeWidth=3;strokeColor=#10A8AD;dashed=1;fontFamily=Avenir;fontStyle=1;fontSize=31;fontColor=#10A8AD;" parent="1" vertex="1">
          <mxGeometry x="1390" y="990" width="70" height="70" as="geometry" />
        </mxCell>
        <mxCell id="taeCFyFWrRogax-9pANC-162" value="1,2" style="rounded=0;whiteSpace=wrap;html=1;fillColor=none;strokeWidth=3;strokeColor=#10A8AD;dashed=1;fontFamily=Avenir;fontStyle=1;fontSize=31;fontColor=#10A8AD;" parent="1" vertex="1">
          <mxGeometry x="1390" y="1060" width="70" height="70" as="geometry" />
        </mxCell>
        <mxCell id="taeCFyFWrRogax-9pANC-163" value="1,3" style="rounded=0;whiteSpace=wrap;html=1;fillColor=none;strokeWidth=3;strokeColor=#10A8AD;dashed=1;fontFamily=Avenir;fontStyle=1;fontSize=31;fontColor=#10A8AD;" parent="1" vertex="1">
          <mxGeometry x="1390" y="1130" width="70" height="70" as="geometry" />
        </mxCell>
        <mxCell id="taeCFyFWrRogax-9pANC-164" value="1,4" style="rounded=0;whiteSpace=wrap;html=1;fillColor=none;strokeWidth=3;strokeColor=#10A8AD;dashed=1;fontFamily=Avenir;fontStyle=1;fontSize=31;fontColor=#10A8AD;" parent="1" vertex="1">
          <mxGeometry x="1390" y="1200" width="70" height="70" as="geometry" />
        </mxCell>
        <mxCell id="taeCFyFWrRogax-9pANC-165" value="2,0" style="rounded=0;whiteSpace=wrap;html=1;fillColor=none;strokeWidth=3;strokeColor=#10A8AD;dashed=1;fontFamily=Avenir;fontStyle=1;fontSize=31;fontColor=#10A8AD;" parent="1" vertex="1">
          <mxGeometry x="1460" y="920" width="70" height="70" as="geometry" />
        </mxCell>
        <mxCell id="taeCFyFWrRogax-9pANC-166" value="2,1" style="rounded=0;whiteSpace=wrap;html=1;fillColor=none;strokeWidth=3;strokeColor=#10A8AD;dashed=1;fontFamily=Avenir;fontStyle=1;fontSize=31;fontColor=#10A8AD;" parent="1" vertex="1">
          <mxGeometry x="1460" y="990" width="70" height="70" as="geometry" />
        </mxCell>
        <mxCell id="taeCFyFWrRogax-9pANC-167" value="2,2" style="rounded=0;whiteSpace=wrap;html=1;fillColor=none;strokeWidth=3;strokeColor=#10A8AD;dashed=1;fontFamily=Avenir;fontStyle=1;fontSize=31;fontColor=#10A8AD;" parent="1" vertex="1">
          <mxGeometry x="1460" y="1060" width="70" height="70" as="geometry" />
        </mxCell>
        <mxCell id="taeCFyFWrRogax-9pANC-168" value="2,3" style="rounded=0;whiteSpace=wrap;html=1;fillColor=none;strokeWidth=3;strokeColor=#10A8AD;dashed=1;fontFamily=Avenir;fontStyle=1;fontSize=31;fontColor=#10A8AD;" parent="1" vertex="1">
          <mxGeometry x="1460" y="1130" width="70" height="70" as="geometry" />
        </mxCell>
        <mxCell id="taeCFyFWrRogax-9pANC-169" value="2,4" style="rounded=0;whiteSpace=wrap;html=1;fillColor=none;strokeWidth=3;strokeColor=#10A8AD;dashed=1;fontFamily=Avenir;fontStyle=1;fontSize=31;fontColor=#10A8AD;" parent="1" vertex="1">
          <mxGeometry x="1460" y="1200" width="70" height="70" as="geometry" />
        </mxCell>
        <mxCell id="taeCFyFWrRogax-9pANC-170" value="3,0" style="rounded=0;whiteSpace=wrap;html=1;fillColor=none;strokeWidth=3;strokeColor=#10A8AD;dashed=1;fontFamily=Avenir;fontStyle=1;fontSize=31;fontColor=#10A8AD;" parent="1" vertex="1">
          <mxGeometry x="1530" y="920" width="70" height="70" as="geometry" />
        </mxCell>
        <mxCell id="taeCFyFWrRogax-9pANC-171" value="3,1" style="rounded=0;whiteSpace=wrap;html=1;fillColor=none;strokeWidth=3;strokeColor=#10A8AD;dashed=1;fontFamily=Avenir;fontStyle=1;fontSize=31;fontColor=#10A8AD;" parent="1" vertex="1">
          <mxGeometry x="1530" y="990" width="70" height="70" as="geometry" />
        </mxCell>
        <mxCell id="taeCFyFWrRogax-9pANC-172" value="3,2" style="rounded=0;whiteSpace=wrap;html=1;fillColor=none;strokeWidth=3;strokeColor=#10A8AD;dashed=1;fontFamily=Avenir;fontStyle=1;fontSize=31;fontColor=#10A8AD;" parent="1" vertex="1">
          <mxGeometry x="1530" y="1060" width="70" height="70" as="geometry" />
        </mxCell>
        <mxCell id="taeCFyFWrRogax-9pANC-173" value="3,3" style="rounded=0;whiteSpace=wrap;html=1;fillColor=none;strokeWidth=3;strokeColor=#10A8AD;dashed=1;fontFamily=Avenir;fontStyle=1;fontSize=31;fontColor=#10A8AD;" parent="1" vertex="1">
          <mxGeometry x="1530" y="1130" width="70" height="70" as="geometry" />
        </mxCell>
        <mxCell id="taeCFyFWrRogax-9pANC-174" value="3,4" style="rounded=0;whiteSpace=wrap;html=1;fillColor=none;strokeWidth=3;strokeColor=#10A8AD;dashed=1;fontFamily=Avenir;fontStyle=1;fontSize=31;fontColor=#10A8AD;" parent="1" vertex="1">
          <mxGeometry x="1530" y="1200" width="70" height="70" as="geometry" />
        </mxCell>
        <mxCell id="taeCFyFWrRogax-9pANC-175" value="4,0" style="rounded=0;whiteSpace=wrap;html=1;fillColor=none;strokeWidth=3;strokeColor=#10A8AD;dashed=1;fontFamily=Avenir;fontStyle=1;fontSize=31;fontColor=#10A8AD;" parent="1" vertex="1">
          <mxGeometry x="1600" y="920" width="70" height="70" as="geometry" />
        </mxCell>
        <mxCell id="taeCFyFWrRogax-9pANC-176" value="4,1" style="rounded=0;whiteSpace=wrap;html=1;fillColor=none;strokeWidth=3;strokeColor=#10A8AD;dashed=1;fontFamily=Avenir;fontStyle=1;fontSize=31;fontColor=#10A8AD;" parent="1" vertex="1">
          <mxGeometry x="1600" y="990" width="70" height="70" as="geometry" />
        </mxCell>
        <mxCell id="taeCFyFWrRogax-9pANC-177" value="4,2" style="rounded=0;whiteSpace=wrap;html=1;fillColor=none;strokeWidth=3;strokeColor=#10A8AD;dashed=1;fontFamily=Avenir;fontStyle=1;fontSize=31;fontColor=#10A8AD;" parent="1" vertex="1">
          <mxGeometry x="1600" y="1060" width="70" height="70" as="geometry" />
        </mxCell>
        <mxCell id="taeCFyFWrRogax-9pANC-178" value="4,3" style="rounded=0;whiteSpace=wrap;html=1;fillColor=none;strokeWidth=3;strokeColor=#10A8AD;dashed=1;fontFamily=Avenir;fontStyle=1;fontSize=31;fontColor=#10A8AD;" parent="1" vertex="1">
          <mxGeometry x="1600" y="1130" width="70" height="70" as="geometry" />
        </mxCell>
        <mxCell id="taeCFyFWrRogax-9pANC-179" value="4,4" style="rounded=0;whiteSpace=wrap;html=1;fillColor=none;strokeWidth=3;strokeColor=#10A8AD;dashed=1;fontFamily=Avenir;fontStyle=1;fontSize=31;fontColor=#10A8AD;" parent="1" vertex="1">
          <mxGeometry x="1600" y="1200" width="70" height="70" as="geometry" />
        </mxCell>
        <mxCell id="taeCFyFWrRogax-9pANC-180" value="5" style="rounded=0;html=1;fillColor=#10A8AD;strokeWidth=5;strokeColor=#10A8AD;fontFamily=Avenir;fontStyle=1;fontSize=90;fontColor=#FFFFFF;labelBackgroundColor=none;fillStyle=solid;glass=0;shadow=0;opacity=40;labelBorderColor=none;whiteSpace=wrap;textOpacity=80;" parent="1" vertex="1">
          <mxGeometry x="1320" y="920" width="350" height="350" as="geometry" />
        </mxCell>
        <mxCell id="taeCFyFWrRogax-9pANC-181" value="0,0" style="rounded=0;whiteSpace=wrap;html=1;fillColor=none;strokeWidth=3;strokeColor=#10A8AD;dashed=1;fontFamily=Avenir;fontStyle=1;fontSize=31;fontColor=#10A8AD;" parent="1" vertex="1">
          <mxGeometry x="600" y="1280" width="70" height="70" as="geometry" />
        </mxCell>
        <mxCell id="taeCFyFWrRogax-9pANC-182" value="0,1" style="rounded=0;whiteSpace=wrap;html=1;fillColor=none;strokeWidth=3;strokeColor=#10A8AD;dashed=1;fontFamily=Avenir;fontStyle=1;fontSize=31;fontColor=#10A8AD;" parent="1" vertex="1">
          <mxGeometry x="600" y="1350" width="70" height="70" as="geometry" />
        </mxCell>
        <mxCell id="taeCFyFWrRogax-9pANC-183" value="0,2" style="rounded=0;whiteSpace=wrap;html=1;fillColor=none;strokeWidth=3;strokeColor=#10A8AD;dashed=1;fontFamily=Avenir;fontStyle=1;fontSize=31;fontColor=#10A8AD;" parent="1" vertex="1">
          <mxGeometry x="600" y="1420" width="70" height="70" as="geometry" />
        </mxCell>
        <mxCell id="taeCFyFWrRogax-9pANC-184" value="0,3" style="rounded=0;whiteSpace=wrap;html=1;fillColor=none;strokeWidth=3;strokeColor=#10A8AD;dashed=1;fontFamily=Avenir;fontStyle=1;fontSize=31;fontColor=#10A8AD;" parent="1" vertex="1">
          <mxGeometry x="600" y="1490" width="70" height="70" as="geometry" />
        </mxCell>
        <mxCell id="taeCFyFWrRogax-9pANC-185" value="0,4" style="rounded=0;whiteSpace=wrap;html=1;fillColor=none;strokeWidth=3;strokeColor=#10A8AD;dashed=1;fontFamily=Avenir;fontStyle=1;fontSize=31;fontColor=#10A8AD;" parent="1" vertex="1">
          <mxGeometry x="600" y="1560" width="70" height="70" as="geometry" />
        </mxCell>
        <mxCell id="taeCFyFWrRogax-9pANC-186" value="1,0" style="rounded=0;whiteSpace=wrap;html=1;fillColor=none;strokeWidth=3;strokeColor=#10A8AD;dashed=1;fontFamily=Avenir;fontStyle=1;fontSize=31;fontColor=#10A8AD;" parent="1" vertex="1">
          <mxGeometry x="670" y="1280" width="70" height="70" as="geometry" />
        </mxCell>
        <mxCell id="taeCFyFWrRogax-9pANC-187" value="1,1" style="rounded=0;whiteSpace=wrap;html=1;fillColor=none;strokeWidth=3;strokeColor=#10A8AD;dashed=1;fontFamily=Avenir;fontStyle=1;fontSize=31;fontColor=#10A8AD;" parent="1" vertex="1">
          <mxGeometry x="670" y="1350" width="70" height="70" as="geometry" />
        </mxCell>
        <mxCell id="taeCFyFWrRogax-9pANC-188" value="1,2" style="rounded=0;whiteSpace=wrap;html=1;fillColor=none;strokeWidth=3;strokeColor=#10A8AD;dashed=1;fontFamily=Avenir;fontStyle=1;fontSize=31;fontColor=#10A8AD;" parent="1" vertex="1">
          <mxGeometry x="670" y="1420" width="70" height="70" as="geometry" />
        </mxCell>
        <mxCell id="taeCFyFWrRogax-9pANC-189" value="1,3" style="rounded=0;whiteSpace=wrap;html=1;fillColor=none;strokeWidth=3;strokeColor=#10A8AD;dashed=1;fontFamily=Avenir;fontStyle=1;fontSize=31;fontColor=#10A8AD;" parent="1" vertex="1">
          <mxGeometry x="670" y="1490" width="70" height="70" as="geometry" />
        </mxCell>
        <mxCell id="taeCFyFWrRogax-9pANC-190" value="1,4" style="rounded=0;whiteSpace=wrap;html=1;fillColor=none;strokeWidth=3;strokeColor=#10A8AD;dashed=1;fontFamily=Avenir;fontStyle=1;fontSize=31;fontColor=#10A8AD;" parent="1" vertex="1">
          <mxGeometry x="670" y="1560" width="70" height="70" as="geometry" />
        </mxCell>
        <mxCell id="taeCFyFWrRogax-9pANC-191" value="2,0" style="rounded=0;whiteSpace=wrap;html=1;fillColor=none;strokeWidth=3;strokeColor=#10A8AD;dashed=1;fontFamily=Avenir;fontStyle=1;fontSize=31;fontColor=#10A8AD;" parent="1" vertex="1">
          <mxGeometry x="740" y="1280" width="70" height="70" as="geometry" />
        </mxCell>
        <mxCell id="taeCFyFWrRogax-9pANC-192" value="2,1" style="rounded=0;whiteSpace=wrap;html=1;fillColor=none;strokeWidth=3;strokeColor=#10A8AD;dashed=1;fontFamily=Avenir;fontStyle=1;fontSize=31;fontColor=#10A8AD;" parent="1" vertex="1">
          <mxGeometry x="740" y="1350" width="70" height="70" as="geometry" />
        </mxCell>
        <mxCell id="taeCFyFWrRogax-9pANC-193" value="2,2" style="rounded=0;whiteSpace=wrap;html=1;fillColor=none;strokeWidth=3;strokeColor=#10A8AD;dashed=1;fontFamily=Avenir;fontStyle=1;fontSize=31;fontColor=#10A8AD;" parent="1" vertex="1">
          <mxGeometry x="740" y="1420" width="70" height="70" as="geometry" />
        </mxCell>
        <mxCell id="taeCFyFWrRogax-9pANC-194" value="2,3" style="rounded=0;whiteSpace=wrap;html=1;fillColor=none;strokeWidth=3;strokeColor=#10A8AD;dashed=1;fontFamily=Avenir;fontStyle=1;fontSize=31;fontColor=#10A8AD;" parent="1" vertex="1">
          <mxGeometry x="740" y="1490" width="70" height="70" as="geometry" />
        </mxCell>
        <mxCell id="taeCFyFWrRogax-9pANC-195" value="2,4" style="rounded=0;whiteSpace=wrap;html=1;fillColor=none;strokeWidth=3;strokeColor=#10A8AD;dashed=1;fontFamily=Avenir;fontStyle=1;fontSize=31;fontColor=#10A8AD;" parent="1" vertex="1">
          <mxGeometry x="740" y="1560" width="70" height="70" as="geometry" />
        </mxCell>
        <mxCell id="taeCFyFWrRogax-9pANC-196" value="3,0" style="rounded=0;whiteSpace=wrap;html=1;fillColor=none;strokeWidth=3;strokeColor=#10A8AD;dashed=1;fontFamily=Avenir;fontStyle=1;fontSize=31;fontColor=#10A8AD;" parent="1" vertex="1">
          <mxGeometry x="810" y="1280" width="70" height="70" as="geometry" />
        </mxCell>
        <mxCell id="taeCFyFWrRogax-9pANC-197" value="3,1" style="rounded=0;whiteSpace=wrap;html=1;fillColor=none;strokeWidth=3;strokeColor=#10A8AD;dashed=1;fontFamily=Avenir;fontStyle=1;fontSize=31;fontColor=#10A8AD;" parent="1" vertex="1">
          <mxGeometry x="810" y="1350" width="70" height="70" as="geometry" />
        </mxCell>
        <mxCell id="taeCFyFWrRogax-9pANC-198" value="3,2" style="rounded=0;whiteSpace=wrap;html=1;fillColor=none;strokeWidth=3;strokeColor=#10A8AD;dashed=1;fontFamily=Avenir;fontStyle=1;fontSize=31;fontColor=#10A8AD;" parent="1" vertex="1">
          <mxGeometry x="810" y="1420" width="70" height="70" as="geometry" />
        </mxCell>
        <mxCell id="taeCFyFWrRogax-9pANC-199" value="3,3" style="rounded=0;whiteSpace=wrap;html=1;fillColor=none;strokeWidth=3;strokeColor=#10A8AD;dashed=1;fontFamily=Avenir;fontStyle=1;fontSize=31;fontColor=#10A8AD;" parent="1" vertex="1">
          <mxGeometry x="810" y="1490" width="70" height="70" as="geometry" />
        </mxCell>
        <mxCell id="taeCFyFWrRogax-9pANC-200" value="3,4" style="rounded=0;whiteSpace=wrap;html=1;fillColor=none;strokeWidth=3;strokeColor=#10A8AD;dashed=1;fontFamily=Avenir;fontStyle=1;fontSize=31;fontColor=#10A8AD;" parent="1" vertex="1">
          <mxGeometry x="810" y="1560" width="70" height="70" as="geometry" />
        </mxCell>
        <mxCell id="taeCFyFWrRogax-9pANC-201" value="4,0" style="rounded=0;whiteSpace=wrap;html=1;fillColor=none;strokeWidth=3;strokeColor=#10A8AD;dashed=1;fontFamily=Avenir;fontStyle=1;fontSize=31;fontColor=#10A8AD;" parent="1" vertex="1">
          <mxGeometry x="880" y="1280" width="70" height="70" as="geometry" />
        </mxCell>
        <mxCell id="taeCFyFWrRogax-9pANC-202" value="4,1" style="rounded=0;whiteSpace=wrap;html=1;fillColor=none;strokeWidth=3;strokeColor=#10A8AD;dashed=1;fontFamily=Avenir;fontStyle=1;fontSize=31;fontColor=#10A8AD;" parent="1" vertex="1">
          <mxGeometry x="880" y="1350" width="70" height="70" as="geometry" />
        </mxCell>
        <mxCell id="taeCFyFWrRogax-9pANC-203" value="4,2" style="rounded=0;whiteSpace=wrap;html=1;fillColor=none;strokeWidth=3;strokeColor=#10A8AD;dashed=1;fontFamily=Avenir;fontStyle=1;fontSize=31;fontColor=#10A8AD;" parent="1" vertex="1">
          <mxGeometry x="880" y="1420" width="70" height="70" as="geometry" />
        </mxCell>
        <mxCell id="taeCFyFWrRogax-9pANC-204" value="4,3" style="rounded=0;whiteSpace=wrap;html=1;fillColor=none;strokeWidth=3;strokeColor=#10A8AD;dashed=1;fontFamily=Avenir;fontStyle=1;fontSize=31;fontColor=#10A8AD;" parent="1" vertex="1">
          <mxGeometry x="880" y="1490" width="70" height="70" as="geometry" />
        </mxCell>
        <mxCell id="taeCFyFWrRogax-9pANC-205" value="4,4" style="rounded=0;whiteSpace=wrap;html=1;fillColor=none;strokeWidth=3;strokeColor=#10A8AD;dashed=1;fontFamily=Avenir;fontStyle=1;fontSize=31;fontColor=#10A8AD;" parent="1" vertex="1">
          <mxGeometry x="880" y="1560" width="70" height="70" as="geometry" />
        </mxCell>
        <mxCell id="taeCFyFWrRogax-9pANC-206" value="6" style="rounded=0;html=1;fillColor=#10A8AD;strokeWidth=5;strokeColor=#10A8AD;fontFamily=Avenir;fontStyle=1;fontSize=90;fontColor=#FFFFFF;labelBackgroundColor=none;fillStyle=solid;glass=0;shadow=0;opacity=40;labelBorderColor=none;whiteSpace=wrap;textOpacity=80;" parent="1" vertex="1">
          <mxGeometry x="600" y="1280" width="350" height="350" as="geometry" />
        </mxCell>
        <mxCell id="taeCFyFWrRogax-9pANC-207" value="0,0" style="rounded=0;whiteSpace=wrap;html=1;fillColor=none;strokeWidth=3;strokeColor=#10A8AD;dashed=1;fontFamily=Avenir;fontStyle=1;fontSize=31;fontColor=#10A8AD;" parent="1" vertex="1">
          <mxGeometry x="960" y="1280" width="70" height="70" as="geometry" />
        </mxCell>
        <mxCell id="taeCFyFWrRogax-9pANC-208" value="0,1" style="rounded=0;whiteSpace=wrap;html=1;fillColor=none;strokeWidth=3;strokeColor=#10A8AD;dashed=1;fontFamily=Avenir;fontStyle=1;fontSize=31;fontColor=#10A8AD;" parent="1" vertex="1">
          <mxGeometry x="960" y="1350" width="70" height="70" as="geometry" />
        </mxCell>
        <mxCell id="taeCFyFWrRogax-9pANC-209" value="0,2" style="rounded=0;whiteSpace=wrap;html=1;fillColor=none;strokeWidth=3;strokeColor=#10A8AD;dashed=1;fontFamily=Avenir;fontStyle=1;fontSize=31;fontColor=#10A8AD;" parent="1" vertex="1">
          <mxGeometry x="960" y="1420" width="70" height="70" as="geometry" />
        </mxCell>
        <mxCell id="taeCFyFWrRogax-9pANC-210" value="0,3" style="rounded=0;whiteSpace=wrap;html=1;fillColor=none;strokeWidth=3;strokeColor=#10A8AD;dashed=1;fontFamily=Avenir;fontStyle=1;fontSize=31;fontColor=#10A8AD;" parent="1" vertex="1">
          <mxGeometry x="960" y="1490" width="70" height="70" as="geometry" />
        </mxCell>
        <mxCell id="taeCFyFWrRogax-9pANC-211" value="0,4" style="rounded=0;whiteSpace=wrap;html=1;fillColor=none;strokeWidth=3;strokeColor=#10A8AD;dashed=1;fontFamily=Avenir;fontStyle=1;fontSize=31;fontColor=#10A8AD;" parent="1" vertex="1">
          <mxGeometry x="960" y="1560" width="70" height="70" as="geometry" />
        </mxCell>
        <mxCell id="taeCFyFWrRogax-9pANC-212" value="1,0" style="rounded=0;whiteSpace=wrap;html=1;fillColor=none;strokeWidth=3;strokeColor=#10A8AD;dashed=1;fontFamily=Avenir;fontStyle=1;fontSize=31;fontColor=#10A8AD;" parent="1" vertex="1">
          <mxGeometry x="1030" y="1280" width="70" height="70" as="geometry" />
        </mxCell>
        <mxCell id="taeCFyFWrRogax-9pANC-213" value="1,1" style="rounded=0;whiteSpace=wrap;html=1;fillColor=none;strokeWidth=3;strokeColor=#10A8AD;dashed=1;fontFamily=Avenir;fontStyle=1;fontSize=31;fontColor=#10A8AD;" parent="1" vertex="1">
          <mxGeometry x="1030" y="1350" width="70" height="70" as="geometry" />
        </mxCell>
        <mxCell id="taeCFyFWrRogax-9pANC-214" value="1,2" style="rounded=0;whiteSpace=wrap;html=1;fillColor=none;strokeWidth=3;strokeColor=#10A8AD;dashed=1;fontFamily=Avenir;fontStyle=1;fontSize=31;fontColor=#10A8AD;" parent="1" vertex="1">
          <mxGeometry x="1030" y="1420" width="70" height="70" as="geometry" />
        </mxCell>
        <mxCell id="taeCFyFWrRogax-9pANC-215" value="1,3" style="rounded=0;whiteSpace=wrap;html=1;fillColor=none;strokeWidth=3;strokeColor=#10A8AD;dashed=1;fontFamily=Avenir;fontStyle=1;fontSize=31;fontColor=#10A8AD;" parent="1" vertex="1">
          <mxGeometry x="1030" y="1490" width="70" height="70" as="geometry" />
        </mxCell>
        <mxCell id="taeCFyFWrRogax-9pANC-216" value="1,4" style="rounded=0;whiteSpace=wrap;html=1;fillColor=none;strokeWidth=3;strokeColor=#10A8AD;dashed=1;fontFamily=Avenir;fontStyle=1;fontSize=31;fontColor=#10A8AD;" parent="1" vertex="1">
          <mxGeometry x="1030" y="1560" width="70" height="70" as="geometry" />
        </mxCell>
        <mxCell id="taeCFyFWrRogax-9pANC-217" value="2,0" style="rounded=0;whiteSpace=wrap;html=1;fillColor=none;strokeWidth=3;strokeColor=#10A8AD;dashed=1;fontFamily=Avenir;fontStyle=1;fontSize=31;fontColor=#10A8AD;" parent="1" vertex="1">
          <mxGeometry x="1100" y="1280" width="70" height="70" as="geometry" />
        </mxCell>
        <mxCell id="taeCFyFWrRogax-9pANC-218" value="2,1" style="rounded=0;whiteSpace=wrap;html=1;fillColor=none;strokeWidth=3;strokeColor=#10A8AD;dashed=1;fontFamily=Avenir;fontStyle=1;fontSize=31;fontColor=#10A8AD;" parent="1" vertex="1">
          <mxGeometry x="1100" y="1350" width="70" height="70" as="geometry" />
        </mxCell>
        <mxCell id="taeCFyFWrRogax-9pANC-219" value="2,2" style="rounded=0;whiteSpace=wrap;html=1;fillColor=none;strokeWidth=3;strokeColor=#10A8AD;dashed=1;fontFamily=Avenir;fontStyle=1;fontSize=31;fontColor=#10A8AD;" parent="1" vertex="1">
          <mxGeometry x="1100" y="1420" width="70" height="70" as="geometry" />
        </mxCell>
        <mxCell id="taeCFyFWrRogax-9pANC-220" value="2,3" style="rounded=0;whiteSpace=wrap;html=1;fillColor=none;strokeWidth=3;strokeColor=#10A8AD;dashed=1;fontFamily=Avenir;fontStyle=1;fontSize=31;fontColor=#10A8AD;" parent="1" vertex="1">
          <mxGeometry x="1100" y="1490" width="70" height="70" as="geometry" />
        </mxCell>
        <mxCell id="taeCFyFWrRogax-9pANC-221" value="2,4" style="rounded=0;whiteSpace=wrap;html=1;fillColor=none;strokeWidth=3;strokeColor=#10A8AD;dashed=1;fontFamily=Avenir;fontStyle=1;fontSize=31;fontColor=#10A8AD;" parent="1" vertex="1">
          <mxGeometry x="1100" y="1560" width="70" height="70" as="geometry" />
        </mxCell>
        <mxCell id="taeCFyFWrRogax-9pANC-222" value="3,0" style="rounded=0;whiteSpace=wrap;html=1;fillColor=none;strokeWidth=3;strokeColor=#10A8AD;dashed=1;fontFamily=Avenir;fontStyle=1;fontSize=31;fontColor=#10A8AD;" parent="1" vertex="1">
          <mxGeometry x="1170" y="1280" width="70" height="70" as="geometry" />
        </mxCell>
        <mxCell id="taeCFyFWrRogax-9pANC-223" value="3,1" style="rounded=0;whiteSpace=wrap;html=1;fillColor=none;strokeWidth=3;strokeColor=#10A8AD;dashed=1;fontFamily=Avenir;fontStyle=1;fontSize=31;fontColor=#10A8AD;" parent="1" vertex="1">
          <mxGeometry x="1170" y="1350" width="70" height="70" as="geometry" />
        </mxCell>
        <mxCell id="taeCFyFWrRogax-9pANC-224" value="3,2" style="rounded=0;whiteSpace=wrap;html=1;fillColor=none;strokeWidth=3;strokeColor=#10A8AD;dashed=1;fontFamily=Avenir;fontStyle=1;fontSize=31;fontColor=#10A8AD;" parent="1" vertex="1">
          <mxGeometry x="1170" y="1420" width="70" height="70" as="geometry" />
        </mxCell>
        <mxCell id="taeCFyFWrRogax-9pANC-225" value="3,3" style="rounded=0;whiteSpace=wrap;html=1;fillColor=none;strokeWidth=3;strokeColor=#10A8AD;dashed=1;fontFamily=Avenir;fontStyle=1;fontSize=31;fontColor=#10A8AD;" parent="1" vertex="1">
          <mxGeometry x="1170" y="1490" width="70" height="70" as="geometry" />
        </mxCell>
        <mxCell id="taeCFyFWrRogax-9pANC-226" value="3,4" style="rounded=0;whiteSpace=wrap;html=1;fillColor=none;strokeWidth=3;strokeColor=#10A8AD;dashed=1;fontFamily=Avenir;fontStyle=1;fontSize=31;fontColor=#10A8AD;" parent="1" vertex="1">
          <mxGeometry x="1170" y="1560" width="70" height="70" as="geometry" />
        </mxCell>
        <mxCell id="taeCFyFWrRogax-9pANC-227" value="4,0" style="rounded=0;whiteSpace=wrap;html=1;fillColor=none;strokeWidth=3;strokeColor=#10A8AD;dashed=1;fontFamily=Avenir;fontStyle=1;fontSize=31;fontColor=#10A8AD;" parent="1" vertex="1">
          <mxGeometry x="1240" y="1280" width="70" height="70" as="geometry" />
        </mxCell>
        <mxCell id="taeCFyFWrRogax-9pANC-228" value="4,1" style="rounded=0;whiteSpace=wrap;html=1;fillColor=none;strokeWidth=3;strokeColor=#10A8AD;dashed=1;fontFamily=Avenir;fontStyle=1;fontSize=31;fontColor=#10A8AD;" parent="1" vertex="1">
          <mxGeometry x="1240" y="1350" width="70" height="70" as="geometry" />
        </mxCell>
        <mxCell id="taeCFyFWrRogax-9pANC-229" value="4,2" style="rounded=0;whiteSpace=wrap;html=1;fillColor=none;strokeWidth=3;strokeColor=#10A8AD;dashed=1;fontFamily=Avenir;fontStyle=1;fontSize=31;fontColor=#10A8AD;" parent="1" vertex="1">
          <mxGeometry x="1240" y="1420" width="70" height="70" as="geometry" />
        </mxCell>
        <mxCell id="taeCFyFWrRogax-9pANC-230" value="4,3" style="rounded=0;whiteSpace=wrap;html=1;fillColor=none;strokeWidth=3;strokeColor=#10A8AD;dashed=1;fontFamily=Avenir;fontStyle=1;fontSize=31;fontColor=#10A8AD;" parent="1" vertex="1">
          <mxGeometry x="1240" y="1490" width="70" height="70" as="geometry" />
        </mxCell>
        <mxCell id="taeCFyFWrRogax-9pANC-231" value="4,4" style="rounded=0;whiteSpace=wrap;html=1;fillColor=none;strokeWidth=3;strokeColor=#10A8AD;dashed=1;fontFamily=Avenir;fontStyle=1;fontSize=31;fontColor=#10A8AD;" parent="1" vertex="1">
          <mxGeometry x="1240" y="1560" width="70" height="70" as="geometry" />
        </mxCell>
        <mxCell id="taeCFyFWrRogax-9pANC-232" value="7" style="rounded=0;html=1;fillColor=#10A8AD;strokeWidth=5;strokeColor=#10A8AD;fontFamily=Avenir;fontStyle=1;fontSize=90;fontColor=#FFFFFF;labelBackgroundColor=none;fillStyle=solid;glass=0;shadow=0;opacity=40;labelBorderColor=none;whiteSpace=wrap;textOpacity=80;" parent="1" vertex="1">
          <mxGeometry x="960" y="1280" width="350" height="350" as="geometry" />
        </mxCell>
        <mxCell id="taeCFyFWrRogax-9pANC-233" value="0,0" style="rounded=0;whiteSpace=wrap;html=1;fillColor=none;strokeWidth=3;strokeColor=#10A8AD;dashed=1;fontFamily=Avenir;fontStyle=1;fontSize=31;fontColor=#10A8AD;" parent="1" vertex="1">
          <mxGeometry x="1320" y="1280" width="70" height="70" as="geometry" />
        </mxCell>
        <mxCell id="taeCFyFWrRogax-9pANC-234" value="0,1" style="rounded=0;whiteSpace=wrap;html=1;fillColor=none;strokeWidth=3;strokeColor=#10A8AD;dashed=1;fontFamily=Avenir;fontStyle=1;fontSize=31;fontColor=#10A8AD;" parent="1" vertex="1">
          <mxGeometry x="1320" y="1350" width="70" height="70" as="geometry" />
        </mxCell>
        <mxCell id="taeCFyFWrRogax-9pANC-235" value="0,2" style="rounded=0;whiteSpace=wrap;html=1;fillColor=none;strokeWidth=3;strokeColor=#10A8AD;dashed=1;fontFamily=Avenir;fontStyle=1;fontSize=31;fontColor=#10A8AD;" parent="1" vertex="1">
          <mxGeometry x="1320" y="1420" width="70" height="70" as="geometry" />
        </mxCell>
        <mxCell id="taeCFyFWrRogax-9pANC-236" value="0,3" style="rounded=0;whiteSpace=wrap;html=1;fillColor=none;strokeWidth=3;strokeColor=#10A8AD;dashed=1;fontFamily=Avenir;fontStyle=1;fontSize=31;fontColor=#10A8AD;" parent="1" vertex="1">
          <mxGeometry x="1320" y="1490" width="70" height="70" as="geometry" />
        </mxCell>
        <mxCell id="taeCFyFWrRogax-9pANC-237" value="0,4" style="rounded=0;whiteSpace=wrap;html=1;fillColor=none;strokeWidth=3;strokeColor=#10A8AD;dashed=1;fontFamily=Avenir;fontStyle=1;fontSize=31;fontColor=#10A8AD;" parent="1" vertex="1">
          <mxGeometry x="1320" y="1560" width="70" height="70" as="geometry" />
        </mxCell>
        <mxCell id="taeCFyFWrRogax-9pANC-238" value="1,0" style="rounded=0;whiteSpace=wrap;html=1;fillColor=none;strokeWidth=3;strokeColor=#10A8AD;dashed=1;fontFamily=Avenir;fontStyle=1;fontSize=31;fontColor=#10A8AD;" parent="1" vertex="1">
          <mxGeometry x="1390" y="1280" width="70" height="70" as="geometry" />
        </mxCell>
        <mxCell id="taeCFyFWrRogax-9pANC-239" value="1,1" style="rounded=0;whiteSpace=wrap;html=1;fillColor=none;strokeWidth=3;strokeColor=#10A8AD;dashed=1;fontFamily=Avenir;fontStyle=1;fontSize=31;fontColor=#10A8AD;" parent="1" vertex="1">
          <mxGeometry x="1390" y="1350" width="70" height="70" as="geometry" />
        </mxCell>
        <mxCell id="taeCFyFWrRogax-9pANC-240" value="1,2" style="rounded=0;whiteSpace=wrap;html=1;fillColor=none;strokeWidth=3;strokeColor=#10A8AD;dashed=1;fontFamily=Avenir;fontStyle=1;fontSize=31;fontColor=#10A8AD;" parent="1" vertex="1">
          <mxGeometry x="1390" y="1420" width="70" height="70" as="geometry" />
        </mxCell>
        <mxCell id="taeCFyFWrRogax-9pANC-241" value="1,3" style="rounded=0;whiteSpace=wrap;html=1;fillColor=none;strokeWidth=3;strokeColor=#10A8AD;dashed=1;fontFamily=Avenir;fontStyle=1;fontSize=31;fontColor=#10A8AD;" parent="1" vertex="1">
          <mxGeometry x="1390" y="1490" width="70" height="70" as="geometry" />
        </mxCell>
        <mxCell id="taeCFyFWrRogax-9pANC-242" value="1,4" style="rounded=0;whiteSpace=wrap;html=1;fillColor=none;strokeWidth=3;strokeColor=#10A8AD;dashed=1;fontFamily=Avenir;fontStyle=1;fontSize=31;fontColor=#10A8AD;" parent="1" vertex="1">
          <mxGeometry x="1390" y="1560" width="70" height="70" as="geometry" />
        </mxCell>
        <mxCell id="taeCFyFWrRogax-9pANC-243" value="2,0" style="rounded=0;whiteSpace=wrap;html=1;fillColor=none;strokeWidth=3;strokeColor=#10A8AD;dashed=1;fontFamily=Avenir;fontStyle=1;fontSize=31;fontColor=#10A8AD;" parent="1" vertex="1">
          <mxGeometry x="1460" y="1280" width="70" height="70" as="geometry" />
        </mxCell>
        <mxCell id="taeCFyFWrRogax-9pANC-244" value="2,1" style="rounded=0;whiteSpace=wrap;html=1;fillColor=none;strokeWidth=3;strokeColor=#10A8AD;dashed=1;fontFamily=Avenir;fontStyle=1;fontSize=31;fontColor=#10A8AD;" parent="1" vertex="1">
          <mxGeometry x="1460" y="1350" width="70" height="70" as="geometry" />
        </mxCell>
        <mxCell id="taeCFyFWrRogax-9pANC-245" value="2,2" style="rounded=0;whiteSpace=wrap;html=1;fillColor=none;strokeWidth=3;strokeColor=#10A8AD;dashed=1;fontFamily=Avenir;fontStyle=1;fontSize=31;fontColor=#10A8AD;" parent="1" vertex="1">
          <mxGeometry x="1460" y="1420" width="70" height="70" as="geometry" />
        </mxCell>
        <mxCell id="taeCFyFWrRogax-9pANC-246" value="2,3" style="rounded=0;whiteSpace=wrap;html=1;fillColor=none;strokeWidth=3;strokeColor=#10A8AD;dashed=1;fontFamily=Avenir;fontStyle=1;fontSize=31;fontColor=#10A8AD;" parent="1" vertex="1">
          <mxGeometry x="1460" y="1490" width="70" height="70" as="geometry" />
        </mxCell>
        <mxCell id="taeCFyFWrRogax-9pANC-247" value="2,4" style="rounded=0;whiteSpace=wrap;html=1;fillColor=none;strokeWidth=3;strokeColor=#10A8AD;dashed=1;fontFamily=Avenir;fontStyle=1;fontSize=31;fontColor=#10A8AD;" parent="1" vertex="1">
          <mxGeometry x="1460" y="1560" width="70" height="70" as="geometry" />
        </mxCell>
        <mxCell id="taeCFyFWrRogax-9pANC-248" value="3,0" style="rounded=0;whiteSpace=wrap;html=1;fillColor=none;strokeWidth=3;strokeColor=#10A8AD;dashed=1;fontFamily=Avenir;fontStyle=1;fontSize=31;fontColor=#10A8AD;" parent="1" vertex="1">
          <mxGeometry x="1530" y="1280" width="70" height="70" as="geometry" />
        </mxCell>
        <mxCell id="taeCFyFWrRogax-9pANC-249" value="3,1" style="rounded=0;whiteSpace=wrap;html=1;fillColor=none;strokeWidth=3;strokeColor=#10A8AD;dashed=1;fontFamily=Avenir;fontStyle=1;fontSize=31;fontColor=#10A8AD;" parent="1" vertex="1">
          <mxGeometry x="1530" y="1350" width="70" height="70" as="geometry" />
        </mxCell>
        <mxCell id="taeCFyFWrRogax-9pANC-250" value="3,2" style="rounded=0;whiteSpace=wrap;html=1;fillColor=none;strokeWidth=3;strokeColor=#10A8AD;dashed=1;fontFamily=Avenir;fontStyle=1;fontSize=31;fontColor=#10A8AD;" parent="1" vertex="1">
          <mxGeometry x="1530" y="1420" width="70" height="70" as="geometry" />
        </mxCell>
        <mxCell id="taeCFyFWrRogax-9pANC-251" value="3,3" style="rounded=0;whiteSpace=wrap;html=1;fillColor=none;strokeWidth=3;strokeColor=#10A8AD;dashed=1;fontFamily=Avenir;fontStyle=1;fontSize=31;fontColor=#10A8AD;" parent="1" vertex="1">
          <mxGeometry x="1530" y="1490" width="70" height="70" as="geometry" />
        </mxCell>
        <mxCell id="taeCFyFWrRogax-9pANC-252" value="3,4" style="rounded=0;whiteSpace=wrap;html=1;fillColor=none;strokeWidth=3;strokeColor=#10A8AD;dashed=1;fontFamily=Avenir;fontStyle=1;fontSize=31;fontColor=#10A8AD;" parent="1" vertex="1">
          <mxGeometry x="1530" y="1560" width="70" height="70" as="geometry" />
        </mxCell>
        <mxCell id="taeCFyFWrRogax-9pANC-253" value="4,0" style="rounded=0;whiteSpace=wrap;html=1;fillColor=none;strokeWidth=3;strokeColor=#10A8AD;dashed=1;fontFamily=Avenir;fontStyle=1;fontSize=31;fontColor=#10A8AD;" parent="1" vertex="1">
          <mxGeometry x="1600" y="1280" width="70" height="70" as="geometry" />
        </mxCell>
        <mxCell id="taeCFyFWrRogax-9pANC-254" value="4,1" style="rounded=0;whiteSpace=wrap;html=1;fillColor=none;strokeWidth=3;strokeColor=#10A8AD;dashed=1;fontFamily=Avenir;fontStyle=1;fontSize=31;fontColor=#10A8AD;" parent="1" vertex="1">
          <mxGeometry x="1600" y="1350" width="70" height="70" as="geometry" />
        </mxCell>
        <mxCell id="taeCFyFWrRogax-9pANC-255" value="4,2" style="rounded=0;whiteSpace=wrap;html=1;fillColor=none;strokeWidth=3;strokeColor=#10A8AD;dashed=1;fontFamily=Avenir;fontStyle=1;fontSize=31;fontColor=#10A8AD;" parent="1" vertex="1">
          <mxGeometry x="1600" y="1420" width="70" height="70" as="geometry" />
        </mxCell>
        <mxCell id="taeCFyFWrRogax-9pANC-256" value="4,3" style="rounded=0;whiteSpace=wrap;html=1;fillColor=none;strokeWidth=3;strokeColor=#10A8AD;dashed=1;fontFamily=Avenir;fontStyle=1;fontSize=31;fontColor=#10A8AD;" parent="1" vertex="1">
          <mxGeometry x="1600" y="1490" width="70" height="70" as="geometry" />
        </mxCell>
        <mxCell id="taeCFyFWrRogax-9pANC-257" value="4,4" style="rounded=0;whiteSpace=wrap;html=1;fillColor=none;strokeWidth=3;strokeColor=#10A8AD;dashed=1;fontFamily=Avenir;fontStyle=1;fontSize=31;fontColor=#10A8AD;" parent="1" vertex="1">
          <mxGeometry x="1600" y="1560" width="70" height="70" as="geometry" />
        </mxCell>
        <mxCell id="taeCFyFWrRogax-9pANC-258" value="8" style="rounded=0;html=1;fillColor=#10A8AD;strokeWidth=5;strokeColor=#10A8AD;fontFamily=Avenir;fontStyle=1;fontSize=90;fontColor=#FFFFFF;labelBackgroundColor=none;fillStyle=solid;glass=0;shadow=0;opacity=40;labelBorderColor=none;whiteSpace=wrap;textOpacity=80;" parent="1" vertex="1">
          <mxGeometry x="1320" y="1280" width="350" height="350" as="geometry" />
        </mxCell>
      </root>
    </mxGraphModel>
  </diagram>
</mxfile>
